<svg version="1.1" viewBox="0.0 0.0 1248.0 772.0" fill="none" stroke="none" stroke-linecap="square" stroke-miterlimit="10" width="1248" height="772" xmlns:xlink="http://www.w3.org/1999/xlink" xmlns="http://www.w3.org/2000/svg"><path fill="#ffffff" d="M0 0L1248.0 0L1248.0 772.0L0 772.0L0 0Z" fill-rule="nonzero"/><path stroke="#333333" stroke-width="1.0" stroke-linecap="butt" d="M93.5 95.5L93.5 675.5" fill-rule="nonzero"/><path stroke="#cccccc" stroke-width="1.0" stroke-linecap="butt" d="M253.5 95.5L253.5 675.5" fill-rule="nonzero"/><path stroke="#cccccc" stroke-width="1.0" stroke-linecap="butt" d="M412.5 95.5L412.5 675.5" fill-rule="nonzero"/><path stroke="#cccccc" stroke-width="1.0" stroke-linecap="butt" d="M571.5 95.5L571.5 675.5" fill-rule="nonzero"/><path stroke="#cccccc" stroke-width="1.0" stroke-linecap="butt" d="M731.5 95.5L731.5 675.5" fill-rule="nonzero"/><path stroke="#cccccc" stroke-width="1.0" stroke-linecap="butt" d="M890.5 95.5L890.5 675.5" fill-rule="nonzero"/><path stroke="#cccccc" stroke-width="1.0" stroke-linecap="butt" d="M1050.5 95.5L1050.5 675.5" fill-rule="nonzero"/><path stroke="#cccccc" stroke-width="1.0" stroke-linecap="butt" d="M1209.5 95.5L1209.5 675.5" fill-rule="nonzero"/><path stroke="#333333" stroke-width="1.0" stroke-linecap="butt" d="M93.5 675.5L1209.5 675.5" fill-rule="nonzero"/><path stroke="#cccccc" stroke-width="1.0" stroke-linecap="butt" d="M93.5 530.5L1209.5 530.5" fill-rule="nonzero"/><path stroke="#cccccc" stroke-width="1.0" stroke-linecap="butt" d="M93.5 385.5L1209.5 385.5" fill-rule="nonzero"/><path stroke="#cccccc" stroke-width="1.0" stroke-linecap="butt" d="M93.5 240.5L1209.5 240.5" fill-rule="nonzero"/><path stroke="#cccccc" stroke-width="1.0" stroke-linecap="butt" d="M93.5 95.5L1209.5 95.5" fill-rule="nonzero"/><path stroke="#e6e6e6" stroke-width="1.0" stroke-linecap="butt" d="M93.5 651.5L1209.5 651.5" fill-rule="nonzero"/><path stroke="#e6e6e6" stroke-width="1.0" stroke-linecap="butt" d="M93.5 627.5L1209.5 627.5" fill-rule="nonzero"/><path stroke="#e6e6e6" stroke-width="1.0" stroke-linecap="butt" d="M93.5 602.5L1209.5 602.5" fill-rule="nonzero"/><path stroke="#e6e6e6" stroke-width="1.0" stroke-linecap="butt" d="M93.5 578.5L1209.5 578.5" fill-rule="nonzero"/><path stroke="#e6e6e6" stroke-width="1.0" stroke-linecap="butt" d="M93.5 554.5L1209.5 554.5" fill-rule="nonzero"/><path stroke="#e6e6e6" stroke-width="1.0" stroke-linecap="butt" d="M93.5 506.5L1209.5 506.5" fill-rule="nonzero"/><path stroke="#e6e6e6" stroke-width="1.0" stroke-linecap="butt" d="M93.5 482.5L1209.5 482.5" fill-rule="nonzero"/><path stroke="#e6e6e6" stroke-width="1.0" stroke-linecap="butt" d="M93.5 457.5L1209.5 457.5" fill-rule="nonzero"/><path stroke="#e6e6e6" stroke-width="1.0" stroke-linecap="butt" d="M93.5 433.5L1209.5 433.5" fill-rule="nonzero"/><path stroke="#e6e6e6" stroke-width="1.0" stroke-linecap="butt" d="M93.5 409.5L1209.5 409.5" fill-rule="nonzero"/><path stroke="#e6e6e6" stroke-width="1.0" stroke-linecap="butt" d="M93.5 361.5L1209.5 361.5" fill-rule="nonzero"/><path stroke="#e6e6e6" stroke-width="1.0" stroke-linecap="butt" d="M93.5 337.5L1209.5 337.5" fill-rule="nonzero"/><path stroke="#e6e6e6" stroke-width="1.0" stroke-linecap="butt" d="M93.5 312.5L1209.5 312.5" fill-rule="nonzero"/><path stroke="#e6e6e6" stroke-width="1.0" stroke-linecap="butt" d="M93.5 288.5L1209.5 288.5" fill-rule="nonzero"/><path stroke="#e6e6e6" stroke-width="1.0" stroke-linecap="butt" d="M93.5 264.5L1209.5 264.5" fill-rule="nonzero"/><path stroke="#e6e6e6" stroke-width="1.0" stroke-linecap="butt" d="M93.5 216.5L1209.5 216.5" fill-rule="nonzero"/><path stroke="#e6e6e6" stroke-width="1.0" stroke-linecap="butt" d="M93.5 192.5L1209.5 192.5" fill-rule="nonzero"/><path stroke="#e6e6e6" stroke-width="1.0" stroke-linecap="butt" d="M93.5 167.5L1209.5 167.5" fill-rule="nonzero"/><path stroke="#e6e6e6" stroke-width="1.0" stroke-linecap="butt" d="M93.5 143.5L1209.5 143.5" fill-rule="nonzero"/><path stroke="#e6e6e6" stroke-width="1.0" stroke-linecap="butt" d="M93.5 119.5L1209.5 119.5" fill-rule="nonzero"/><path stroke="#000000" stroke-width="1.0" stroke-linecap="butt" d="M1209.5 675.5L93.5 675.5" fill-rule="nonzero"/><clipPath id="id_0"><path d="M93.6 95.333336L1209.4 95.333336L1209.4 675.4L93.6 675.4L93.6 95.333336Z" clip-rule="nonzero"/></clipPath><path stroke="#4285f4" stroke-width="2.0" stroke-linecap="butt" clip-path="url(#id_0)" d="M93.6 672.8219L94.03671 671.7355L141.63835 553.5119L180.94246 474.1302L220.24658 409.55316L259.5507 357.01974L298.8548 314.28384L338.1589 279.51816L377.463 251.23628L416.76712 228.22897L456.07123 209.51253L495.37534 194.28671L534.67944 181.9005L573.9836 171.82431L613.28766 163.62733L652.5918 156.9591L691.8959 151.53448L731.2 147.12157L770.5041 143.53166L809.8082 140.61127L849.1123 138.23552L888.41644 136.30286L927.7205 134.73064L967.02466 133.45163L1006.3288 132.41116L1045.6329 131.56474L1084.937 130.87617L1124.2411 130.31602L1163.5452 129.86035" fill-rule="nonzero"/><path fill="#000000" fill-opacity="0.0" clip-path="url(#id_0)" d="M96.6 672.8219C96.6 674.47876 95.25685 675.8219 93.6 675.8219C91.943146 675.8219 90.6 674.47876 90.6 672.8219C90.6 671.1651 91.943146 669.8219 93.6 669.8219C95.25685 669.8219 96.6 671.1651 96.6 672.8219Z" fill-rule="nonzero"/><path fill="#000000" fill-opacity="0.0" clip-path="url(#id_0)" d="M97.03671 671.7355C97.03671 673.3923 95.693565 674.7355 94.03671 674.7355C92.37986 674.7355 91.03671 673.3923 91.03671 671.7355C91.03671 670.0786 92.37986 668.7355 94.03671 668.7355C95.693565 668.7355 97.03671 670.0786 97.03671 671.7355Z" fill-rule="nonzero"/><path fill="#000000" fill-opacity="0.0" clip-path="url(#id_0)" d="M144.63835 553.5119C144.63835 555.16876 143.29521 556.5119 141.63835 556.5119C139.9815 556.5119 138.63835 555.16876 138.63835 553.5119C138.63835 551.85504 139.9815 550.5119 141.63835 550.5119C143.29521 550.5119 144.63835 551.85504 144.63835 553.5119Z" fill-rule="nonzero"/><path fill="#000000" fill-opacity="0.0" clip-path="url(#id_0)" d="M183.94246 474.1302C183.94246 475.78705 182.59932 477.1302 180.94246 477.1302C179.28561 477.1302 177.94246 475.78705 177.94246 474.1302C177.94246 472.47333 179.28561 471.1302 180.94246 471.1302C182.59932 471.1302 183.94246 472.47333 183.94246 474.1302Z" fill-rule="nonzero"/><path fill="#000000" fill-opacity="0.0" clip-path="url(#id_0)" d="M223.24658 409.55316C223.24658 411.21002 221.90343 412.55316 220.24658 412.55316C218.58972 412.55316 217.24658 411.21002 217.24658 409.55316C217.24658 407.8963 218.58972 406.55316 220.24658 406.55316C221.90343 406.55316 223.24658 407.8963 223.24658 409.55316Z" fill-rule="nonzero"/><path fill="#000000" fill-opacity="0.0" clip-path="url(#id_0)" d="M262.5507 357.01974C262.5507 358.6766 261.20755 360.01974 259.5507 360.01974C257.89383 360.01974 256.5507 358.6766 256.5507 357.01974C256.5507 355.3629 257.89383 354.01974 259.5507 354.01974C261.20755 354.01974 262.5507 355.3629 262.5507 357.01974Z" fill-rule="nonzero"/><path fill="#000000" fill-opacity="0.0" clip-path="url(#id_0)" d="M301.8548 314.28384C301.8548 315.94067 300.51166 317.28384 298.8548 317.28384C297.19794 317.28384 295.8548 315.94067 295.8548 314.28384C295.8548 312.62698 297.19794 311.28384 298.8548 311.28384C300.51166 311.28384 301.8548 312.62698 301.8548 314.28384Z" fill-rule="nonzero"/><path fill="#000000" fill-opacity="0.0" clip-path="url(#id_0)" d="M341.1589 279.51816C341.1589 281.17502 339.81577 282.51816 338.1589 282.51816C336.50204 282.51816 335.1589 281.17502 335.1589 279.51816C335.1589 277.8613 336.50204 276.51816 338.1589 276.51816C339.81577 276.51816 341.1589 277.8613 341.1589 279.51816Z" fill-rule="nonzero"/><path fill="#000000" fill-opacity="0.0" clip-path="url(#id_0)" d="M380.463 251.23628C380.463 252.89314 379.11987 254.23628 377.463 254.23628C375.80615 254.23628 374.463 252.89314 374.463 251.23628C374.463 249.57942 375.80615 248.23628 377.463 248.23628C379.11987 248.23628 380.463 249.57942 380.463 251.23628Z" fill-rule="nonzero"/><path fill="#000000" fill-opacity="0.0" clip-path="url(#id_0)" d="M419.76712 228.22897C419.76712 229.88583 418.42398 231.22897 416.76712 231.22897C415.11026 231.22897 413.76712 229.88583 413.76712 228.22897C413.76712 226.57213 415.11026 225.22897 416.76712 225.22897C418.42398 225.22897 419.76712 226.57213 419.76712 228.22897Z" fill-rule="nonzero"/><path fill="#000000" fill-opacity="0.0" clip-path="url(#id_0)" d="M459.07123 209.51253C459.07123 211.16939 457.7281 212.51253 456.07123 212.51253C454.41437 212.51253 453.07123 211.16939 453.07123 209.51253C453.07123 207.85568 454.41437 206.51253 456.07123 206.51253C457.7281 206.51253 459.07123 207.85568 459.07123 209.51253Z" fill-rule="nonzero"/><path fill="#000000" fill-opacity="0.0" clip-path="url(#id_0)" d="M498.37534 194.28671C498.37534 195.94356 497.0322 197.28671 495.37534 197.28671C493.71848 197.28671 492.37534 195.94356 492.37534 194.28671C492.37534 192.62985 493.71848 191.28671 495.37534 191.28671C497.0322 191.28671 498.37534 192.62985 498.37534 194.28671Z" fill-rule="nonzero"/><path fill="#000000" fill-opacity="0.0" clip-path="url(#id_0)" d="M537.67944 181.9005C537.67944 183.55736 536.3363 184.9005 534.67944 184.9005C533.0226 184.9005 531.67944 183.55736 531.67944 181.9005C531.67944 180.24364 533.0226 178.9005 534.67944 178.9005C536.3363 178.9005 537.67944 180.24364 537.67944 181.9005Z" fill-rule="nonzero"/><path fill="#000000" fill-opacity="0.0" clip-path="url(#id_0)" d="M576.9836 171.82431C576.9836 173.48117 575.64044 174.82431 573.9836 174.82431C572.3267 174.82431 570.9836 173.48117 570.9836 171.82431C570.9836 170.16747 572.3267 168.82431 573.9836 168.82431C575.64044 168.82431 576.9836 170.16747 576.9836 171.82431Z" fill-rule="nonzero"/><path fill="#000000" fill-opacity="0.0" clip-path="url(#id_0)" d="M616.28766 163.62733C616.28766 165.2842 614.9445 166.62733 613.28766 166.62733C611.6308 166.62733 610.28766 165.2842 610.28766 163.62733C610.28766 161.97049 611.6308 160.62733 613.28766 160.62733C614.9445 160.62733 616.28766 161.97049 616.28766 163.62733Z" fill-rule="nonzero"/><path fill="#000000" fill-opacity="0.0" clip-path="url(#id_0)" d="M655.5918 156.9591C655.5918 158.61595 654.24866 159.9591 652.5918 159.9591C650.93494 159.9591 649.5918 158.61595 649.5918 156.9591C649.5918 155.30225 650.93494 153.9591 652.5918 153.9591C654.24866 153.9591 655.5918 155.30225 655.5918 156.9591Z" fill-rule="nonzero"/><path fill="#000000" fill-opacity="0.0" clip-path="url(#id_0)" d="M694.8959 151.53448C694.8959 153.19135 693.55273 154.53448 691.8959 154.53448C690.239 154.53448 688.8959 153.19135 688.8959 151.53448C688.8959 149.87764 690.239 148.53448 691.8959 148.53448C693.55273 148.53448 694.8959 149.87764 694.8959 151.53448Z" fill-rule="nonzero"/><path fill="#000000" fill-opacity="0.0" clip-path="url(#id_0)" d="M734.2 147.12157C734.2 148.77843 732.8569 150.12157 731.2 150.12157C729.54315 150.12157 728.2 148.77843 728.2 147.12157C728.2 145.46472 729.54315 144.12157 731.2 144.12157C732.8569 144.12157 734.2 145.46472 734.2 147.12157Z" fill-rule="nonzero"/><path fill="#000000" fill-opacity="0.0" clip-path="url(#id_0)" d="M773.5041 143.53166C773.5041 145.1885 772.16095 146.53166 770.5041 146.53166C768.8472 146.53166 767.5041 145.1885 767.5041 143.53166C767.5041 141.8748 768.8472 140.53166 770.5041 140.53166C772.16095 140.53166 773.5041 141.8748 773.5041 143.53166Z" fill-rule="nonzero"/><path fill="#000000" fill-opacity="0.0" clip-path="url(#id_0)" d="M812.8082 140.61127C812.8082 142.26811 811.4651 143.61127 809.8082 143.61127C808.15137 143.61127 806.8082 142.26811 806.8082 140.61127C806.8082 138.9544 808.15137 137.61127 809.8082 137.61127C811.4651 137.61127 812.8082 138.9544 812.8082 140.61127Z" fill-rule="nonzero"/><path fill="#000000" fill-opacity="0.0" clip-path="url(#id_0)" d="M852.1123 138.23552C852.1123 139.89238 850.76917 141.23552 849.1123 141.23552C847.45544 141.23552 846.1123 139.89238 846.1123 138.23552C846.1123 136.57867 847.45544 135.23552 849.1123 135.23552C850.76917 135.23552 852.1123 136.57867 852.1123 138.23552Z" fill-rule="nonzero"/><path fill="#000000" fill-opacity="0.0" clip-path="url(#id_0)" d="M891.41644 136.30286C891.41644 137.95972 890.0733 139.30286 888.41644 139.30286C886.7596 139.30286 885.41644 137.95972 885.41644 136.30286C885.41644 134.64601 886.7596 133.30286 888.41644 133.30286C890.0733 133.30286 891.41644 134.64601 891.41644 136.30286Z" fill-rule="nonzero"/><path fill="#000000" fill-opacity="0.0" clip-path="url(#id_0)" d="M930.7205 134.73064C930.7205 136.3875 929.3774 137.73064 927.7205 137.73064C926.0637 137.73064 924.7205 136.3875 924.7205 134.73064C924.7205 133.07378 926.0637 131.73064 927.7205 131.73064C929.3774 131.73064 930.7205 133.07378 930.7205 134.73064Z" fill-rule="nonzero"/><path fill="#000000" fill-opacity="0.0" clip-path="url(#id_0)" d="M970.02466 133.45163C970.02466 135.10849 968.6815 136.45163 967.02466 136.45163C965.3678 136.45163 964.02466 135.10849 964.02466 133.45163C964.02466 131.79478 965.3678 130.45163 967.02466 130.45163C968.6815 130.45163 970.02466 131.79478 970.02466 133.45163Z" fill-rule="nonzero"/><path fill="#000000" fill-opacity="0.0" clip-path="url(#id_0)" d="M1009.3288 132.41116C1009.3288 134.06802 1007.9856 135.41116 1006.3288 135.41116C1004.67194 135.41116 1003.3288 134.06802 1003.3288 132.41116C1003.3288 130.7543 1004.67194 129.41116 1006.3288 129.41116C1007.9856 129.41116 1009.3288 130.7543 1009.3288 132.41116Z" fill-rule="nonzero"/><path fill="#000000" fill-opacity="0.0" clip-path="url(#id_0)" d="M1048.6329 131.56474C1048.6329 133.2216 1047.2897 134.56474 1045.6329 134.56474C1043.9761 134.56474 1042.6329 133.2216 1042.6329 131.56474C1042.6329 129.90788 1043.9761 128.56474 1045.6329 128.56474C1047.2897 128.56474 1048.6329 129.90788 1048.6329 131.56474Z" fill-rule="nonzero"/><path fill="#000000" fill-opacity="0.0" clip-path="url(#id_0)" d="M1087.937 130.87617C1087.937 132.53304 1086.5939 133.87617 1084.937 133.87617C1083.2802 133.87617 1081.937 132.53304 1081.937 130.87617C1081.937 129.21933 1083.2802 127.87618 1084.937 127.87618C1086.5939 127.87618 1087.937 129.21933 1087.937 130.87617Z" fill-rule="nonzero"/><path fill="#000000" fill-opacity="0.0" clip-path="url(#id_0)" d="M1127.2411 130.31602C1127.2411 131.97289 1125.898 133.31602 1124.2411 133.31602C1122.5842 133.31602 1121.2411 131.97289 1121.2411 130.31602C1121.2411 128.65918 1122.5842 127.31603 1124.2411 127.31603C1125.898 127.31603 1127.2411 128.65918 1127.2411 130.31602Z" fill-rule="nonzero"/><path fill="#000000" fill-opacity="0.0" clip-path="url(#id_0)" d="M1166.5452 129.86035C1166.5452 131.51721 1165.202 132.86035 1163.5452 132.86035C1161.8883 132.86035 1160.5452 131.51721 1160.5452 129.86035C1160.5452 128.20349 1161.8883 126.86035 1163.5452 126.86035C1165.202 126.86035 1166.5452 128.20349 1166.5452 129.86035Z" fill-rule="nonzero"/><path stroke="#000000" stroke-width="1.0" stroke-linecap="butt" d="M93.5 681.5L93.5 669.5" fill-rule="nonzero"/><path stroke="#000000" stroke-width="1.0" stroke-linecap="butt" d="M253.5 681.5L253.5 669.5" fill-rule="nonzero"/><path stroke="#000000" stroke-width="1.0" stroke-linecap="butt" d="M412.5 681.5L412.5 669.5" fill-rule="nonzero"/><path stroke="#000000" stroke-width="1.0" stroke-linecap="butt" d="M571.5 681.5L571.5 669.5" fill-rule="nonzero"/><path stroke="#000000" stroke-width="1.0" stroke-linecap="butt" d="M731.5 681.5L731.5 669.5" fill-rule="nonzero"/><path stroke="#000000" stroke-width="1.0" stroke-linecap="butt" d="M890.5 681.5L890.5 669.5" fill-rule="nonzero"/><path stroke="#000000" stroke-width="1.0" stroke-linecap="butt" d="M1050.5 681.5L1050.5 669.5" fill-rule="nonzero"/><path stroke="#000000" stroke-width="1.0" stroke-linecap="butt" d="M1209.5 681.5L1209.5 669.5" fill-rule="nonzero"/><path fill="#000000" d="M643.3281 730.4L643.3281 729.6188Q642.7344 730.54065 641.59375 730.54065Q640.84375 730.54065 640.21875 730.1344Q639.59375 729.7125 639.25 728.97815Q638.90625 728.2438 638.90625 727.29065Q638.90625 726.3688 639.21875 725.60315Q639.53125 724.8375 640.15625 724.4469Q640.78125 724.04065 641.5469 724.04065Q642.1094 724.04065 642.5469 724.275Q642.9844 724.5094 643.2656 724.8844L643.2656 721.8063L644.3125 721.8063L644.3125 730.4L643.3281 730.4ZM640.0 727.29065Q640.0 728.4938 640.5 729.0875Q641.0 729.66565 641.6875 729.66565Q642.375 729.66565 642.8594 729.10315Q643.34375 728.54065 643.34375 727.3844Q643.34375 726.10315 642.84375 725.5094Q642.3594 724.91565 641.6406 724.91565Q640.9375 724.91565 640.46875 725.4938Q640.0 726.0563 640.0 727.29065ZM650.3594 729.6344Q649.7656 730.1344 649.21875 730.3375Q648.6875 730.54065 648.0625 730.54065Q647.03125 730.54065 646.4844 730.04065Q645.9375 729.54065 645.9375 728.7594Q645.9375 728.3063 646.1406 727.9313Q646.34375 727.54065 646.6875 727.3219Q647.03125 727.0875 647.4531 726.97815Q647.75 726.8844 648.3906 726.8063Q649.65625 726.66565 650.2656 726.4469Q650.2656 726.22815 650.2656 726.1813Q650.2656 725.525 649.96875 725.2594Q649.5625 724.91565 648.7656 724.91565Q648.03125 724.91565 647.6719 725.1813Q647.3125 725.4313 647.1406 726.0875L646.1094 725.9469Q646.25 725.29065 646.5781 724.8844Q646.90625 724.47815 647.5156 724.2594Q648.125 724.04065 648.9219 724.04065Q649.71875 724.04065 650.21875 724.22815Q650.71875 724.41565 650.9531 724.6969Q651.1875 724.97815 651.28125 725.41565Q651.3281 725.6813 651.3281 726.3844L651.3281 727.79065Q651.3281 729.2594 651.3906 729.65Q651.46875 730.04065 651.6719 730.4L650.5625 730.4Q650.40625 730.0719 650.3594 729.6344ZM650.2656 727.275Q649.6875 727.5094 648.5469 727.6813Q647.8906 727.775 647.625 727.9Q647.3594 728.0094 647.2031 728.22815Q647.0625 728.4469 647.0625 728.72815Q647.0625 729.15 647.375 729.4313Q647.7031 729.7125 648.3125 729.7125Q648.9219 729.7125 649.3906 729.4469Q649.875 729.1813 650.09375 728.7125Q650.2656 728.35315 650.2656 727.66565L650.2656 727.275ZM653.25 732.79065L653.125 731.8063Q653.46875 731.9 653.7344 731.9Q654.0781 731.9 654.28125 731.775Q654.5 731.66565 654.6406 731.4625Q654.7344 731.29065 654.96875 730.66565Q654.9844 730.5875 655.0625 730.41565L652.6875 724.1813L653.8281 724.1813L655.125 727.775Q655.375 728.4625 655.5781 729.22815Q655.7656 728.4938 656.0156 727.8063L657.34375 724.1813L658.3906 724.1813L656.03125 730.5094Q655.6406 731.525 655.4375 731.91565Q655.15625 732.4469 654.78125 732.6813Q654.4219 732.9313 653.9219 732.9313Q653.625 732.9313 653.25 732.79065ZM657.875 728.54065L658.90625 728.3844Q659.0 729.0094 659.3906 729.3375Q659.7969 729.66565 660.53125 729.66565Q661.25 729.66565 661.59375 729.3844Q661.9531 729.0875 661.9531 728.6813Q661.9531 728.3219 661.6406 728.1188Q661.4219 727.97815 660.5625 727.7594Q659.40625 727.4625 658.9531 727.2594Q658.5156 727.04065 658.28125 726.66565Q658.0469 726.29065 658.0469 725.8219Q658.0469 725.41565 658.2344 725.0563Q658.4219 724.6969 658.75 724.4625Q659.0 724.29065 659.4219 724.16565Q659.84375 724.04065 660.34375 724.04065Q661.0625 724.04065 661.6094 724.2594Q662.1719 724.4625 662.4375 724.8219Q662.7031 725.1813 662.7969 725.775L661.7656 725.91565Q661.7031 725.4469 661.3594 725.1813Q661.03125 724.9 660.40625 724.9Q659.6875 724.9 659.375 725.15Q659.0625 725.3844 659.0625 725.7125Q659.0625 725.91565 659.1875 726.0719Q659.3281 726.2438 659.59375 726.35315Q659.75 726.41565 660.53125 726.6188Q661.65625 726.9313 662.09375 727.1188Q662.53125 727.3063 662.78125 727.66565Q663.03125 728.025 663.03125 728.5719Q663.03125 729.10315 662.71875 729.5719Q662.4219 730.025 661.84375 730.29065Q661.2656 730.54065 660.53125 730.54065Q659.3125 730.54065 658.6719 730.04065Q658.0469 729.525 657.875 728.54065Z" fill-rule="nonzero"/><path fill="#000000" d="M81.1 675.16565Q81.1 673.6344 81.4125 672.7125Q81.725 671.775 82.33437 671.275Q82.95937 670.775 83.89687 670.775Q84.58437 670.775 85.1 671.0563Q85.63125 671.3375 85.975 671.8688Q86.31875 672.3844 86.50625 673.1344Q86.69375 673.8844 86.69375 675.16565Q86.69375 676.6813 86.38125 677.60315Q86.08437 678.525 85.45937 679.04065Q84.85 679.54065 83.89687 679.54065Q82.6625 679.54065 81.94375 678.65Q81.1 677.5875 81.1 675.16565ZM82.17812 675.16565Q82.17812 677.275 82.67812 677.97815Q83.17812 678.6813 83.89687 678.6813Q84.63125 678.6813 85.11562 677.97815Q85.61562 677.275 85.61562 675.16565Q85.61562 673.04065 85.11562 672.35315Q84.63125 671.65 83.88125 671.65Q83.1625 671.65 82.725 672.2594Q82.17812 673.04065 82.17812 675.16565Z" fill-rule="nonzero"/><path fill="#000000" d="M46.1 532.13336L47.209373 532.0396Q47.334373 532.8521 47.771873 533.25836Q48.225 533.6646 48.865623 533.6646Q49.615623 533.6646 50.146873 533.0865Q50.678123 532.50836 50.678123 531.57086Q50.678123 530.6646 50.1625 530.149Q49.6625 529.61774 48.834373 529.61774Q48.334373 529.61774 47.9125 529.8521Q47.50625 530.0865 47.271873 530.44586L46.2875 530.32086L47.115623 525.9146L51.396873 525.9146L51.396873 526.9146L47.959373 526.9146L47.50625 529.2271Q48.271873 528.68024 49.115623 528.68024Q50.240623 528.68024 51.00625 529.4615Q51.7875 530.24274 51.7875 531.4771Q51.7875 532.63336 51.115623 533.49274Q50.2875 534.524 48.865623 534.524Q47.69375 534.524 46.94375 533.86774Q46.209373 533.2115 46.1 532.13336ZM53.1 530.149Q53.1 528.61774 53.4125 527.69586Q53.725 526.75836 54.334373 526.25836Q54.959373 525.75836 55.896873 525.75836Q56.584373 525.75836 57.1 526.0396Q57.63125 526.32086 57.975 526.8521Q58.31875 527.36774 58.50625 528.11774Q58.69375 528.86774 58.69375 530.149Q58.69375 531.6646 58.38125 532.5865Q58.084373 533.50836 57.459373 534.024Q56.85 534.524 55.896873 534.524Q54.6625 534.524 53.94375 533.63336Q53.1 532.57086 53.1 530.149ZM54.178123 530.149Q54.178123 532.25836 54.678123 532.9615Q55.178123 533.6646 55.896873 533.6646Q56.63125 533.6646 57.115623 532.9615Q57.615623 532.25836 57.615623 530.149Q57.615623 528.024 57.115623 527.3365Q56.63125 526.63336 55.88125 526.63336Q55.1625 526.63336 54.725 527.24274Q54.178123 528.024 54.178123 530.149ZM60.1 530.149Q60.1 528.61774 60.4125 527.69586Q60.725 526.75836 61.334373 526.25836Q61.959373 525.75836 62.896873 525.75836Q63.584373 525.75836 64.1 526.0396Q64.63125 526.32086 64.975 526.8521Q65.31875 527.36774 65.50625 528.11774Q65.69375 528.86774 65.69375 530.149Q65.69375 531.6646 65.38125 532.5865Q65.08437 533.50836 64.45937 534.024Q63.85 534.524 62.896873 534.524Q61.6625 534.524 60.94375 533.63336Q60.1 532.57086 60.1 530.149ZM61.178123 530.149Q61.178123 532.25836 61.678123 532.9615Q62.178123 533.6646 62.896873 533.6646Q63.63125 533.6646 64.11562 532.9615Q64.61562 532.25836 64.61562 530.149Q64.61562 528.024 64.11562 527.3365Q63.63125 526.63336 62.88125 526.63336Q62.1625 526.63336 61.725 527.24274Q61.178123 528.024 61.178123 530.149ZM67.1 530.149Q67.1 528.61774 67.4125 527.69586Q67.725 526.75836 68.33437 526.25836Q68.95937 525.75836 69.89687 525.75836Q70.58437 525.75836 71.1 526.0396Q71.63125 526.32086 71.975 526.8521Q72.31875 527.36774 72.50625 528.11774Q72.69375 528.86774 72.69375 530.149Q72.69375 531.6646 72.38125 532.5865Q72.08437 533.50836 71.45937 534.024Q70.85 534.524 69.89687 534.524Q68.6625 534.524 67.94375 533.63336Q67.1 532.57086 67.1 530.149ZM68.17812 530.149Q68.17812 532.25836 68.67812 532.9615Q69.17812 533.6646 69.89687 533.6646Q70.63125 533.6646 71.11562 532.9615Q71.61562 532.25836 71.61562 530.149Q71.61562 528.024 71.11562 527.3365Q70.63125 526.63336 69.88125 526.63336Q69.1625 526.63336 68.725 527.24274Q68.17812 528.024 68.17812 530.149ZM74.1 530.149Q74.1 528.61774 74.4125 527.69586Q74.725 526.75836 75.33437 526.25836Q75.95937 525.75836 76.89687 525.75836Q77.58437 525.75836 78.1 526.0396Q78.63125 526.32086 78.975 526.8521Q79.31875 527.36774 79.50625 528.11774Q79.69375 528.86774 79.69375 530.149Q79.69375 531.6646 79.38125 532.5865Q79.08437 533.50836 78.45937 534.024Q77.85 534.524 76.89687 534.524Q75.6625 534.524 74.94375 533.63336Q74.1 532.57086 74.1 530.149ZM75.17812 530.149Q75.17812 532.25836 75.67812 532.9615Q76.17812 533.6646 76.89687 533.6646Q77.63125 533.6646 78.11562 532.9615Q78.61562 532.25836 78.61562 530.149Q78.61562 528.024 78.11562 527.3365Q77.63125 526.63336 76.88125 526.63336Q76.1625 526.63336 75.725 527.24274Q75.17812 528.024 75.17812 530.149ZM81.1 530.149Q81.1 528.61774 81.4125 527.69586Q81.725 526.75836 82.33437 526.25836Q82.95937 525.75836 83.89687 525.75836Q84.58437 525.75836 85.1 526.0396Q85.63125 526.32086 85.975 526.8521Q86.31875 527.36774 86.50625 528.11774Q86.69375 528.86774 86.69375 530.149Q86.69375 531.6646 86.38125 532.5865Q86.08437 533.50836 85.45937 534.024Q84.85 534.524 83.89687 534.524Q82.6625 534.524 81.94375 533.63336Q81.1 532.57086 81.1 530.149ZM82.17812 530.149Q82.17812 532.25836 82.67812 532.9615Q83.17812 533.6646 83.89687 533.6646Q84.63125 533.6646 85.11562 532.9615Q85.61562 532.25836 85.61562 530.149Q85.61562 528.024 85.11562 527.3365Q84.63125 526.63336 83.88125 526.63336Q83.1625 526.63336 82.725 527.24274Q82.17812 528.024 82.17812 530.149Z" fill-rule="nonzero"/><path fill="#000000" d="M43.06875 389.36667L42.021873 389.36667L42.021873 382.64792Q41.63125 383.0073 41.00625 383.3823Q40.396873 383.74167 39.9125 383.91354L39.9125 382.89792Q40.7875 382.47604 41.44375 381.89792Q42.115623 381.30417 42.396873 380.74167L43.06875 380.74167L43.06875 389.36667ZM46.1 385.1323Q46.1 383.60104 46.4125 382.67917Q46.725 381.74167 47.334373 381.24167Q47.959373 380.74167 48.896873 380.74167Q49.584373 380.74167 50.1 381.02292Q50.63125 381.30417 50.975 381.83542Q51.31875 382.35104 51.50625 383.10104Q51.69375 383.85104 51.69375 385.1323Q51.69375 386.64792 51.38125 387.5698Q51.084373 388.49167 50.459373 389.0073Q49.85 389.5073 48.896873 389.5073Q47.6625 389.5073 46.94375 388.61667Q46.1 387.55417 46.1 385.1323ZM47.178123 385.1323Q47.178123 387.24167 47.678123 387.9448Q48.178123 388.64792 48.896873 388.64792Q49.63125 388.64792 50.115623 387.9448Q50.615623 387.24167 50.615623 385.1323Q50.615623 383.0073 50.115623 382.3198Q49.63125 381.61667 48.88125 381.61667Q48.1625 381.61667 47.725 382.22604Q47.178123 383.0073 47.178123 385.1323ZM53.1 385.1323Q53.1 383.60104 53.4125 382.67917Q53.725 381.74167 54.334373 381.24167Q54.959373 380.74167 55.896873 380.74167Q56.584373 380.74167 57.1 381.02292Q57.63125 381.30417 57.975 381.83542Q58.31875 382.35104 58.50625 383.10104Q58.69375 383.85104 58.69375 385.1323Q58.69375 386.64792 58.38125 387.5698Q58.084373 388.49167 57.459373 389.0073Q56.85 389.5073 55.896873 389.5073Q54.6625 389.5073 53.94375 388.61667Q53.1 387.55417 53.1 385.1323ZM54.178123 385.1323Q54.178123 387.24167 54.678123 387.9448Q55.178123 388.64792 55.896873 388.64792Q56.63125 388.64792 57.115623 387.9448Q57.615623 387.24167 57.615623 385.1323Q57.615623 383.0073 57.115623 382.3198Q56.63125 381.61667 55.88125 381.61667Q55.1625 381.61667 54.725 382.22604Q54.178123 383.0073 54.178123 385.1323ZM60.1 385.1323Q60.1 383.60104 60.4125 382.67917Q60.725 381.74167 61.334373 381.24167Q61.959373 380.74167 62.896873 380.74167Q63.584373 380.74167 64.1 381.02292Q64.63125 381.30417 64.975 381.83542Q65.31875 382.35104 65.50625 383.10104Q65.69375 383.85104 65.69375 385.1323Q65.69375 386.64792 65.38125 387.5698Q65.08437 388.49167 64.45937 389.0073Q63.85 389.5073 62.896873 389.5073Q61.6625 389.5073 60.94375 388.61667Q60.1 387.55417 60.1 385.1323ZM61.178123 385.1323Q61.178123 387.24167 61.678123 387.9448Q62.178123 388.64792 62.896873 388.64792Q63.63125 388.64792 64.11562 387.9448Q64.61562 387.24167 64.61562 385.1323Q64.61562 383.0073 64.11562 382.3198Q63.63125 381.61667 62.88125 381.61667Q62.1625 381.61667 61.725 382.22604Q61.178123 383.0073 61.178123 385.1323ZM67.1 385.1323Q67.1 383.60104 67.4125 382.67917Q67.725 381.74167 68.33437 381.24167Q68.95937 380.74167 69.89687 380.74167Q70.58437 380.74167 71.1 381.02292Q71.63125 381.30417 71.975 381.83542Q72.31875 382.35104 72.50625 383.10104Q72.69375 383.85104 72.69375 385.1323Q72.69375 386.64792 72.38125 387.5698Q72.08437 388.49167 71.45937 389.0073Q70.85 389.5073 69.89687 389.5073Q68.6625 389.5073 67.94375 388.61667Q67.1 387.55417 67.1 385.1323ZM68.17812 385.1323Q68.17812 387.24167 68.67812 387.9448Q69.17812 388.64792 69.89687 388.64792Q70.63125 388.64792 71.11562 387.9448Q71.61562 387.24167 71.61562 385.1323Q71.61562 383.0073 71.11562 382.3198Q70.63125 381.61667 69.88125 381.61667Q69.1625 381.61667 68.725 382.22604Q68.17812 383.0073 68.17812 385.1323ZM74.1 385.1323Q74.1 383.60104 74.4125 382.67917Q74.725 381.74167 75.33437 381.24167Q75.95937 380.74167 76.89687 380.74167Q77.58437 380.74167 78.1 381.02292Q78.63125 381.30417 78.975 381.83542Q79.31875 382.35104 79.50625 383.10104Q79.69375 383.85104 79.69375 385.1323Q79.69375 386.64792 79.38125 387.5698Q79.08437 388.49167 78.45937 389.0073Q77.85 389.5073 76.89687 389.5073Q75.6625 389.5073 74.94375 388.61667Q74.1 387.55417 74.1 385.1323ZM75.17812 385.1323Q75.17812 387.24167 75.67812 387.9448Q76.17812 388.64792 76.89687 388.64792Q77.63125 388.64792 78.11562 387.9448Q78.61562 387.24167 78.61562 385.1323Q78.61562 383.0073 78.11562 382.3198Q77.63125 381.61667 76.88125 381.61667Q76.1625 381.61667 75.725 382.22604Q75.17812 383.0073 75.17812 385.1323ZM81.1 385.1323Q81.1 383.60104 81.4125 382.67917Q81.725 381.74167 82.33437 381.24167Q82.95937 380.74167 83.89687 380.74167Q84.58437 380.74167 85.1 381.02292Q85.63125 381.30417 85.975 381.83542Q86.31875 382.35104 86.50625 383.10104Q86.69375 383.85104 86.69375 385.1323Q86.69375 386.64792 86.38125 387.5698Q86.08437 388.49167 85.45937 389.0073Q84.85 389.5073 83.89687 389.5073Q82.6625 389.5073 81.94375 388.61667Q81.1 387.55417 81.1 385.1323ZM82.17812 385.1323Q82.17812 387.24167 82.67812 387.9448Q83.17812 388.64792 83.89687 388.64792Q84.63125 388.64792 85.11562 387.9448Q85.61562 387.24167 85.61562 385.1323Q85.61562 383.0073 85.11562 382.3198Q84.63125 381.61667 83.88125 381.61667Q83.1625 381.61667 82.725 382.22604Q82.17812 383.0073 82.17812 385.1323Z" fill-rule="nonzero"/><path fill="#000000" d="M43.06875 244.35L42.021873 244.35L42.021873 237.63126Q41.63125 237.99063 41.00625 238.36563Q40.396873 238.725 39.9125 238.89688L39.9125 237.88126Q40.7875 237.45938 41.44375 236.88126Q42.115623 236.2875 42.396873 235.725L43.06875 235.725L43.06875 244.35ZM46.1 242.1L47.209373 242.00626Q47.334373 242.81876 47.771873 243.225Q48.225 243.63126 48.865623 243.63126Q49.615623 243.63126 50.146873 243.05313Q50.678123 242.475 50.678123 241.5375Q50.678123 240.63126 50.1625 240.11563Q49.6625 239.58438 48.834373 239.58438Q48.334373 239.58438 47.9125 239.81876Q47.50625 240.05313 47.271873 240.4125L46.2875 240.2875L47.115623 235.88126L51.396873 235.88126L51.396873 236.88126L47.959373 236.88126L47.50625 239.19376Q48.271873 238.64688 49.115623 238.64688Q50.240623 238.64688 51.00625 239.42813Q51.7875 240.20938 51.7875 241.44376Q51.7875 242.6 51.115623 243.45938Q50.2875 244.49063 48.865623 244.49063Q47.69375 244.49063 46.94375 243.83438Q46.209373 243.17813 46.1 242.1ZM53.1 240.11563Q53.1 238.58438 53.4125 237.6625Q53.725 236.725 54.334373 236.225Q54.959373 235.725 55.896873 235.725Q56.584373 235.725 57.1 236.00626Q57.63125 236.2875 57.975 236.81876Q58.31875 237.33438 58.50625 238.08438Q58.69375 238.83438 58.69375 240.11563Q58.69375 241.63126 58.38125 242.55313Q58.084373 243.475 57.459373 243.99063Q56.85 244.49063 55.896873 244.49063Q54.6625 244.49063 53.94375 243.6Q53.1 242.5375 53.1 240.11563ZM54.178123 240.11563Q54.178123 242.225 54.678123 242.92813Q55.178123 243.63126 55.896873 243.63126Q56.63125 243.63126 57.115623 242.92813Q57.615623 242.225 57.615623 240.11563Q57.615623 237.99063 57.115623 237.30313Q56.63125 236.6 55.88125 236.6Q55.1625 236.6 54.725 237.20938Q54.178123 237.99063 54.178123 240.11563ZM60.1 240.11563Q60.1 238.58438 60.4125 237.6625Q60.725 236.725 61.334373 236.225Q61.959373 235.725 62.896873 235.725Q63.584373 235.725 64.1 236.00626Q64.63125 236.2875 64.975 236.81876Q65.31875 237.33438 65.50625 238.08438Q65.69375 238.83438 65.69375 240.11563Q65.69375 241.63126 65.38125 242.55313Q65.08437 243.475 64.45937 243.99063Q63.85 244.49063 62.896873 244.49063Q61.6625 244.49063 60.94375 243.6Q60.1 242.5375 60.1 240.11563ZM61.178123 240.11563Q61.178123 242.225 61.678123 242.92813Q62.178123 243.63126 62.896873 243.63126Q63.63125 243.63126 64.11562 242.92813Q64.61562 242.225 64.61562 240.11563Q64.61562 237.99063 64.11562 237.30313Q63.63125 236.6 62.88125 236.6Q62.1625 236.6 61.725 237.20938Q61.178123 237.99063 61.178123 240.11563ZM67.1 240.11563Q67.1 238.58438 67.4125 237.6625Q67.725 236.725 68.33437 236.225Q68.95937 235.725 69.89687 235.725Q70.58437 235.725 71.1 236.00626Q71.63125 236.2875 71.975 236.81876Q72.31875 237.33438 72.50625 238.08438Q72.69375 238.83438 72.69375 240.11563Q72.69375 241.63126 72.38125 242.55313Q72.08437 243.475 71.45937 243.99063Q70.85 244.49063 69.89687 244.49063Q68.6625 244.49063 67.94375 243.6Q67.1 242.5375 67.1 240.11563ZM68.17812 240.11563Q68.17812 242.225 68.67812 242.92813Q69.17812 243.63126 69.89687 243.63126Q70.63125 243.63126 71.11562 242.92813Q71.61562 242.225 71.61562 240.11563Q71.61562 237.99063 71.11562 237.30313Q70.63125 236.6 69.88125 236.6Q69.1625 236.6 68.725 237.20938Q68.17812 237.99063 68.17812 240.11563ZM74.1 240.11563Q74.1 238.58438 74.4125 237.6625Q74.725 236.725 75.33437 236.225Q75.95937 235.725 76.89687 235.725Q77.58437 235.725 78.1 236.00626Q78.63125 236.2875 78.975 236.81876Q79.31875 237.33438 79.50625 238.08438Q79.69375 238.83438 79.69375 240.11563Q79.69375 241.63126 79.38125 242.55313Q79.08437 243.475 78.45937 243.99063Q77.85 244.49063 76.89687 244.49063Q75.6625 244.49063 74.94375 243.6Q74.1 242.5375 74.1 240.11563ZM75.17812 240.11563Q75.17812 242.225 75.67812 242.92813Q76.17812 243.63126 76.89687 243.63126Q77.63125 243.63126 78.11562 242.92813Q78.61562 242.225 78.61562 240.11563Q78.61562 237.99063 78.11562 237.30313Q77.63125 236.6 76.88125 236.6Q76.1625 236.6 75.725 237.20938Q75.17812 237.99063 75.17812 240.11563ZM81.1 240.11563Q81.1 238.58438 81.4125 237.6625Q81.725 236.725 82.33437 236.225Q82.95937 235.725 83.89687 235.725Q84.58437 235.725 85.1 236.00626Q85.63125 236.2875 85.975 236.81876Q86.31875 237.33438 86.50625 238.08438Q86.69375 238.83438 86.69375 240.11563Q86.69375 241.63126 86.38125 242.55313Q86.08437 243.475 85.45937 243.99063Q84.85 244.49063 83.89687 244.49063Q82.6625 244.49063 81.94375 243.6Q81.1 242.5375 81.1 240.11563ZM82.17812 240.11563Q82.17812 242.225 82.67812 242.92813Q83.17812 243.63126 83.89687 243.63126Q84.63125 243.63126 85.11562 242.92813Q85.61562 242.225 85.61562 240.11563Q85.61562 237.99063 85.11562 237.30313Q84.63125 236.6 83.88125 236.6Q83.1625 236.6 82.725 237.20938Q82.17812 237.99063 82.17812 240.11563Z" fill-rule="nonzero"/><path fill="#000000" d="M44.646873 98.31771L44.646873 99.333336L38.959373 99.333336Q38.959373 98.958336 39.084373 98.59896Q39.303123 98.020836 39.771873 97.458336Q40.25625 96.895836 41.1625 96.16146Q42.56875 95.00521 43.053123 94.333336Q43.553123 93.66146 43.553123 93.06771Q43.553123 92.44271 43.1 92.020836Q42.646873 91.583336 41.928123 91.583336Q41.1625 91.583336 40.709373 92.03646Q40.25625 92.489586 40.240623 93.302086L39.1625 93.19271Q39.271873 91.97396 39.990623 91.34896Q40.725 90.708336 41.959373 90.708336Q43.19375 90.708336 43.9125 91.395836Q44.63125 92.083336 44.63125 93.09896Q44.63125 93.614586 44.4125 94.114586Q44.209373 94.59896 43.709373 95.16146Q43.225 95.708336 42.1 96.66146Q41.146873 97.458336 40.865623 97.75521Q40.6 98.03646 40.428123 98.31771L44.646873 98.31771ZM46.1 95.09896Q46.1 93.56771 46.4125 92.645836Q46.725 91.708336 47.334373 91.208336Q47.959373 90.708336 48.896873 90.708336Q49.584373 90.708336 50.1 90.989586Q50.63125 91.270836 50.975 91.802086Q51.31875 92.31771 51.50625 93.06771Q51.69375 93.81771 51.69375 95.09896Q51.69375 96.614586 51.38125 97.53646Q51.084373 98.458336 50.459373 98.97396Q49.85 99.47396 48.896873 99.47396Q47.6625 99.47396 46.94375 98.583336Q46.1 97.520836 46.1 95.09896ZM47.178123 95.09896Q47.178123 97.208336 47.678123 97.91146Q48.178123 98.614586 48.896873 98.614586Q49.63125 98.614586 50.115623 97.91146Q50.615623 97.208336 50.615623 95.09896Q50.615623 92.97396 50.115623 92.28646Q49.63125 91.583336 48.88125 91.583336Q48.1625 91.583336 47.725 92.19271Q47.178123 92.97396 47.178123 95.09896ZM53.1 95.09896Q53.1 93.56771 53.4125 92.645836Q53.725 91.708336 54.334373 91.208336Q54.959373 90.708336 55.896873 90.708336Q56.584373 90.708336 57.1 90.989586Q57.63125 91.270836 57.975 91.802086Q58.31875 92.31771 58.50625 93.06771Q58.69375 93.81771 58.69375 95.09896Q58.69375 96.614586 58.38125 97.53646Q58.084373 98.458336 57.459373 98.97396Q56.85 99.47396 55.896873 99.47396Q54.6625 99.47396 53.94375 98.583336Q53.1 97.520836 53.1 95.09896ZM54.178123 95.09896Q54.178123 97.208336 54.678123 97.91146Q55.178123 98.614586 55.896873 98.614586Q56.63125 98.614586 57.115623 97.91146Q57.615623 97.208336 57.615623 95.09896Q57.615623 92.97396 57.115623 92.28646Q56.63125 91.583336 55.88125 91.583336Q55.1625 91.583336 54.725 92.19271Q54.178123 92.97396 54.178123 95.09896ZM60.1 95.09896Q60.1 93.56771 60.4125 92.645836Q60.725 91.708336 61.334373 91.208336Q61.959373 90.708336 62.896873 90.708336Q63.584373 90.708336 64.1 90.989586Q64.63125 91.270836 64.975 91.802086Q65.31875 92.31771 65.50625 93.06771Q65.69375 93.81771 65.69375 95.09896Q65.69375 96.614586 65.38125 97.53646Q65.08437 98.458336 64.45937 98.97396Q63.85 99.47396 62.896873 99.47396Q61.6625 99.47396 60.94375 98.583336Q60.1 97.520836 60.1 95.09896ZM61.178123 95.09896Q61.178123 97.208336 61.678123 97.91146Q62.178123 98.614586 62.896873 98.614586Q63.63125 98.614586 64.11562 97.91146Q64.61562 97.208336 64.61562 95.09896Q64.61562 92.97396 64.11562 92.28646Q63.63125 91.583336 62.88125 91.583336Q62.1625 91.583336 61.725 92.19271Q61.178123 92.97396 61.178123 95.09896ZM67.1 95.09896Q67.1 93.56771 67.4125 92.645836Q67.725 91.708336 68.33437 91.208336Q68.95937 90.708336 69.89687 90.708336Q70.58437 90.708336 71.1 90.989586Q71.63125 91.270836 71.975 91.802086Q72.31875 92.31771 72.50625 93.06771Q72.69375 93.81771 72.69375 95.09896Q72.69375 96.614586 72.38125 97.53646Q72.08437 98.458336 71.45937 98.97396Q70.85 99.47396 69.89687 99.47396Q68.6625 99.47396 67.94375 98.583336Q67.1 97.520836 67.1 95.09896ZM68.17812 95.09896Q68.17812 97.208336 68.67812 97.91146Q69.17812 98.614586 69.89687 98.614586Q70.63125 98.614586 71.11562 97.91146Q71.61562 97.208336 71.61562 95.09896Q71.61562 92.97396 71.11562 92.28646Q70.63125 91.583336 69.88125 91.583336Q69.1625 91.583336 68.725 92.19271Q68.17812 92.97396 68.17812 95.09896ZM74.1 95.09896Q74.1 93.56771 74.4125 92.645836Q74.725 91.708336 75.33437 91.208336Q75.95937 90.708336 76.89687 90.708336Q77.58437 90.708336 78.1 90.989586Q78.63125 91.270836 78.975 91.802086Q79.31875 92.31771 79.50625 93.06771Q79.69375 93.81771 79.69375 95.09896Q79.69375 96.614586 79.38125 97.53646Q79.08437 98.458336 78.45937 98.97396Q77.85 99.47396 76.89687 99.47396Q75.6625 99.47396 74.94375 98.583336Q74.1 97.520836 74.1 95.09896ZM75.17812 95.09896Q75.17812 97.208336 75.67812 97.91146Q76.17812 98.614586 76.89687 98.614586Q77.63125 98.614586 78.11562 97.91146Q78.61562 97.208336 78.61562 95.09896Q78.61562 92.97396 78.11562 92.28646Q77.63125 91.583336 76.88125 91.583336Q76.1625 91.583336 75.725 92.19271Q75.17812 92.97396 75.17812 95.09896ZM81.1 95.09896Q81.1 93.56771 81.4125 92.645836Q81.725 91.708336 82.33437 91.208336Q82.95937 90.708336 83.89687 90.708336Q84.58437 90.708336 85.1 90.989586Q85.63125 91.270836 85.975 91.802086Q86.31875 92.31771 86.50625 93.06771Q86.69375 93.81771 86.69375 95.09896Q86.69375 96.614586 86.38125 97.53646Q86.08437 98.458336 85.45937 98.97396Q84.85 99.47396 83.89687 99.47396Q82.6625 99.47396 81.94375 98.583336Q81.1 97.520836 81.1 95.09896ZM82.17812 95.09896Q82.17812 97.208336 82.67812 97.91146Q83.17812 98.614586 83.89687 98.614586Q84.63125 98.614586 85.11562 97.91146Q85.61562 97.208336 85.61562 95.09896Q85.61562 92.97396 85.11562 92.28646Q84.63125 91.583336 83.88125 91.583336Q83.1625 91.583336 82.725 92.19271Q82.17812 92.97396 82.17812 95.09896Z" fill-rule="nonzero"/><path fill="#000000" d="M90.6 694.16565Q90.6 692.6344 90.9125 691.7125Q91.225 690.775 91.83437 690.275Q92.45937 689.775 93.39687 689.775Q94.08437 689.775 94.6 690.0563Q95.13125 690.3375 95.475 690.8688Q95.81875 691.3844 96.00625 692.1344Q96.19375 692.8844 96.19375 694.16565Q96.19375 695.6813 95.88125 696.60315Q95.58437 697.525 94.95937 698.04065Q94.35 698.54065 93.39687 698.54065Q92.1625 698.54065 91.44375 697.65Q90.6 696.5875 90.6 694.16565ZM91.67812 694.16565Q91.67812 696.275 92.17812 696.97815Q92.67812 697.6813 93.39687 697.6813Q94.13125 697.6813 94.61562 696.97815Q95.11562 696.275 95.11562 694.16565Q95.11562 692.04065 94.61562 691.35315Q94.13125 690.65 93.38125 690.65Q92.6625 690.65 92.225 691.2594Q91.67812 692.04065 91.67812 694.16565Z" fill-rule="nonzero"/><path fill="#000000" d="M243.0 696.1344L244.0625 695.9938Q244.23438 696.8844 244.67188 697.29065Q245.10938 697.6813 245.73438 697.6813Q246.48438 697.6813 247.0 697.16565Q247.51562 696.65 247.51562 695.8844Q247.51562 695.16565 247.03125 694.6969Q246.5625 694.2125 245.82812 694.2125Q245.53125 694.2125 245.07812 694.3375L245.20312 693.4Q245.3125 693.41565 245.375 693.41565Q246.04688 693.41565 246.57812 693.0719Q247.125 692.7125 247.125 691.97815Q247.125 691.4 246.73438 691.025Q246.34375 690.6344 245.71875 690.6344Q245.10938 690.6344 244.6875 691.025Q244.28125 691.41565 244.17188 692.1813L243.10938 691.9938Q243.29688 690.9469 243.98438 690.3688Q244.67188 689.775 245.6875 689.775Q246.39062 689.775 246.98438 690.0875Q247.57812 690.3844 247.89062 690.9Q248.20312 691.41565 248.20312 692.0094Q248.20312 692.5563 247.90625 693.025Q247.60938 693.47815 247.03125 693.7438Q247.78125 693.91565 248.20312 694.47815Q248.625 695.025 248.625 695.8688Q248.625 696.9938 247.79688 697.775Q246.98438 698.5563 245.73438 698.5563Q244.60938 698.5563 243.85938 697.8844Q243.10938 697.1969 243.0 696.1344ZM255.46875 691.91565L254.42188 691.9938Q254.28125 691.3688 254.03125 691.0875Q253.59375 690.6344 252.96875 690.6344Q252.46875 690.6344 252.07812 690.91565Q251.59375 691.29065 251.29688 691.9938Q251.01562 692.6813 251.0 693.9625Q251.375 693.3844 251.92188 693.10315Q252.48438 692.8219 253.09375 692.8219Q254.14062 692.8219 254.875 693.60315Q255.625 694.3844 255.625 695.60315Q255.625 696.41565 255.26562 697.1188Q254.92188 697.8063 254.3125 698.1813Q253.70312 698.54065 252.9375 698.54065Q251.60938 698.54065 250.78125 697.5719Q249.95312 696.60315 249.95312 694.3844Q249.95312 691.8844 250.875 690.7594Q251.67188 689.775 253.03125 689.775Q254.04688 689.775 254.6875 690.35315Q255.34375 690.91565 255.46875 691.91565ZM251.17188 695.6188Q251.17188 696.16565 251.39062 696.66565Q251.625 697.15 252.03125 697.41565Q252.45312 697.6813 252.92188 697.6813Q253.57812 697.6813 254.0625 697.15Q254.54688 696.60315 254.54688 695.6813Q254.54688 694.79065 254.0625 694.275Q253.59375 693.7594 252.875 693.7594Q252.15625 693.7594 251.65625 694.275Q251.17188 694.79065 251.17188 695.6188ZM257.0 696.15L258.10938 696.0563Q258.23438 696.8688 258.67188 697.275Q259.125 697.6813 259.76562 697.6813Q260.51562 697.6813 261.04688 697.10315Q261.57812 696.525 261.57812 695.5875Q261.57812 694.6813 261.0625 694.16565Q260.5625 693.6344 259.73438 693.6344Q259.23438 693.6344 258.8125 693.8688Q258.40625 694.10315 258.17188 694.4625L257.1875 694.3375L258.01562 689.9313L262.29688 689.9313L262.29688 690.9313L258.85938 690.9313L258.40625 693.2438Q259.17188 692.6969 260.01562 692.6969Q261.14062 692.6969 261.90625 693.47815Q262.6875 694.2594 262.6875 695.4938Q262.6875 696.65 262.01562 697.5094Q261.1875 698.54065 259.76562 698.54065Q258.59375 698.54065 257.84375 697.8844Q257.10938 697.22815 257.0 696.15Z" fill-rule="nonzero"/><path fill="#000000" d="M402.4625 690.9313L402.4625 689.91565L408.025 689.91565L408.025 690.7438Q407.2125 691.6188 406.4 693.0719Q405.60312 694.5094 405.16562 696.04065Q404.8375 697.1188 404.75937 698.4L403.66562 698.4Q403.68124 697.3844 404.05624 695.9469Q404.44687 694.5094 405.15 693.1813Q405.86874 691.85315 406.68124 690.9313L402.4625 690.9313ZM409.4 696.1344L410.4625 695.9938Q410.63437 696.8844 411.07187 697.29065Q411.50937 697.6813 412.13437 697.6813Q412.88437 697.6813 413.4 697.16565Q413.91562 696.65 413.91562 695.8844Q413.91562 695.16565 413.43124 694.6969Q412.9625 694.2125 412.22812 694.2125Q411.93124 694.2125 411.47812 694.3375L411.60312 693.4Q411.7125 693.41565 411.775 693.41565Q412.44687 693.41565 412.97812 693.0719Q413.525 692.7125 413.525 691.97815Q413.525 691.4 413.13437 691.025Q412.74374 690.6344 412.11874 690.6344Q411.50937 690.6344 411.0875 691.025Q410.68124 691.41565 410.57187 692.1813L409.50937 691.9938Q409.69687 690.9469 410.38437 690.3688Q411.07187 689.775 412.0875 689.775Q412.79062 689.775 413.38437 690.0875Q413.97812 690.3844 414.29062 690.9Q414.60312 691.41565 414.60312 692.0094Q414.60312 692.5563 414.30624 693.025Q414.00937 693.47815 413.43124 693.7438Q414.18124 693.91565 414.60312 694.47815Q415.025 695.025 415.025 695.8688Q415.025 696.9938 414.19687 697.775Q413.38437 698.5563 412.13437 698.5563Q411.00937 698.5563 410.25937 697.8844Q409.50937 697.1969 409.4 696.1344ZM416.4 694.16565Q416.4 692.6344 416.7125 691.7125Q417.025 690.775 417.63437 690.275Q418.25937 689.775 419.19687 689.775Q419.88437 689.775 420.4 690.0563Q420.93124 690.3375 421.275 690.8688Q421.61874 691.3844 421.80624 692.1344Q421.99374 692.8844 421.99374 694.16565Q421.99374 695.6813 421.68124 696.60315Q421.38437 697.525 420.75937 698.04065Q420.15 698.54065 419.19687 698.54065Q417.9625 698.54065 417.24374 697.65Q416.4 696.5875 416.4 694.16565ZM417.47812 694.16565Q417.47812 696.275 417.97812 696.97815Q418.47812 697.6813 419.19687 697.6813Q419.93124 697.6813 420.41562 696.97815Q420.91562 696.275 420.91562 694.16565Q420.91562 692.04065 420.41562 691.35315Q419.93124 690.65 419.18124 690.65Q418.4625 690.65 418.025 691.2594Q417.47812 692.04065 417.47812 694.16565Z" fill-rule="nonzero"/><path fill="#000000" d="M562.26874 698.4L561.22186 698.4L561.22186 691.6813Q560.83124 692.04065 560.20624 692.41565Q559.59686 692.775 559.1125 692.9469L559.1125 691.9313Q559.9875 691.5094 560.64374 690.9313Q561.3156 690.3375 561.59686 689.775L562.26874 689.775L562.26874 698.4ZM565.3 694.16565Q565.3 692.6344 565.6125 691.7125Q565.925 690.775 566.53436 690.275Q567.15936 689.775 568.09686 689.775Q568.78436 689.775 569.3 690.0563Q569.83124 690.3375 570.175 690.8688Q570.51874 691.3844 570.70624 692.1344Q570.89374 692.8844 570.89374 694.16565Q570.89374 695.6813 570.58124 696.60315Q570.28436 697.525 569.65936 698.04065Q569.05 698.54065 568.09686 698.54065Q566.8625 698.54065 566.14374 697.65Q565.3 696.5875 565.3 694.16565ZM566.3781 694.16565Q566.3781 696.275 566.8781 696.97815Q567.3781 697.6813 568.09686 697.6813Q568.83124 697.6813 569.3156 696.97815Q569.8156 696.275 569.8156 694.16565Q569.8156 692.04065 569.3156 691.35315Q568.83124 690.65 568.08124 690.65Q567.3625 690.65 566.925 691.2594Q566.3781 692.04065 566.3781 694.16565ZM572.45624 696.41565L573.47186 696.3219Q573.59686 697.04065 573.95624 697.3688Q574.33124 697.6813 574.89374 697.6813Q575.3781 697.6813 575.7375 697.4625Q576.1125 697.22815 576.34686 696.8688Q576.58124 696.4938 576.7375 695.8688Q576.89374 695.22815 576.89374 694.5719Q576.89374 694.4938 576.89374 694.35315Q576.58124 694.85315 576.03436 695.1813Q575.4875 695.4938 574.84686 695.4938Q573.76874 695.4938 573.03436 694.72815Q572.3 693.9469 572.3 692.6813Q572.3 691.3688 573.0656 690.5719Q573.84686 689.775 575.0031 689.775Q575.83124 689.775 576.51874 690.22815Q577.22186 690.6813 577.58124 691.525Q577.9406 692.35315 577.9406 693.9313Q577.9406 695.5719 577.58124 696.5563Q577.2375 697.525 576.51874 698.04065Q575.8156 698.54065 574.8781 698.54065Q573.8625 698.54065 573.22186 697.9938Q572.58124 697.4313 572.45624 696.41565ZM576.76874 692.6188Q576.76874 691.7125 576.28436 691.1813Q575.8156 690.65 575.1281 690.65Q574.425 690.65 573.89374 691.22815Q573.3781 691.79065 573.3781 692.7125Q573.3781 693.525 573.8781 694.04065Q574.3781 694.5563 575.09686 694.5563Q575.83124 694.5563 576.3 694.04065Q576.76874 693.525 576.76874 692.6188ZM579.3 696.15L580.40936 696.0563Q580.53436 696.8688 580.97186 697.275Q581.425 697.6813 582.0656 697.6813Q582.8156 697.6813 583.34686 697.10315Q583.8781 696.525 583.8781 695.5875Q583.8781 694.6813 583.3625 694.16565Q582.8625 693.6344 582.03436 693.6344Q581.53436 693.6344 581.1125 693.8688Q580.70624 694.10315 580.47186 694.4625L579.4875 694.3375L580.3156 689.9313L584.59686 689.9313L584.59686 690.9313L581.15936 690.9313L580.70624 693.2438Q581.47186 692.6969 582.3156 692.6969Q583.4406 692.6969 584.20624 693.47815Q584.9875 694.2594 584.9875 695.4938Q584.9875 696.65 584.3156 697.5094Q583.4875 698.54065 582.0656 698.54065Q580.89374 698.54065 580.14374 697.8844Q579.40936 697.22815 579.3 696.15Z" fill-rule="nonzero"/><path fill="#000000" d="M721.66876 698.4L720.6219 698.4L720.6219 691.6813Q720.23126 692.04065 719.60626 692.41565Q718.9969 692.775 718.5125 692.9469L718.5125 691.9313Q719.3875 691.5094 720.04376 690.9313Q720.71564 690.3375 720.9969 689.775L721.66876 689.775L721.66876 698.4ZM728.075 698.4L728.075 696.3375L724.35626 696.3375L724.35626 695.3688L728.27814 689.8063L729.1375 689.8063L729.1375 695.3688L730.29376 695.3688L730.29376 696.3375L729.1375 696.3375L729.1375 698.4L728.075 698.4ZM728.075 695.3688L728.075 691.5094L725.3875 695.3688L728.075 695.3688ZM737.16876 691.91565L736.1219 691.9938Q735.98126 691.3688 735.73126 691.0875Q735.29376 690.6344 734.66876 690.6344Q734.16876 690.6344 733.77814 690.91565Q733.29376 691.29065 732.9969 691.9938Q732.71564 692.6813 732.7 693.9625Q733.075 693.3844 733.6219 693.10315Q734.1844 692.8219 734.79376 692.8219Q735.84064 692.8219 736.575 693.60315Q737.325 694.3844 737.325 695.60315Q737.325 696.41565 736.96564 697.1188Q736.6219 697.8063 736.0125 698.1813Q735.40314 698.54065 734.6375 698.54065Q733.3094 698.54065 732.48126 697.5719Q731.65314 696.60315 731.65314 694.3844Q731.65314 691.8844 732.575 690.7594Q733.3719 689.775 734.73126 689.775Q735.7469 689.775 736.3875 690.35315Q737.04376 690.91565 737.16876 691.91565ZM732.8719 695.6188Q732.8719 696.16565 733.09064 696.66565Q733.325 697.15 733.73126 697.41565Q734.15314 697.6813 734.6219 697.6813Q735.27814 697.6813 735.7625 697.15Q736.2469 696.60315 736.2469 695.6813Q736.2469 694.79065 735.7625 694.275Q735.29376 693.7594 734.575 693.7594Q733.85626 693.7594 733.35626 694.275Q732.8719 694.79065 732.8719 695.6188ZM738.7 694.16565Q738.7 692.6344 739.0125 691.7125Q739.325 690.775 739.9344 690.275Q740.5594 689.775 741.4969 689.775Q742.1844 689.775 742.7 690.0563Q743.23126 690.3375 743.575 690.8688Q743.91876 691.3844 744.10626 692.1344Q744.29376 692.8844 744.29376 694.16565Q744.29376 695.6813 743.98126 696.60315Q743.6844 697.525 743.0594 698.04065Q742.45 698.54065 741.4969 698.54065Q740.2625 698.54065 739.54376 697.65Q738.7 696.5875 738.7 694.16565ZM739.77814 694.16565Q739.77814 696.275 740.27814 696.97815Q740.77814 697.6813 741.4969 697.6813Q742.23126 697.6813 742.71564 696.97815Q743.21564 696.275 743.21564 694.16565Q743.21564 692.04065 742.71564 691.35315Q742.23126 690.65 741.48126 690.65Q740.7625 690.65 740.325 691.2594Q739.77814 692.04065 739.77814 694.16565Z" fill-rule="nonzero"/><path fill="#000000" d="M881.0687 698.4L880.02185 698.4L880.02185 691.6813Q879.6312 692.04065 879.0062 692.41565Q878.39685 692.775 877.9125 692.9469L877.9125 691.9313Q878.7875 691.5094 879.4437 690.9313Q880.1156 690.3375 880.39685 689.775L881.0687 689.775L881.0687 698.4ZM885.725 693.7438Q885.0687 693.4938 884.7406 693.0563Q884.4281 692.60315 884.4281 691.9938Q884.4281 691.0563 885.1 690.41565Q885.7875 689.775 886.89685 689.775Q888.02185 689.775 888.70935 690.4313Q889.39685 691.0875 889.39685 692.025Q889.39685 692.6188 889.08435 693.0563Q888.77185 693.4938 888.1312 693.7438Q888.9281 693.9938 889.33435 694.5719Q889.7406 695.15 889.7406 695.9469Q889.7406 697.04065 888.95935 697.79065Q888.1937 698.54065 886.9125 698.54065Q885.64685 698.54065 884.8656 697.79065Q884.08435 697.04065 884.08435 695.91565Q884.08435 695.0719 884.5062 694.5094Q884.9437 693.9469 885.725 693.7438ZM885.5062 691.9469Q885.5062 692.5563 885.89685 692.9469Q886.3031 693.3375 886.9281 693.3375Q887.5375 693.3375 887.9281 692.9625Q888.3187 692.5719 888.3187 692.0094Q888.3187 691.4313 887.9125 691.04065Q887.5062 690.6344 886.9125 690.6344Q886.3031 690.6344 885.89685 691.025Q885.5062 691.41565 885.5062 691.9469ZM885.1781 695.91565Q885.1781 696.3688 885.3812 696.79065Q885.6 697.2125 886.02185 697.4469Q886.4437 697.6813 886.9281 697.6813Q887.6781 697.6813 888.1625 697.1969Q888.6625 696.7125 888.6625 695.9625Q888.6625 695.1969 888.1625 694.6969Q887.6625 694.1969 886.89685 694.1969Q886.14685 694.1969 885.6625 694.6969Q885.1781 695.1813 885.1781 695.91565ZM896.64685 697.3844L896.64685 698.4L890.95935 698.4Q890.95935 698.025 891.08435 697.66565Q891.3031 697.0875 891.77185 696.525Q892.2562 695.9625 893.1625 695.22815Q894.5687 694.0719 895.0531 693.4Q895.5531 692.72815 895.5531 692.1344Q895.5531 691.5094 895.1 691.0875Q894.64685 690.65 893.9281 690.65Q893.1625 690.65 892.70935 691.10315Q892.2562 691.5563 892.2406 692.3688L891.1625 692.2594Q891.27185 691.04065 891.9906 690.41565Q892.725 689.775 893.95935 689.775Q895.1937 689.775 895.9125 690.4625Q896.6312 691.15 896.6312 692.16565Q896.6312 692.6813 896.4125 693.1813Q896.20935 693.66565 895.70935 694.22815Q895.225 694.775 894.1 695.72815Q893.14685 696.525 892.8656 696.8219Q892.6 697.10315 892.4281 697.3844L896.64685 697.3844ZM898.1 696.15L899.20935 696.0563Q899.33435 696.8688 899.77185 697.275Q900.225 697.6813 900.8656 697.6813Q901.6156 697.6813 902.14685 697.10315Q902.6781 696.525 902.6781 695.5875Q902.6781 694.6813 902.1625 694.16565Q901.6625 693.6344 900.83435 693.6344Q900.33435 693.6344 899.9125 693.8688Q899.5062 694.10315 899.27185 694.4625L898.2875 694.3375L899.1156 689.9313L903.39685 689.9313L903.39685 690.9313L899.95935 690.9313L899.5062 693.2438Q900.27185 692.6969 901.1156 692.6969Q902.2406 692.6969 903.0062 693.47815Q903.7875 694.2594 903.7875 695.4938Q903.7875 696.65 903.1156 697.5094Q902.2875 698.54065 900.8656 698.54065Q899.6937 698.54065 898.9437 697.8844Q898.20935 697.22815 898.1 696.15Z" fill-rule="nonzero"/><path fill="#000000" d="M1042.0469 697.3844L1042.0469 698.4L1036.3594 698.4Q1036.3594 698.025 1036.4844 697.66565Q1036.7031 697.0875 1037.1719 696.525Q1037.6562 695.9625 1038.5625 695.22815Q1039.9688 694.0719 1040.4531 693.4Q1040.9531 692.72815 1040.9531 692.1344Q1040.9531 691.5094 1040.5 691.0875Q1040.0469 690.65 1039.3281 690.65Q1038.5625 690.65 1038.1094 691.10315Q1037.6562 691.5563 1037.6406 692.3688L1036.5625 692.2594Q1036.6719 691.04065 1037.3906 690.41565Q1038.125 689.775 1039.3594 689.775Q1040.5938 689.775 1041.3125 690.4625Q1042.0312 691.15 1042.0312 692.16565Q1042.0312 692.6813 1041.8125 693.1813Q1041.6094 693.66565 1041.1094 694.22815Q1040.625 694.775 1039.5 695.72815Q1038.5469 696.525 1038.2656 696.8219Q1038.0 697.10315 1037.8281 697.3844L1042.0469 697.3844ZM1047.4688 698.4L1046.4219 698.4L1046.4219 691.6813Q1046.0312 692.04065 1045.4062 692.41565Q1044.7969 692.775 1044.3125 692.9469L1044.3125 691.9313Q1045.1875 691.5094 1045.8438 690.9313Q1046.5156 690.3375 1046.7969 689.775L1047.4688 689.775L1047.4688 698.4ZM1050.6562 696.41565L1051.6719 696.3219Q1051.7969 697.04065 1052.1562 697.3688Q1052.5312 697.6813 1053.0938 697.6813Q1053.5781 697.6813 1053.9375 697.4625Q1054.3125 697.22815 1054.5469 696.8688Q1054.7812 696.4938 1054.9375 695.8688Q1055.0938 695.22815 1055.0938 694.5719Q1055.0938 694.4938 1055.0938 694.35315Q1054.7812 694.85315 1054.2344 695.1813Q1053.6875 695.4938 1053.0469 695.4938Q1051.9688 695.4938 1051.2344 694.72815Q1050.5 693.9469 1050.5 692.6813Q1050.5 691.3688 1051.2656 690.5719Q1052.0469 689.775 1053.2031 689.775Q1054.0312 689.775 1054.7188 690.22815Q1055.4219 690.6813 1055.7812 691.525Q1056.1406 692.35315 1056.1406 693.9313Q1056.1406 695.5719 1055.7812 696.5563Q1055.4375 697.525 1054.7188 698.04065Q1054.0156 698.54065 1053.0781 698.54065Q1052.0625 698.54065 1051.4219 697.9938Q1050.7812 697.4313 1050.6562 696.41565ZM1054.9688 692.6188Q1054.9688 691.7125 1054.4844 691.1813Q1054.0156 690.65 1053.3281 690.65Q1052.625 690.65 1052.0938 691.22815Q1051.5781 691.79065 1051.5781 692.7125Q1051.5781 693.525 1052.0781 694.04065Q1052.5781 694.5563 1053.2969 694.5563Q1054.0312 694.5563 1054.5 694.04065Q1054.9688 693.525 1054.9688 692.6188ZM1057.5 694.16565Q1057.5 692.6344 1057.8125 691.7125Q1058.125 690.775 1058.7344 690.275Q1059.3594 689.775 1060.2969 689.775Q1060.9844 689.775 1061.5 690.0563Q1062.0312 690.3375 1062.375 690.8688Q1062.7188 691.3844 1062.9062 692.1344Q1063.0938 692.8844 1063.0938 694.16565Q1063.0938 695.6813 1062.7812 696.60315Q1062.4844 697.525 1061.8594 698.04065Q1061.25 698.54065 1060.2969 698.54065Q1059.0625 698.54065 1058.3438 697.65Q1057.5 696.5875 1057.5 694.16565ZM1058.5781 694.16565Q1058.5781 696.275 1059.0781 696.97815Q1059.5781 697.6813 1060.2969 697.6813Q1061.0312 697.6813 1061.5156 696.97815Q1062.0156 696.275 1062.0156 694.16565Q1062.0156 692.04065 1061.5156 691.35315Q1061.0312 690.65 1060.2812 690.65Q1059.5625 690.65 1059.125 691.2594Q1058.5781 692.04065 1058.5781 694.16565Z" fill-rule="nonzero"/><path fill="#000000" d="M1201.4469 697.3844L1201.4469 698.4L1195.7594 698.4Q1195.7594 698.025 1195.8844 697.66565Q1196.1031 697.0875 1196.5719 696.525Q1197.0563 695.9625 1197.9625 695.22815Q1199.3688 694.0719 1199.8531 693.4Q1200.3531 692.72815 1200.3531 692.1344Q1200.3531 691.5094 1199.9 691.0875Q1199.4469 690.65 1198.7281 690.65Q1197.9625 690.65 1197.5094 691.10315Q1197.0563 691.5563 1197.0406 692.3688L1195.9625 692.2594Q1196.0719 691.04065 1196.7906 690.41565Q1197.525 689.775 1198.7594 689.775Q1199.9938 689.775 1200.7125 690.4625Q1201.4313 691.15 1201.4313 692.16565Q1201.4313 692.6813 1201.2125 693.1813Q1201.0094 693.66565 1200.5094 694.22815Q1200.025 694.775 1198.9 695.72815Q1197.9469 696.525 1197.6656 696.8219Q1197.4 697.10315 1197.2281 697.3844L1201.4469 697.3844ZM1202.9 696.15L1204.0094 696.0563Q1204.1344 696.8688 1204.5719 697.275Q1205.025 697.6813 1205.6656 697.6813Q1206.4156 697.6813 1206.9469 697.10315Q1207.4781 696.525 1207.4781 695.5875Q1207.4781 694.6813 1206.9625 694.16565Q1206.4625 693.6344 1205.6344 693.6344Q1205.1344 693.6344 1204.7125 693.8688Q1204.3063 694.10315 1204.0719 694.4625L1203.0875 694.3375L1203.9156 689.9313L1208.1969 689.9313L1208.1969 690.9313L1204.7594 690.9313L1204.3063 693.2438Q1205.0719 692.6969 1205.9156 692.6969Q1207.0406 692.6969 1207.8063 693.47815Q1208.5875 694.2594 1208.5875 695.4938Q1208.5875 696.65 1207.9156 697.5094Q1207.0875 698.54065 1205.6656 698.54065Q1204.4938 698.54065 1203.7438 697.8844Q1203.0094 697.22815 1202.9 696.15ZM1209.9 696.15L1211.0094 696.0563Q1211.1344 696.8688 1211.5719 697.275Q1212.025 697.6813 1212.6656 697.6813Q1213.4156 697.6813 1213.9469 697.10315Q1214.4781 696.525 1214.4781 695.5875Q1214.4781 694.6813 1213.9625 694.16565Q1213.4625 693.6344 1212.6344 693.6344Q1212.1344 693.6344 1211.7125 693.8688Q1211.3063 694.10315 1211.0719 694.4625L1210.0875 694.3375L1210.9156 689.9313L1215.1969 689.9313L1215.1969 690.9313L1211.7594 690.9313L1211.3063 693.2438Q1212.0719 692.6969 1212.9156 692.6969Q1214.0406 692.6969 1214.8063 693.47815Q1215.5875 694.2594 1215.5875 695.4938Q1215.5875 696.65 1214.9156 697.5094Q1214.0875 698.54065 1212.6656 698.54065Q1211.4938 698.54065 1210.7438 697.8844Q1210.0094 697.22815 1209.9 696.15ZM1216.9 696.15L1218.0094 696.0563Q1218.1344 696.8688 1218.5719 697.275Q1219.025 697.6813 1219.6656 697.6813Q1220.4156 697.6813 1220.9469 697.10315Q1221.4781 696.525 1221.4781 695.5875Q1221.4781 694.6813 1220.9625 694.16565Q1220.4625 693.6344 1219.6344 693.6344Q1219.1344 693.6344 1218.7125 693.8688Q1218.3063 694.10315 1218.0719 694.4625L1217.0875 694.3375L1217.9156 689.9313L1222.1969 689.9313L1222.1969 690.9313L1218.7594 690.9313L1218.3063 693.2438Q1219.0719 692.6969 1219.9156 692.6969Q1221.0406 692.6969 1221.8063 693.47815Q1222.5875 694.2594 1222.5875 695.4938Q1222.5875 696.65 1221.9156 697.5094Q1221.0875 698.54065 1219.6656 698.54065Q1218.4938 698.54065 1217.7438 697.8844Q1217.0094 697.22815 1216.9 696.15Z" fill-rule="nonzero"/><path fill="#757575" d="M40.178123 57.6L40.178123 43.2875L50.5375 43.2875L50.5375 44.975L42.084373 44.975L42.084373 49.35L49.990623 49.35L49.990623 51.0375L42.084373 51.0375L42.084373 55.9125L50.865623 55.9125L50.865623 57.6L40.178123 57.6ZM52.9125 57.6L52.9125 47.225L54.490623 47.225L54.490623 48.678123Q54.975 47.928123 55.7875 47.459373Q56.6 46.990623 57.63125 46.990623Q58.7875 46.990623 59.521873 47.475Q60.25625 47.94375 60.56875 48.803123Q61.803123 46.990623 63.771873 46.990623Q65.31875 46.990623 66.14687 47.85Q66.975 48.709373 66.975 50.475L66.975 57.6L65.225 57.6L65.225 51.06875Q65.225 50.00625 65.05312 49.553123Q64.88125 49.084373 64.42812 48.803123Q63.990623 48.521873 63.38125 48.521873Q62.2875 48.521873 61.553123 49.25625Q60.834373 49.975 60.834373 51.56875L60.834373 57.6L59.084373 57.6L59.084373 50.865623Q59.084373 49.69375 58.646873 49.115623Q58.225 48.521873 57.240623 48.521873Q56.50625 48.521873 55.865623 48.9125Q55.240623 49.303123 54.959373 50.053123Q54.678123 50.803123 54.678123 52.225L54.678123 57.6L52.9125 57.6ZM68.92812 45.303123L68.92812 43.2875L70.69375 43.2875L70.69375 45.303123L68.92812 45.303123ZM68.92812 57.6L68.92812 47.225L70.69375 47.225L70.69375 57.6L68.92812 57.6ZM72.20937 54.50625L73.95937 54.225Q74.1 55.271873 74.77187 55.834373Q75.44375 56.38125 76.64687 56.38125Q77.85 56.38125 78.42812 55.896873Q79.02187 55.396873 79.02187 54.740623Q79.02187 54.146873 78.50625 53.803123Q78.14687 53.56875 76.70937 53.209373Q74.77187 52.709373 74.02187 52.365623Q73.2875 52.00625 72.89687 51.38125Q72.50625 50.740623 72.50625 49.975Q72.50625 49.2875 72.81875 48.69375Q73.14687 48.1 73.69375 47.709373Q74.1 47.4125 74.80312 47.209373Q75.52187 46.990623 76.33437 46.990623Q77.55312 46.990623 78.475 47.35Q79.39687 47.69375 79.83437 48.303123Q80.27187 48.896873 80.44375 49.896873L78.725 50.13125Q78.6 49.334373 78.0375 48.896873Q77.475 48.44375 76.45937 48.44375Q75.24062 48.44375 74.725 48.85Q74.20937 49.240623 74.20937 49.771873Q74.20937 50.115623 74.42812 50.396873Q74.63125 50.678123 75.1 50.865623Q75.36562 50.959373 76.64687 51.303123Q78.52187 51.803123 79.25625 52.13125Q79.99062 52.44375 80.4125 53.053123Q80.83437 53.646873 80.83437 54.553123Q80.83437 55.428123 80.31875 56.209373Q79.80312 56.990623 78.83437 57.4125Q77.86562 57.834373 76.64687 57.834373Q74.63125 57.834373 73.56875 56.990623Q72.50625 56.146873 72.20937 54.50625ZM82.20937 54.50625L83.95937 54.225Q84.1 55.271873 84.77187 55.834373Q85.44375 56.38125 86.64687 56.38125Q87.85 56.38125 88.42812 55.896873Q89.02187 55.396873 89.02187 54.740623Q89.02187 54.146873 88.50625 53.803123Q88.14687 53.56875 86.70937 53.209373Q84.77187 52.709373 84.02187 52.365623Q83.2875 52.00625 82.89687 51.38125Q82.50625 50.740623 82.50625 49.975Q82.50625 49.2875 82.81875 48.69375Q83.14687 48.1 83.69375 47.709373Q84.1 47.4125 84.80312 47.209373Q85.52187 46.990623 86.33437 46.990623Q87.55312 46.990623 88.475 47.35Q89.39687 47.69375 89.83437 48.303123Q90.27187 48.896873 90.44375 49.896873L88.725 50.13125Q88.6 49.334373 88.0375 48.896873Q87.475 48.44375 86.45937 48.44375Q85.24062 48.44375 84.725 48.85Q84.20937 49.240623 84.20937 49.771873Q84.20937 50.115623 84.42812 50.396873Q84.63125 50.678123 85.1 50.865623Q85.36562 50.959373 86.64687 51.303123Q88.52187 51.803123 89.25625 52.13125Q89.99062 52.44375 90.4125 53.053123Q90.83437 53.646873 90.83437 54.553123Q90.83437 55.428123 90.31875 56.209373Q89.80312 56.990623 88.83437 57.4125Q87.86562 57.834373 86.64687 57.834373Q84.63125 57.834373 83.56875 56.990623Q82.50625 56.146873 82.20937 54.50625ZM92.92812 45.303123L92.92812 43.2875L94.69375 43.2875L94.69375 45.303123L92.92812 45.303123ZM92.92812 57.6L92.92812 47.225L94.69375 47.225L94.69375 57.6L92.92812 57.6ZM96.27187 52.4125Q96.27187 49.5375 97.86562 48.146873Q99.20937 46.990623 101.13125 46.990623Q103.27187 46.990623 104.61562 48.396873Q105.975 49.803123 105.975 52.271873Q105.975 54.271873 105.38125 55.428123Q104.7875 56.56875 103.63125 57.209373Q102.49062 57.834373 101.13125 57.834373Q98.94375 57.834373 97.6 56.44375Q96.27187 55.0375 96.27187 52.4125ZM98.06875 52.4125Q98.06875 54.4125 98.92812 55.396873Q99.80312 56.38125 101.13125 56.38125Q102.44375 56.38125 103.30312 55.396873Q104.17812 54.396873 104.17812 52.35Q104.17812 50.428123 103.30312 49.44375Q102.42812 48.44375 101.13125 48.44375Q99.80312 48.44375 98.92812 49.44375Q98.06875 50.428123 98.06875 52.4125ZM107.9125 57.6L107.9125 47.225L109.50625 47.225L109.50625 48.709373Q110.64687 46.990623 112.80312 46.990623Q113.74062 46.990623 114.52187 47.334373Q115.31875 47.6625 115.70937 48.209373Q116.1 48.75625 116.25625 49.50625Q116.35 50.00625 116.35 51.225L116.35 57.6L114.58437 57.6L114.58437 51.2875Q114.58437 50.209373 114.38125 49.678123Q114.17812 49.146873 113.64687 48.834373Q113.13125 48.521873 112.42812 48.521873Q111.30312 48.521873 110.49062 49.240623Q109.67812 49.94375 109.67812 51.928123L109.67812 57.6L107.9125 57.6ZM123.89687 57.6L123.89687 47.225L125.475 47.225L125.475 48.803123Q126.08437 47.69375 126.6 47.35Q127.11562 46.990623 127.725 46.990623Q128.61563 46.990623 129.5375 47.553123L128.92813 49.19375Q128.2875 48.803123 127.64687 48.803123Q127.06875 48.803123 126.6 49.1625Q126.14687 49.50625 125.94375 50.115623Q125.6625 51.053123 125.6625 52.1625L125.6625 57.6L123.89687 57.6ZM137.69376 56.31875Q136.70938 57.146873 135.80313 57.490623Q134.89688 57.834373 133.86563 57.834373Q132.1625 57.834373 131.24063 57.00625Q130.31876 56.1625 130.31876 54.865623Q130.31876 54.1 130.6625 53.475Q131.02188 52.85 131.58438 52.475Q132.14688 52.084373 132.85 51.88125Q133.36563 51.75625 134.4125 51.615623Q136.5375 51.365623 137.5375 51.021873Q137.55313 50.6625 137.55313 50.553123Q137.55313 49.490623 137.05313 49.0375Q136.38126 48.44375 135.05313 48.44375Q133.80313 48.44375 133.20938 48.88125Q132.63126 49.31875 132.35 50.428123L130.63126 50.19375Q130.86563 49.084373 131.39688 48.4125Q131.92813 47.725 132.94376 47.365623Q133.95938 46.990623 135.30313 46.990623Q136.63126 46.990623 137.45938 47.303123Q138.2875 47.615623 138.67813 48.1Q139.06876 48.56875 139.225 49.2875Q139.31876 49.740623 139.31876 50.9125L139.31876 53.25625Q139.31876 55.709373 139.42813 56.365623Q139.5375 57.00625 139.88126 57.6L138.0375 57.6Q137.77188 57.053123 137.69376 56.31875ZM137.5375 52.396873Q136.58438 52.7875 134.6625 53.053123Q133.58438 53.209373 133.13126 53.4125Q132.69376 53.6 132.44376 53.975Q132.19376 54.35 132.19376 54.81875Q132.19376 55.521873 132.725 55.990623Q133.25626 56.459373 134.2875 56.459373Q135.30313 56.459373 136.08438 56.021873Q136.88126 55.56875 137.25626 54.803123Q137.5375 54.19375 137.5375 53.0375L137.5375 52.396873ZM145.75626 56.021873L146.00626 57.584373Q145.27188 57.740623 144.67813 57.740623Q143.725 57.740623 143.19376 57.44375Q142.67813 57.13125 142.45938 56.646873Q142.24063 56.146873 142.24063 54.56875L142.24063 48.6L140.95938 48.6L140.95938 47.225L142.24063 47.225L142.24063 44.6625L143.99063 43.6L143.99063 47.225L145.75626 47.225L145.75626 48.6L143.99063 48.6L143.99063 54.6625Q143.99063 55.4125 144.08438 55.63125Q144.17813 55.834373 144.38126 55.975Q144.6 56.1 144.99063 56.1Q145.27188 56.1 145.75626 56.021873ZM155.02188 54.25625L156.83438 54.490623Q156.4125 56.06875 155.24063 56.959373Q154.08438 57.834373 152.27188 57.834373Q150.00626 57.834373 148.6625 56.44375Q147.33438 55.0375 147.33438 52.50625Q147.33438 49.88125 148.67813 48.44375Q150.02188 46.990623 152.17813 46.990623Q154.25626 46.990623 155.56876 48.4125Q156.89688 49.81875 156.89688 52.396873Q156.89688 52.553123 156.88126 52.865623L149.14688 52.865623Q149.24063 54.56875 150.11563 55.475Q150.99063 56.38125 152.2875 56.38125Q153.25626 56.38125 153.92813 55.88125Q154.61563 55.365623 155.02188 54.25625ZM149.24063 51.4125L155.0375 51.4125Q154.92813 50.115623 154.38126 49.459373Q153.5375 48.44375 152.19376 48.44375Q150.99063 48.44375 150.1625 49.25625Q149.33438 50.053123 149.24063 51.4125ZM171.69376 56.31875Q170.70938 57.146873 169.80313 57.490623Q168.89688 57.834373 167.86563 57.834373Q166.1625 57.834373 165.24063 57.00625Q164.31876 56.1625 164.31876 54.865623Q164.31876 54.1 164.6625 53.475Q165.02188 52.85 165.58438 52.475Q166.14688 52.084373 166.85 51.88125Q167.36563 51.75625 168.4125 51.615623Q170.5375 51.365623 171.5375 51.021873Q171.55313 50.6625 171.55313 50.553123Q171.55313 49.490623 171.05313 49.0375Q170.38126 48.44375 169.05313 48.44375Q167.80313 48.44375 167.20938 48.88125Q166.63126 49.31875 166.35 50.428123L164.63126 50.19375Q164.86563 49.084373 165.39688 48.4125Q165.92813 47.725 166.94376 47.365623Q167.95938 46.990623 169.30313 46.990623Q170.63126 46.990623 171.45938 47.303123Q172.2875 47.615623 172.67813 48.1Q173.06876 48.56875 173.225 49.2875Q173.31876 49.740623 173.31876 50.9125L173.31876 53.25625Q173.31876 55.709373 173.42813 56.365623Q173.5375 57.00625 173.88126 57.6L172.0375 57.6Q171.77188 57.053123 171.69376 56.31875ZM171.5375 52.396873Q170.58438 52.7875 168.6625 53.053123Q167.58438 53.209373 167.13126 53.4125Q166.69376 53.6 166.44376 53.975Q166.19376 54.35 166.19376 54.81875Q166.19376 55.521873 166.725 55.990623Q167.25626 56.459373 168.2875 56.459373Q169.30313 56.459373 170.08438 56.021873Q170.88126 55.56875 171.25626 54.803123Q171.5375 54.19375 171.5375 53.0375L171.5375 52.396873ZM175.9125 57.6L175.9125 47.225L177.50626 47.225L177.50626 48.709373Q178.64688 46.990623 180.80313 46.990623Q181.74063 46.990623 182.52188 47.334373Q183.31876 47.6625 183.70938 48.209373Q184.1 48.75625 184.25626 49.50625Q184.35 50.00625 184.35 51.225L184.35 57.6L182.58438 57.6L182.58438 51.2875Q182.58438 50.209373 182.38126 49.678123Q182.17813 49.146873 181.64688 48.834373Q181.13126 48.521873 180.42813 48.521873Q179.30313 48.521873 178.49063 49.240623Q177.67813 49.94375 177.67813 51.928123L177.67813 57.6L175.9125 57.6ZM192.64688 57.6L192.64688 56.2875Q191.6625 57.834373 189.74063 57.834373Q188.50626 57.834373 187.45938 57.146873Q186.42813 56.459373 185.85 55.240623Q185.2875 54.021873 185.2875 52.428123Q185.2875 50.865623 185.80313 49.6Q186.31876 48.334373 187.35 47.6625Q188.39688 46.990623 189.6625 46.990623Q190.6 46.990623 191.33438 47.396873Q192.06876 47.7875 192.5375 48.4125L192.5375 43.2875L194.27188 43.2875L194.27188 57.6L192.64688 57.6ZM187.08438 52.428123Q187.08438 54.4125 187.92813 55.396873Q188.77188 56.38125 189.9125 56.38125Q191.06876 56.38125 191.86563 55.44375Q192.67813 54.50625 192.67813 52.56875Q192.67813 50.44375 191.85 49.44375Q191.0375 48.44375 189.83438 48.44375Q188.6625 48.44375 187.86563 49.4125Q187.08438 50.365623 187.08438 52.428123ZM213.36563 52.584373L215.25626 53.053123Q214.6625 55.396873 213.11563 56.63125Q211.56876 57.85 209.31876 57.85Q207.00626 57.85 205.55313 56.9125Q204.11563 55.959373 203.35 54.178123Q202.6 52.38125 202.6 50.334373Q202.6 48.1 203.44376 46.44375Q204.30313 44.771873 205.88126 43.9125Q207.45938 43.0375 209.35 43.0375Q211.50626 43.0375 212.95938 44.13125Q214.42813 45.225 215.00626 47.209373L213.14688 47.646873Q212.64688 46.084373 211.69376 45.38125Q210.75626 44.6625 209.31876 44.6625Q207.6625 44.6625 206.55313 45.459373Q205.44376 46.240623 204.99063 47.584373Q204.55313 48.9125 204.55313 50.31875Q204.55313 52.146873 205.08438 53.521873Q205.61563 54.88125 206.74063 55.553123Q207.86563 56.225 209.1625 56.225Q210.75626 56.225 211.86563 55.303123Q212.975 54.38125 213.36563 52.584373ZM216.92813 45.303123L216.92813 43.2875L218.69376 43.2875L218.69376 45.303123L216.92813 45.303123ZM216.92813 57.6L216.92813 47.225L218.69376 47.225L218.69376 57.6L216.92813 57.6ZM220.89688 57.6L220.89688 47.225L222.475 47.225L222.475 48.803123Q223.08438 47.69375 223.6 47.35Q224.11563 46.990623 224.725 46.990623Q225.61563 46.990623 226.5375 47.553123L225.92813 49.19375Q225.2875 48.803123 224.64688 48.803123Q224.06876 48.803123 223.6 49.1625Q223.14688 49.50625 222.94376 50.115623Q222.6625 51.053123 222.6625 52.1625L222.6625 57.6L220.89688 57.6ZM234.69376 53.803123L236.4125 54.021873Q236.13126 55.81875 234.95938 56.834373Q233.80313 57.834373 232.1 57.834373Q229.975 57.834373 228.67813 56.44375Q227.38126 55.053123 227.38126 52.459373Q227.38126 50.771873 227.92813 49.521873Q228.49063 48.25625 229.63126 47.63125Q230.77188 46.990623 232.11563 46.990623Q233.80313 46.990623 234.86563 47.85Q235.94376 48.709373 236.25626 50.271873L234.5375 50.5375Q234.30313 49.490623 233.67813 48.975Q233.05313 48.44375 232.17813 48.44375Q230.85 48.44375 230.02188 49.396873Q229.19376 50.35 229.19376 52.396873Q229.19376 54.490623 229.99063 55.44375Q230.7875 56.38125 232.08438 56.38125Q233.11563 56.38125 233.80313 55.75625Q234.50626 55.115623 234.69376 53.803123ZM244.70938 57.6L244.70938 56.06875Q243.50626 57.834373 241.42813 57.834373Q240.50626 57.834373 239.70938 57.490623Q238.9125 57.13125 238.52188 56.6Q238.14688 56.06875 237.99063 55.2875Q237.88126 54.771873 237.88126 53.646873L237.88126 47.225L239.63126 47.225L239.63126 52.975Q239.63126 54.35 239.74063 54.834373Q239.9125 55.521873 240.44376 55.928123Q240.99063 56.31875 241.77188 56.31875Q242.56876 56.31875 243.25626 55.9125Q243.95938 55.50625 244.24063 54.81875Q244.5375 54.115623 244.5375 52.7875L244.5375 47.225L246.2875 47.225L246.2875 57.6L244.70938 57.6ZM247.88126 57.6L247.88126 43.2875L249.63126 43.2875L249.63126 57.6L247.88126 57.6ZM258.69376 56.31875Q257.70938 57.146873 256.80313 57.490623Q255.89688 57.834373 254.86563 57.834373Q253.1625 57.834373 252.24063 57.00625Q251.31876 56.1625 251.31876 54.865623Q251.31876 54.1 251.6625 53.475Q252.02188 52.85 252.58438 52.475Q253.14688 52.084373 253.85 51.88125Q254.36563 51.75625 255.4125 51.615623Q257.5375 51.365623 258.5375 51.021873Q258.55313 50.6625 258.55313 50.553123Q258.55313 49.490623 258.05313 49.0375Q257.38126 48.44375 256.05313 48.44375Q254.80313 48.44375 254.20938 48.88125Q253.63126 49.31875 253.35 50.428123L251.63126 50.19375Q251.86563 49.084373 252.39688 48.4125Q252.92813 47.725 253.94376 47.365623Q254.95938 46.990623 256.30313 46.990623Q257.63126 46.990623 258.45938 47.303123Q259.2875 47.615623 259.67813 48.1Q260.06876 48.56875 260.225 49.2875Q260.31876 49.740623 260.31876 50.9125L260.31876 53.25625Q260.31876 55.709373 260.42813 56.365623Q260.5375 57.00625 260.88126 57.6L259.0375 57.6Q258.77188 57.053123 258.69376 56.31875ZM258.5375 52.396873Q257.58438 52.7875 255.6625 53.053123Q254.58438 53.209373 254.13126 53.4125Q253.69376 53.6 253.44376 53.975Q253.19376 54.35 253.19376 54.81875Q253.19376 55.521873 253.725 55.990623Q254.25626 56.459373 255.2875 56.459373Q256.30313 56.459373 257.08438 56.021873Q257.88126 55.56875 258.25626 54.803123Q258.5375 54.19375 258.5375 53.0375L258.5375 52.396873ZM266.75626 56.021873L267.00626 57.584373Q266.27188 57.740623 265.67813 57.740623Q264.725 57.740623 264.19376 57.44375Q263.67813 57.13125 263.45938 56.646873Q263.24063 56.146873 263.24063 54.56875L263.24063 48.6L261.95938 48.6L261.95938 47.225L263.24063 47.225L263.24063 44.6625L264.99063 43.6L264.99063 47.225L266.75626 47.225L266.75626 48.6L264.99063 48.6L264.99063 54.6625Q264.99063 55.4125 265.08438 55.63125Q265.17813 55.834373 265.38126 55.975Q265.6 56.1 265.99063 56.1Q266.27188 56.1 266.75626 56.021873ZM268.92813 45.303123L268.92813 43.2875L270.69376 43.2875L270.69376 45.303123L268.92813 45.303123ZM268.92813 57.6L268.92813 47.225L270.69376 47.225L270.69376 57.6L268.92813 57.6ZM272.9125 57.6L272.9125 47.225L274.50626 47.225L274.50626 48.709373Q275.64688 46.990623 277.80313 46.990623Q278.74063 46.990623 279.52188 47.334373Q280.31876 47.6625 280.70938 48.209373Q281.1 48.75625 281.25626 49.50625Q281.35 50.00625 281.35 51.225L281.35 57.6L279.58438 57.6L279.58438 51.2875Q279.58438 50.209373 279.38126 49.678123Q279.17813 49.146873 278.64688 48.834373Q278.13126 48.521873 277.42813 48.521873Q276.30313 48.521873 275.49063 49.240623Q274.67813 49.94375 274.67813 51.928123L274.67813 57.6L272.9125 57.6ZM282.6 58.459373L284.30313 58.709373Q284.4125 59.50625 284.89688 59.865623Q285.55313 60.35 286.69376 60.35Q287.9125 60.35 288.56876 59.865623Q289.24063 59.38125 289.475 58.50625Q289.61563 57.959373 289.6 56.240623Q288.44376 57.6 286.725 57.6Q284.58438 57.6 283.4125 56.053123Q282.24063 54.50625 282.24063 52.35Q282.24063 50.865623 282.77188 49.615623Q283.31876 48.365623 284.33438 47.678123Q285.36563 46.990623 286.74063 46.990623Q288.56876 46.990623 289.77188 48.475L289.77188 47.225L291.38126 47.225L291.38126 56.19375Q291.38126 58.615623 290.88126 59.615623Q290.39688 60.63125 289.31876 61.209373Q288.25626 61.803123 286.69376 61.803123Q284.85 61.803123 283.69376 60.975Q282.55313 60.146873 282.6 58.459373ZM284.05313 52.225Q284.05313 54.271873 284.86563 55.209373Q285.67813 56.146873 286.89688 56.146873Q288.1 56.146873 288.9125 55.209373Q289.74063 54.271873 289.74063 52.2875Q289.74063 50.38125 288.89688 49.4125Q288.05313 48.44375 286.86563 48.44375Q285.69376 48.44375 284.86563 49.396873Q284.05313 50.35 284.05313 52.225ZM299.20938 54.50625L300.95938 54.225Q301.1 55.271873 301.77188 55.834373Q302.44376 56.38125 303.64688 56.38125Q304.85 56.38125 305.42813 55.896873Q306.02188 55.396873 306.02188 54.740623Q306.02188 54.146873 305.50626 53.803123Q305.14688 53.56875 303.70938 53.209373Q301.77188 52.709373 301.02188 52.365623Q300.2875 52.00625 299.89688 51.38125Q299.50626 50.740623 299.50626 49.975Q299.50626 49.2875 299.81876 48.69375Q300.14688 48.1 300.69376 47.709373Q301.1 47.4125 301.80313 47.209373Q302.52188 46.990623 303.33438 46.990623Q304.55313 46.990623 305.475 47.35Q306.39688 47.69375 306.83438 48.303123Q307.27188 48.896873 307.44376 49.896873L305.725 50.13125Q305.6 49.334373 305.0375 48.896873Q304.475 48.44375 303.45938 48.44375Q302.24063 48.44375 301.725 48.85Q301.20938 49.240623 301.20938 49.771873Q301.20938 50.115623 301.42813 50.396873Q301.63126 50.678123 302.1 50.865623Q302.36563 50.959373 303.64688 51.303123Q305.52188 51.803123 306.25626 52.13125Q306.99063 52.44375 307.4125 53.053123Q307.83438 53.646873 307.83438 54.553123Q307.83438 55.428123 307.31876 56.209373Q306.80313 56.990623 305.83438 57.4125Q304.86563 57.834373 303.64688 57.834373Q301.63126 57.834373 300.56876 56.990623Q299.50626 56.146873 299.20938 54.50625ZM316.70938 57.6L316.70938 56.06875Q315.50626 57.834373 313.42813 57.834373Q312.50626 57.834373 311.70938 57.490623Q310.9125 57.13125 310.52188 56.6Q310.14688 56.06875 309.99063 55.2875Q309.88126 54.771873 309.88126 53.646873L309.88126 47.225L311.63126 47.225L311.63126 52.975Q311.63126 54.35 311.74063 54.834373Q311.9125 55.521873 312.44376 55.928123Q312.99063 56.31875 313.77188 56.31875Q314.56876 56.31875 315.25626 55.9125Q315.95938 55.50625 316.24063 54.81875Q316.5375 54.115623 316.5375 52.7875L316.5375 47.225L318.2875 47.225L318.2875 57.6L316.70938 57.6ZM319.9125 61.56875L319.9125 47.225L321.52188 47.225L321.52188 48.56875Q322.08438 47.7875 322.7875 47.396873Q323.50626 46.990623 324.52188 46.990623Q325.85 46.990623 326.86563 47.678123Q327.88126 48.365623 328.39688 49.615623Q328.92813 50.85 328.92813 52.334373Q328.92813 53.928123 328.35 55.209373Q327.7875 56.475 326.69376 57.1625Q325.6 57.834373 324.39688 57.834373Q323.52188 57.834373 322.81876 57.459373Q322.13126 57.084373 321.67813 56.521873L321.67813 61.56875L319.9125 61.56875ZM321.50626 52.475Q321.50626 54.475 322.31876 55.428123Q323.13126 56.38125 324.2875 56.38125Q325.45938 56.38125 326.2875 55.396873Q327.13126 54.4125 327.13126 52.31875Q327.13126 50.35 326.30313 49.365623Q325.49063 48.365623 324.36563 48.365623Q323.24063 48.365623 322.36563 49.428123Q321.50626 50.475 321.50626 52.475ZM330.9125 61.56875L330.9125 47.225L332.52188 47.225L332.52188 48.56875Q333.08438 47.7875 333.7875 47.396873Q334.50626 46.990623 335.52188 46.990623Q336.85 46.990623 337.86563 47.678123Q338.88126 48.365623 339.39688 49.615623Q339.92813 50.85 339.92813 52.334373Q339.92813 53.928123 339.35 55.209373Q338.7875 56.475 337.69376 57.1625Q336.6 57.834373 335.39688 57.834373Q334.52188 57.834373 333.81876 57.459373Q333.13126 57.084373 332.67813 56.521873L332.67813 61.56875L330.9125 61.56875ZM332.50626 52.475Q332.50626 54.475 333.31876 55.428123Q334.13126 56.38125 335.2875 56.38125Q336.45938 56.38125 337.2875 55.396873Q338.13126 54.4125 338.13126 52.31875Q338.13126 50.35 337.30313 49.365623Q336.49063 48.365623 335.36563 48.365623Q334.24063 48.365623 333.36563 49.428123Q332.50626 50.475 332.50626 52.475ZM341.88126 57.6L341.88126 43.2875L343.63126 43.2875L343.63126 57.6L341.88126 57.6ZM345.83438 61.6L345.64688 59.94375Q346.225 60.1 346.64688 60.1Q347.24063 60.1 347.58438 59.896873Q347.94376 59.709373 348.1625 59.365623Q348.33438 59.1 348.70938 58.053123Q348.75626 57.896873 348.86563 57.615623L344.92813 47.225L346.81876 47.225L348.975 53.240623Q349.39688 54.38125 349.725 55.63125Q350.0375 54.428123 350.44376 53.271873L352.6625 47.225L354.42813 47.225L350.475 57.771873Q349.85 59.490623 349.49063 60.13125Q349.02188 61.00625 348.4125 61.396873Q347.81876 61.803123 346.975 61.803123Q346.45938 61.803123 345.83438 61.6Z" fill-rule="nonzero"/></svg>
