<svg version="1.1" viewBox="0.0 0.0 1248.0 579.0" fill="none" stroke="none" stroke-linecap="square" stroke-miterlimit="10" width="1248" height="579" xmlns:xlink="http://www.w3.org/1999/xlink" xmlns="http://www.w3.org/2000/svg"><path fill="#ffffff" d="M0 0L1248.0 0L1248.0 579.0L0 579.0L0 0Z" fill-rule="nonzero"/><path stroke="#333333" stroke-width="1.0" stroke-linecap="butt" d="M111.5 79.5L111.5 498.5" fill-rule="nonzero"/><path stroke="#cccccc" stroke-width="1.0" stroke-linecap="butt" d="M270.5 79.5L270.5 498.5" fill-rule="nonzero"/><path stroke="#cccccc" stroke-width="1.0" stroke-linecap="butt" d="M428.5 79.5L428.5 498.5" fill-rule="nonzero"/><path stroke="#cccccc" stroke-width="1.0" stroke-linecap="butt" d="M586.5 79.5L586.5 498.5" fill-rule="nonzero"/><path stroke="#cccccc" stroke-width="1.0" stroke-linecap="butt" d="M744.5 79.5L744.5 498.5" fill-rule="nonzero"/><path stroke="#cccccc" stroke-width="1.0" stroke-linecap="butt" d="M902.5 79.5L902.5 498.5" fill-rule="nonzero"/><path stroke="#cccccc" stroke-width="1.0" stroke-linecap="butt" d="M1060.5 79.5L1060.5 498.5" fill-rule="nonzero"/><path stroke="#cccccc" stroke-width="1.0" stroke-linecap="butt" d="M1219.5 79.5L1219.5 498.5" fill-rule="nonzero"/><path stroke="#000000" stroke-width="1.0" stroke-linecap="butt" stroke-opacity="0.0" d="M164.5 79.5L164.5 498.5" fill-rule="nonzero"/><path stroke="#000000" stroke-width="1.0" stroke-linecap="butt" stroke-opacity="0.0" d="M217.5 79.5L217.5 498.5" fill-rule="nonzero"/><path stroke="#000000" stroke-width="1.0" stroke-linecap="butt" stroke-opacity="0.0" d="M322.5 79.5L322.5 498.5" fill-rule="nonzero"/><path stroke="#000000" stroke-width="1.0" stroke-linecap="butt" stroke-opacity="0.0" d="M375.5 79.5L375.5 498.5" fill-rule="nonzero"/><path stroke="#000000" stroke-width="1.0" stroke-linecap="butt" stroke-opacity="0.0" d="M480.5 79.5L480.5 498.5" fill-rule="nonzero"/><path stroke="#000000" stroke-width="1.0" stroke-linecap="butt" stroke-opacity="0.0" d="M533.5 79.5L533.5 498.5" fill-rule="nonzero"/><path stroke="#000000" stroke-width="1.0" stroke-linecap="butt" stroke-opacity="0.0" d="M639.5 79.5L639.5 498.5" fill-rule="nonzero"/><path stroke="#000000" stroke-width="1.0" stroke-linecap="butt" stroke-opacity="0.0" d="M691.5 79.5L691.5 498.5" fill-rule="nonzero"/><path stroke="#000000" stroke-width="1.0" stroke-linecap="butt" stroke-opacity="0.0" d="M797.5 79.5L797.5 498.5" fill-rule="nonzero"/><path stroke="#000000" stroke-width="1.0" stroke-linecap="butt" stroke-opacity="0.0" d="M850.5 79.5L850.5 498.5" fill-rule="nonzero"/><path stroke="#000000" stroke-width="1.0" stroke-linecap="butt" stroke-opacity="0.0" d="M955.5 79.5L955.5 498.5" fill-rule="nonzero"/><path stroke="#000000" stroke-width="1.0" stroke-linecap="butt" stroke-opacity="0.0" d="M1008.5 79.5L1008.5 498.5" fill-rule="nonzero"/><path stroke="#000000" stroke-width="1.0" stroke-linecap="butt" stroke-opacity="0.0" d="M1113.5 79.5L1113.5 498.5" fill-rule="nonzero"/><path stroke="#000000" stroke-width="1.0" stroke-linecap="butt" stroke-opacity="0.0" d="M1166.5 79.5L1166.5 498.5" fill-rule="nonzero"/><path stroke="#333333" stroke-width="1.0" stroke-linecap="butt" d="M111.5 498.5L1219.5 498.5" fill-rule="nonzero"/><path stroke="#cccccc" stroke-width="1.0" stroke-linecap="butt" d="M111.5 393.5L1219.5 393.5" fill-rule="nonzero"/><path stroke="#cccccc" stroke-width="1.0" stroke-linecap="butt" d="M111.5 288.5L1219.5 288.5" fill-rule="nonzero"/><path stroke="#cccccc" stroke-width="1.0" stroke-linecap="butt" d="M111.5 183.5L1219.5 183.5" fill-rule="nonzero"/><path stroke="#cccccc" stroke-width="1.0" stroke-linecap="butt" d="M111.5 79.5L1219.5 79.5" fill-rule="nonzero"/><path stroke="#e6e6e6" stroke-width="1.0" stroke-linecap="butt" d="M111.5 480.5L1219.5 480.5" fill-rule="nonzero"/><path stroke="#e6e6e6" stroke-width="1.0" stroke-linecap="butt" d="M111.5 463.5L1219.5 463.5" fill-rule="nonzero"/><path stroke="#e6e6e6" stroke-width="1.0" stroke-linecap="butt" d="M111.5 445.5L1219.5 445.5" fill-rule="nonzero"/><path stroke="#e6e6e6" stroke-width="1.0" stroke-linecap="butt" d="M111.5 428.5L1219.5 428.5" fill-rule="nonzero"/><path stroke="#e6e6e6" stroke-width="1.0" stroke-linecap="butt" d="M111.5 410.5L1219.5 410.5" fill-rule="nonzero"/><path stroke="#e6e6e6" stroke-width="1.0" stroke-linecap="butt" d="M111.5 375.5L1219.5 375.5" fill-rule="nonzero"/><path stroke="#e6e6e6" stroke-width="1.0" stroke-linecap="butt" d="M111.5 358.5L1219.5 358.5" fill-rule="nonzero"/><path stroke="#e6e6e6" stroke-width="1.0" stroke-linecap="butt" d="M111.5 341.5L1219.5 341.5" fill-rule="nonzero"/><path stroke="#e6e6e6" stroke-width="1.0" stroke-linecap="butt" d="M111.5 323.5L1219.5 323.5" fill-rule="nonzero"/><path stroke="#e6e6e6" stroke-width="1.0" stroke-linecap="butt" d="M111.5 306.5L1219.5 306.5" fill-rule="nonzero"/><path stroke="#e6e6e6" stroke-width="1.0" stroke-linecap="butt" d="M111.5 271.5L1219.5 271.5" fill-rule="nonzero"/><path stroke="#e6e6e6" stroke-width="1.0" stroke-linecap="butt" d="M111.5 253.5L1219.5 253.5" fill-rule="nonzero"/><path stroke="#e6e6e6" stroke-width="1.0" stroke-linecap="butt" d="M111.5 236.5L1219.5 236.5" fill-rule="nonzero"/><path stroke="#e6e6e6" stroke-width="1.0" stroke-linecap="butt" d="M111.5 218.5L1219.5 218.5" fill-rule="nonzero"/><path stroke="#e6e6e6" stroke-width="1.0" stroke-linecap="butt" d="M111.5 201.5L1219.5 201.5" fill-rule="nonzero"/><path stroke="#e6e6e6" stroke-width="1.0" stroke-linecap="butt" d="M111.5 166.5L1219.5 166.5" fill-rule="nonzero"/><path stroke="#e6e6e6" stroke-width="1.0" stroke-linecap="butt" d="M111.5 149.5L1219.5 149.5" fill-rule="nonzero"/><path stroke="#e6e6e6" stroke-width="1.0" stroke-linecap="butt" d="M111.5 131.5L1219.5 131.5" fill-rule="nonzero"/><path stroke="#e6e6e6" stroke-width="1.0" stroke-linecap="butt" d="M111.5 114.5L1219.5 114.5" fill-rule="nonzero"/><path stroke="#e6e6e6" stroke-width="1.0" stroke-linecap="butt" d="M111.5 96.5L1219.5 96.5" fill-rule="nonzero"/><clipPath id="id_0"><path d="M111.95 79.25L1219.05 79.25L1219.05 498.05L111.95 498.05L111.95 79.25Z" clip-rule="nonzero"/></clipPath><path stroke="#4285f4" stroke-width="2.0" stroke-linecap="butt" clip-path="url(#id_0)" d="M111.95 498.05L112.38331 105.838776L159.6138 178.98618L198.61145 238.49158L237.6091 286.89923L276.60675 326.27884L315.6044 358.31415L354.60205 384.3749L393.5997 405.57532L432.59735 422.82184L471.595 436.8519L510.59265 448.26532L549.59033 457.55017L588.58795 465.1034L627.58563 471.24792L666.58325 476.24652L705.58093 480.31287L744.57855 483.62085L783.57623 486.3119L822.57385 488.50104L861.57153 490.28192L900.56915 491.73068L939.56683 492.9092L978.56445 493.86798L1017.56213 494.64792L1056.5598 495.2824L1095.5575 495.79855L1134.555 496.21844L1173.5527 496.56003L1212.5504 496.83792" fill-rule="nonzero"/><path fill="#000000" fill-opacity="0.0" clip-path="url(#id_0)" d="M114.95 498.05C114.95 499.70685 113.60686 501.05 111.95 501.05C110.293144 501.05 108.95 499.70685 108.95 498.05C108.95 496.39316 110.293144 495.05 111.95 495.05C113.60686 495.05 114.95 496.39316 114.95 498.05Z" fill-rule="nonzero"/><path fill="#000000" fill-opacity="0.0" clip-path="url(#id_0)" d="M115.38331 105.838776C115.38331 107.49563 114.04016 108.838776 112.38331 108.838776C110.726456 108.838776 109.38331 107.49563 109.38331 105.838776C109.38331 104.18192 110.726456 102.838776 112.38331 102.838776C114.04016 102.838776 115.38331 104.18192 115.38331 105.838776Z" fill-rule="nonzero"/><path fill="#000000" fill-opacity="0.0" clip-path="url(#id_0)" d="M162.6138 178.98618C162.6138 180.64302 161.27065 181.98618 159.6138 181.98618C157.95694 181.98618 156.6138 180.64302 156.6138 178.98618C156.6138 177.32932 157.95694 175.98618 159.6138 175.98618C161.27065 175.98618 162.6138 177.32932 162.6138 178.98618Z" fill-rule="nonzero"/><path fill="#000000" fill-opacity="0.0" clip-path="url(#id_0)" d="M201.61145 238.49158C201.61145 240.14842 200.2683 241.49158 198.61145 241.49158C196.95459 241.49158 195.61145 240.14842 195.61145 238.49158C195.61145 236.83472 196.95459 235.49158 198.61145 235.49158C200.2683 235.49158 201.61145 236.83472 201.61145 238.49158Z" fill-rule="nonzero"/><path fill="#000000" fill-opacity="0.0" clip-path="url(#id_0)" d="M240.6091 286.89923C240.6091 288.55606 239.26596 289.89923 237.6091 289.89923C235.95224 289.89923 234.6091 288.55606 234.6091 286.89923C234.6091 285.24237 235.95224 283.89923 237.6091 283.89923C239.26596 283.89923 240.6091 285.24237 240.6091 286.89923Z" fill-rule="nonzero"/><path fill="#000000" fill-opacity="0.0" clip-path="url(#id_0)" d="M279.60675 326.27884C279.60675 327.9357 278.2636 329.27884 276.60675 329.27884C274.9499 329.27884 273.60675 327.9357 273.60675 326.27884C273.60675 324.62198 274.9499 323.27884 276.60675 323.27884C278.2636 323.27884 279.60675 324.62198 279.60675 326.27884Z" fill-rule="nonzero"/><path fill="#000000" fill-opacity="0.0" clip-path="url(#id_0)" d="M318.6044 358.31415C318.6044 359.971 317.26126 361.31415 315.6044 361.31415C313.94754 361.31415 312.6044 359.971 312.6044 358.31415C312.6044 356.65732 313.94754 355.31415 315.6044 355.31415C317.26126 355.31415 318.6044 356.65732 318.6044 358.31415Z" fill-rule="nonzero"/><path fill="#000000" fill-opacity="0.0" clip-path="url(#id_0)" d="M357.60205 384.3749C357.60205 386.03174 356.2589 387.3749 354.60205 387.3749C352.9452 387.3749 351.60205 386.03174 351.60205 384.3749C351.60205 382.71805 352.9452 381.3749 354.60205 381.3749C356.2589 381.3749 357.60205 382.71805 357.60205 384.3749Z" fill-rule="nonzero"/><path fill="#000000" fill-opacity="0.0" clip-path="url(#id_0)" d="M396.5997 405.57532C396.5997 407.23215 395.25656 408.57532 393.5997 408.57532C391.94284 408.57532 390.5997 407.23215 390.5997 405.57532C390.5997 403.91846 391.94284 402.57532 393.5997 402.57532C395.25656 402.57532 396.5997 403.91846 396.5997 405.57532Z" fill-rule="nonzero"/><path fill="#000000" fill-opacity="0.0" clip-path="url(#id_0)" d="M435.59735 422.82184C435.59735 424.4787 434.2542 425.82184 432.59735 425.82184C430.9405 425.82184 429.59735 424.4787 429.59735 422.82184C429.59735 421.16498 430.9405 419.82184 432.59735 419.82184C434.2542 419.82184 435.59735 421.16498 435.59735 422.82184Z" fill-rule="nonzero"/><path fill="#000000" fill-opacity="0.0" clip-path="url(#id_0)" d="M474.595 436.8519C474.595 438.50873 473.25186 439.8519 471.595 439.8519C469.93814 439.8519 468.595 438.50873 468.595 436.8519C468.595 435.19504 469.93814 433.8519 471.595 433.8519C473.25186 433.8519 474.595 435.19504 474.595 436.8519Z" fill-rule="nonzero"/><path fill="#000000" fill-opacity="0.0" clip-path="url(#id_0)" d="M513.59265 448.26532C513.59265 449.92218 512.2495 451.26532 510.59265 451.26532C508.93582 451.26532 507.59265 449.92218 507.59265 448.26532C507.59265 446.6085 508.93582 445.26532 510.59265 445.26532C512.2495 445.26532 513.59265 446.6085 513.59265 448.26532Z" fill-rule="nonzero"/><path fill="#000000" fill-opacity="0.0" clip-path="url(#id_0)" d="M552.59033 457.55017C552.59033 459.20703 551.2472 460.55017 549.59033 460.55017C547.9335 460.55017 546.59033 459.20703 546.59033 457.55017C546.59033 455.8933 547.9335 454.55017 549.59033 454.55017C551.2472 454.55017 552.59033 455.8933 552.59033 457.55017Z" fill-rule="nonzero"/><path fill="#000000" fill-opacity="0.0" clip-path="url(#id_0)" d="M591.58795 465.1034C591.58795 466.76025 590.2448 468.1034 588.58795 468.1034C586.9311 468.1034 585.58795 466.76025 585.58795 465.1034C585.58795 463.44653 586.9311 462.1034 588.58795 462.1034C590.2448 462.1034 591.58795 463.44653 591.58795 465.1034Z" fill-rule="nonzero"/><path fill="#000000" fill-opacity="0.0" clip-path="url(#id_0)" d="M630.58563 471.24792C630.58563 472.9048 629.2425 474.24792 627.58563 474.24792C625.9288 474.24792 624.58563 472.9048 624.58563 471.24792C624.58563 469.5911 625.9288 468.24792 627.58563 468.24792C629.2425 468.24792 630.58563 469.5911 630.58563 471.24792Z" fill-rule="nonzero"/><path fill="#000000" fill-opacity="0.0" clip-path="url(#id_0)" d="M669.58325 476.24652C669.58325 477.90338 668.2401 479.24652 666.58325 479.24652C664.9264 479.24652 663.58325 477.90338 663.58325 476.24652C663.58325 474.58966 664.9264 473.24652 666.58325 473.24652C668.2401 473.24652 669.58325 474.58966 669.58325 476.24652Z" fill-rule="nonzero"/><path fill="#000000" fill-opacity="0.0" clip-path="url(#id_0)" d="M708.58093 480.31287C708.58093 481.96973 707.2378 483.31287 705.58093 483.31287C703.9241 483.31287 702.58093 481.96973 702.58093 480.31287C702.58093 478.656 703.9241 477.31287 705.58093 477.31287C707.2378 477.31287 708.58093 478.656 708.58093 480.31287Z" fill-rule="nonzero"/><path fill="#000000" fill-opacity="0.0" clip-path="url(#id_0)" d="M747.57855 483.62085C747.57855 485.2777 746.2354 486.62085 744.57855 486.62085C742.9217 486.62085 741.57855 485.2777 741.57855 483.62085C741.57855 481.964 742.9217 480.62085 744.57855 480.62085C746.2354 480.62085 747.57855 481.964 747.57855 483.62085Z" fill-rule="nonzero"/><path fill="#000000" fill-opacity="0.0" clip-path="url(#id_0)" d="M786.57623 486.3119C786.57623 487.96875 785.2331 489.3119 783.57623 489.3119C781.9194 489.3119 780.57623 487.96875 780.57623 486.3119C780.57623 484.65503 781.9194 483.3119 783.57623 483.3119C785.2331 483.3119 786.57623 484.65503 786.57623 486.3119Z" fill-rule="nonzero"/><path fill="#000000" fill-opacity="0.0" clip-path="url(#id_0)" d="M825.57385 488.50104C825.57385 490.1579 824.2307 491.50104 822.57385 491.50104C820.917 491.50104 819.57385 490.1579 819.57385 488.50104C819.57385 486.84418 820.917 485.50104 822.57385 485.50104C824.2307 485.50104 825.57385 486.84418 825.57385 488.50104Z" fill-rule="nonzero"/><path fill="#000000" fill-opacity="0.0" clip-path="url(#id_0)" d="M864.57153 490.28192C864.57153 491.93878 863.2284 493.28192 861.57153 493.28192C859.9147 493.28192 858.57153 491.93878 858.57153 490.28192C858.57153 488.62506 859.9147 487.28192 861.57153 487.28192C863.2284 487.28192 864.57153 488.62506 864.57153 490.28192Z" fill-rule="nonzero"/><path fill="#000000" fill-opacity="0.0" clip-path="url(#id_0)" d="M903.56915 491.73068C903.56915 493.3875 902.226 494.73068 900.56915 494.73068C898.91235 494.73068 897.56915 493.3875 897.56915 491.73068C897.56915 490.07382 898.91235 488.73068 900.56915 488.73068C902.226 488.73068 903.56915 490.07382 903.56915 491.73068Z" fill-rule="nonzero"/><path fill="#000000" fill-opacity="0.0" clip-path="url(#id_0)" d="M942.56683 492.9092C942.56683 494.56607 941.2237 495.9092 939.56683 495.9092C937.91 495.9092 936.56683 494.56607 936.56683 492.9092C936.56683 491.25238 937.91 489.9092 939.56683 489.9092C941.2237 489.9092 942.56683 491.25238 942.56683 492.9092Z" fill-rule="nonzero"/><path fill="#000000" fill-opacity="0.0" clip-path="url(#id_0)" d="M981.56445 493.86798C981.56445 495.52484 980.2213 496.86798 978.56445 496.86798C976.90765 496.86798 975.56445 495.52484 975.56445 493.86798C975.56445 492.21112 976.90765 490.86798 978.56445 490.86798C980.2213 490.86798 981.56445 492.21112 981.56445 493.86798Z" fill-rule="nonzero"/><path fill="#000000" fill-opacity="0.0" clip-path="url(#id_0)" d="M1020.56213 494.64792C1020.56213 496.30478 1019.219 497.64792 1017.56213 497.64792C1015.9053 497.64792 1014.56213 496.30478 1014.56213 494.64792C1014.56213 492.99106 1015.9053 491.64792 1017.56213 491.64792C1019.219 491.64792 1020.56213 492.99106 1020.56213 494.64792Z" fill-rule="nonzero"/><path fill="#000000" fill-opacity="0.0" clip-path="url(#id_0)" d="M1059.5598 495.2824C1059.5598 496.93927 1058.2167 498.2824 1056.5598 498.2824C1054.903 498.2824 1053.5598 496.93927 1053.5598 495.2824C1053.5598 493.62555 1054.903 492.2824 1056.5598 492.2824C1058.2167 492.2824 1059.5598 493.62555 1059.5598 495.2824Z" fill-rule="nonzero"/><path fill="#000000" fill-opacity="0.0" clip-path="url(#id_0)" d="M1098.5575 495.79855C1098.5575 497.4554 1097.2142 498.79855 1095.5575 498.79855C1093.9006 498.79855 1092.5575 497.4554 1092.5575 495.79855C1092.5575 494.14172 1093.9006 492.79855 1095.5575 492.79855C1097.2142 492.79855 1098.5575 494.14172 1098.5575 495.79855Z" fill-rule="nonzero"/><path fill="#000000" fill-opacity="0.0" clip-path="url(#id_0)" d="M1137.555 496.21844C1137.555 497.8753 1136.2119 499.21844 1134.555 499.21844C1132.8982 499.21844 1131.555 497.8753 1131.555 496.21844C1131.555 494.5616 1132.8982 493.21844 1134.555 493.21844C1136.2119 493.21844 1137.555 494.5616 1137.555 496.21844Z" fill-rule="nonzero"/><path fill="#000000" fill-opacity="0.0" clip-path="url(#id_0)" d="M1176.5527 496.56003C1176.5527 498.2169 1175.2096 499.56003 1173.5527 499.56003C1171.8959 499.56003 1170.5527 498.2169 1170.5527 496.56003C1170.5527 494.9032 1171.8959 493.56003 1173.5527 493.56003C1175.2096 493.56003 1176.5527 494.9032 1176.5527 496.56003Z" fill-rule="nonzero"/><path fill="#000000" fill-opacity="0.0" clip-path="url(#id_0)" d="M1215.5504 496.83792C1215.5504 498.49478 1214.2073 499.83792 1212.5504 499.83792C1210.8936 499.83792 1209.5504 498.49478 1209.5504 496.83792C1209.5504 495.18106 1210.8936 493.83792 1212.5504 493.83792C1214.2073 493.83792 1215.5504 495.18106 1215.5504 496.83792Z" fill-rule="nonzero"/><path fill="#000000" d="M657.3281 547.05L657.3281 546.26874Q656.7344 547.1906 655.59375 547.1906Q654.84375 547.1906 654.21875 546.78436Q653.59375 546.3625 653.25 545.6281Q652.90625 544.89374 652.90625 543.9406Q652.90625 543.01874 653.21875 542.2531Q653.53125 541.4875 654.15625 541.09686Q654.78125 540.6906 655.5469 540.6906Q656.1094 540.6906 656.5469 540.925Q656.9844 541.15936 657.2656 541.53436L657.2656 538.45624L658.3125 538.45624L658.3125 547.05L657.3281 547.05ZM654.0 543.9406Q654.0 545.14374 654.5 545.7375Q655.0 546.3156 655.6875 546.3156Q656.375 546.3156 656.8594 545.7531Q657.34375 545.1906 657.34375 544.03436Q657.34375 542.7531 656.84375 542.15936Q656.3594 541.5656 655.6406 541.5656Q654.9375 541.5656 654.46875 542.14374Q654.0 542.70624 654.0 543.9406ZM664.3594 546.28436Q663.7656 546.78436 663.21875 546.9875Q662.6875 547.1906 662.0625 547.1906Q661.03125 547.1906 660.4844 546.6906Q659.9375 546.1906 659.9375 545.40936Q659.9375 544.95624 660.1406 544.58124Q660.34375 544.1906 660.6875 543.97186Q661.03125 543.7375 661.4531 543.6281Q661.75 543.53436 662.3906 543.45624Q663.65625 543.3156 664.2656 543.09686Q664.2656 542.8781 664.2656 542.83124Q664.2656 542.175 663.96875 541.90936Q663.5625 541.5656 662.7656 541.5656Q662.03125 541.5656 661.6719 541.83124Q661.3125 542.08124 661.1406 542.7375L660.1094 542.59686Q660.25 541.9406 660.5781 541.53436Q660.90625 541.1281 661.5156 540.90936Q662.125 540.6906 662.9219 540.6906Q663.71875 540.6906 664.21875 540.8781Q664.71875 541.0656 664.9531 541.34686Q665.1875 541.6281 665.28125 542.0656Q665.3281 542.33124 665.3281 543.03436L665.3281 544.4406Q665.3281 545.90936 665.3906 546.3Q665.46875 546.6906 665.6719 547.05L664.5625 547.05Q664.40625 546.72186 664.3594 546.28436ZM664.2656 543.925Q663.6875 544.15936 662.5469 544.33124Q661.8906 544.425 661.625 544.55Q661.3594 544.65936 661.2031 544.8781Q661.0625 545.09686 661.0625 545.3781Q661.0625 545.8 661.375 546.08124Q661.7031 546.3625 662.3125 546.3625Q662.9219 546.3625 663.3906 546.09686Q663.875 545.83124 664.09375 545.3625Q664.2656 545.0031 664.2656 544.3156L664.2656 543.925ZM667.25 549.4406L667.125 548.45624Q667.46875 548.55 667.7344 548.55Q668.0781 548.55 668.28125 548.425Q668.5 548.3156 668.6406 548.1125Q668.7344 547.9406 668.96875 547.3156Q668.9844 547.2375 669.0625 547.0656L666.6875 540.83124L667.8281 540.83124L669.125 544.425Q669.375 545.1125 669.5781 545.8781Q669.7656 545.14374 670.0156 544.45624L671.34375 540.83124L672.3906 540.83124L670.03125 547.15936Q669.6406 548.175 669.4375 548.5656Q669.15625 549.09686 668.78125 549.33124Q668.4219 549.58124 667.9219 549.58124Q667.625 549.58124 667.25 549.4406ZM671.875 545.1906L672.90625 545.03436Q673.0 545.65936 673.3906 545.9875Q673.7969 546.3156 674.53125 546.3156Q675.25 546.3156 675.59375 546.03436Q675.9531 545.7375 675.9531 545.33124Q675.9531 544.97186 675.6406 544.76874Q675.4219 544.6281 674.5625 544.40936Q673.40625 544.1125 672.9531 543.90936Q672.5156 543.6906 672.28125 543.3156Q672.0469 542.9406 672.0469 542.47186Q672.0469 542.0656 672.2344 541.70624Q672.4219 541.34686 672.75 541.1125Q673.0 540.9406 673.4219 540.8156Q673.84375 540.6906 674.34375 540.6906Q675.0625 540.6906 675.6094 540.90936Q676.1719 541.1125 676.4375 541.47186Q676.7031 541.83124 676.7969 542.425L675.7656 542.5656Q675.7031 542.09686 675.3594 541.83124Q675.03125 541.55 674.40625 541.55Q673.6875 541.55 673.375 541.8Q673.0625 542.03436 673.0625 542.3625Q673.0625 542.5656 673.1875 542.72186Q673.3281 542.89374 673.59375 543.0031Q673.75 543.0656 674.53125 543.26874Q675.65625 543.58124 676.09375 543.76874Q676.53125 543.95624 676.78125 544.3156Q677.03125 544.675 677.03125 545.22186Q677.03125 545.7531 676.71875 546.22186Q676.4219 546.675 675.84375 546.9406Q675.2656 547.1906 674.53125 547.1906Q673.3125 547.1906 672.6719 546.6906Q672.0469 546.175 671.875 545.1906Z" fill-rule="nonzero"/><path fill="#000000" d="M37.94999 328.10312L38.07499 327.00937Q39.028114 327.25937 39.559364 327.9625Q40.090614 328.66562 40.090614 329.74374Q40.090614 331.10312 39.246864 331.91562Q38.403114 332.7125 36.88749 332.7125Q35.32499 332.7125 34.465614 331.9Q33.590614 331.0875 33.590614 329.80624Q33.590614 328.55624 34.434364 327.775Q35.278114 326.97812 36.82499 326.97812Q36.91874 326.97812 37.10624 326.97812L37.10624 331.61874Q38.13749 331.55624 38.684364 331.04062Q39.215614 330.525 39.215614 329.74374Q39.215614 329.16562 38.91874 328.75937Q38.60624 328.3375 37.94999 328.10312ZM36.246864 331.55624L36.246864 328.0875Q35.44999 328.15 35.059364 328.47812Q34.44999 328.99374 34.44999 329.79062Q34.44999 330.525 34.934364 331.025Q35.41874 331.50937 36.246864 331.55624ZM39.94999 325.35312L33.73124 325.35312L33.73124 324.41562L34.60624 324.41562Q34.13749 324.11874 33.871864 323.63437Q33.590614 323.15 33.590614 322.525Q33.590614 321.8375 33.871864 321.4Q34.153114 320.94687 34.66874 320.775Q33.590614 320.025 33.590614 318.85312Q33.590614 317.91562 34.10624 317.43124Q34.60624 316.93124 35.684364 316.93124L39.94999 316.93124L39.94999 317.97812L36.028114 317.97812Q35.403114 317.97812 35.121864 318.0875Q34.840614 318.18124 34.66874 318.44687Q34.496864 318.7125 34.496864 319.0875Q34.496864 319.74374 34.934364 320.18124Q35.371864 320.60312 36.340614 320.60312L39.94999 320.60312L39.94999 321.66562L35.903114 321.66562Q35.19999 321.66562 34.85624 321.93124Q34.496864 322.18124 34.496864 322.75937Q34.496864 323.2125 34.73124 323.5875Q34.965614 323.9625 35.41874 324.13437Q35.871864 324.30624 36.715614 324.30624L39.94999 324.30624L39.94999 325.35312ZM32.57499 314.35312L31.356237 314.35312L31.356237 313.29062L32.57499 313.29062L32.57499 314.35312ZM39.94999 314.35312L33.73124 314.35312L33.73124 313.29062L39.94999 313.29062L39.94999 314.35312ZM38.090614 311.775L37.934364 310.74374Q38.559364 310.65 38.88749 310.25937Q39.215614 309.85312 39.215614 309.11874Q39.215614 308.4 38.934364 308.05624Q38.63749 307.69687 38.23124 307.69687Q37.871864 307.69687 37.66874 308.00937Q37.528114 308.22812 37.309364 309.0875Q37.01249 310.24374 36.809364 310.69687Q36.590614 311.13437 36.215614 311.36874Q35.840614 311.60312 35.371864 311.60312Q34.965614 311.60312 34.60624 311.41562Q34.246864 311.22812 34.01249 310.9Q33.840614 310.65 33.715614 310.22812Q33.590614 309.80624 33.590614 309.30624Q33.590614 308.5875 33.809364 308.04062Q34.01249 307.47812 34.371864 307.2125Q34.73124 306.94687 35.32499 306.85312L35.465614 307.88437Q34.996864 307.94687 34.73124 308.29062Q34.44999 308.61874 34.44999 309.24374Q34.44999 309.9625 34.69999 310.275Q34.934364 310.5875 35.26249 310.5875Q35.465614 310.5875 35.621864 310.4625Q35.79374 310.32187 35.903114 310.05624Q35.965614 309.9 36.16874 309.11874Q36.48124 307.99374 36.66874 307.55624Q36.85624 307.11874 37.215614 306.86874Q37.57499 306.61874 38.121864 306.61874Q38.653114 306.61874 39.121864 306.93124Q39.57499 307.22812 39.840614 307.80624Q40.090614 308.38437 40.090614 309.11874Q40.090614 310.3375 39.590614 310.97812Q39.07499 311.60312 38.090614 311.775ZM38.090614 304.775L37.934364 303.74374Q38.559364 303.65 38.88749 303.25937Q39.215614 302.85312 39.215614 302.11874Q39.215614 301.4 38.934364 301.05624Q38.63749 300.69687 38.23124 300.69687Q37.871864 300.69687 37.66874 301.00937Q37.528114 301.22812 37.309364 302.0875Q37.01249 303.24374 36.809364 303.69687Q36.590614 304.13437 36.215614 304.36874Q35.840614 304.60312 35.371864 304.60312Q34.965614 304.60312 34.60624 304.41562Q34.246864 304.22812 34.01249 303.9Q33.840614 303.65 33.715614 303.22812Q33.590614 302.80624 33.590614 302.30624Q33.590614 301.5875 33.809364 301.04062Q34.01249 300.47812 34.371864 300.2125Q34.73124 299.94687 35.32499 299.85312L35.465614 300.88437Q34.996864 300.94687 34.73124 301.29062Q34.44999 301.61874 34.44999 302.24374Q34.44999 302.9625 34.69999 303.275Q34.934364 303.5875 35.26249 303.5875Q35.465614 303.5875 35.621864 303.4625Q35.79374 303.32187 35.903114 303.05624Q35.965614 302.9 36.16874 302.11874Q36.48124 300.99374 36.66874 300.55624Q36.85624 300.11874 37.215614 299.86874Q37.57499 299.61874 38.121864 299.61874Q38.653114 299.61874 39.121864 299.93124Q39.57499 300.22812 39.840614 300.80624Q40.090614 301.38437 40.090614 302.11874Q40.090614 303.3375 39.590614 303.97812Q39.07499 304.60312 38.090614 304.775ZM32.57499 297.35312L31.356237 297.35312L31.356237 296.29062L32.57499 296.29062L32.57499 297.35312ZM39.94999 297.35312L33.73124 297.35312L33.73124 296.29062L39.94999 296.29062L39.94999 297.35312ZM36.840614 294.74374Q35.10624 294.74374 34.278114 293.79062Q33.590614 292.99374 33.590614 291.8375Q33.590614 290.55624 34.434364 289.74374Q35.26249 288.91562 36.746864 288.91562Q37.94999 288.91562 38.63749 289.275Q39.32499 289.63437 39.715614 290.3375Q40.090614 291.025 40.090614 291.8375Q40.090614 293.13437 39.26249 293.94687Q38.41874 294.74374 36.840614 294.74374ZM36.840614 293.66562Q38.028114 293.66562 38.621864 293.15Q39.215614 292.61874 39.215614 291.8375Q39.215614 291.04062 38.621864 290.525Q38.028114 290.00937 36.809364 290.00937Q35.653114 290.00937 35.059364 290.54062Q34.465614 291.05624 34.465614 291.8375Q34.465614 292.61874 35.059364 293.15Q35.63749 293.66562 36.840614 293.66562ZM39.94999 287.35312L33.73124 287.35312L33.73124 286.41562L34.60624 286.41562Q33.590614 285.72812 33.590614 284.43124Q33.590614 283.86874 33.79374 283.4Q33.996864 282.91562 34.32499 282.68124Q34.653114 282.44687 35.090614 282.35312Q35.38749 282.30624 36.121864 282.30624L39.94999 282.30624L39.94999 283.35312L36.16874 283.35312Q35.51249 283.35312 35.19999 283.47812Q34.88749 283.60312 34.69999 283.91562Q34.496864 284.22812 34.496864 284.65Q34.496864 285.32187 34.934364 285.82187Q35.35624 286.30624 36.54374 286.30624L39.94999 286.30624L39.94999 287.35312ZM39.94999 277.36874L33.73124 277.36874L33.73124 276.41562L34.66874 276.41562Q34.01249 276.05624 33.809364 275.75937Q33.590614 275.44687 33.590614 275.07187Q33.590614 274.54062 33.91874 273.99374L34.903114 274.35312Q34.66874 274.74374 34.66874 275.11874Q34.66874 275.47812 34.88749 275.75937Q35.090614 276.025 35.465614 276.13437Q36.028114 276.32187 36.684364 276.32187L39.94999 276.32187L39.94999 277.36874ZM39.184364 269.29062Q39.684364 269.88437 39.88749 270.43124Q40.090614 270.9625 40.090614 271.5875Q40.090614 272.61874 39.590614 273.16562Q39.090614 273.7125 38.309364 273.7125Q37.85624 273.7125 37.48124 273.50937Q37.090614 273.30624 36.871864 272.9625Q36.63749 272.61874 36.528114 272.19687Q36.434364 271.9 36.35624 271.25937Q36.215614 269.99374 35.996864 269.38437Q35.778114 269.38437 35.73124 269.38437Q35.07499 269.38437 34.809364 269.68124Q34.465614 270.0875 34.465614 270.88437Q34.465614 271.61874 34.73124 271.97812Q34.98124 272.3375 35.63749 272.50937L35.496864 273.54062Q34.840614 273.4 34.434364 273.07187Q34.028114 272.74374 33.809364 272.13437Q33.590614 271.525 33.590614 270.72812Q33.590614 269.93124 33.778114 269.43124Q33.965614 268.93124 34.246864 268.69687Q34.528114 268.4625 34.965614 268.36874Q35.23124 268.32187 35.934364 268.32187L37.340614 268.32187Q38.809364 268.32187 39.19999 268.25937Q39.590614 268.18124 39.94999 267.97812L39.94999 269.0875Q39.621864 269.24374 39.184364 269.29062ZM36.82499 269.38437Q37.059364 269.9625 37.23124 271.10312Q37.32499 271.75937 37.44999 272.025Q37.559364 272.29062 37.778114 272.44687Q37.996864 272.5875 38.278114 272.5875Q38.69999 272.5875 38.98124 272.275Q39.26249 271.94687 39.26249 271.3375Q39.26249 270.72812 38.996864 270.25937Q38.73124 269.775 38.26249 269.55624Q37.903114 269.38437 37.215614 269.38437L36.82499 269.38437ZM39.01249 264.05624L39.934364 263.9Q40.028114 264.35312 40.028114 264.69687Q40.028114 265.275 39.85624 265.5875Q39.66874 265.9 39.371864 266.04062Q39.07499 266.16562 38.121864 266.16562L34.54374 266.16562L34.54374 266.93124L33.73124 266.93124L33.73124 266.16562L32.184364 266.16562L31.559362 265.11874L33.73124 265.11874L33.73124 264.05624L34.54374 264.05624L34.54374 265.11874L38.184364 265.11874Q38.63749 265.11874 38.76249 265.07187Q38.88749 265.00937 38.965614 264.88437Q39.04374 264.75937 39.04374 264.525Q39.04374 264.3375 39.01249 264.05624ZM37.94999 259.10312L38.07499 258.00937Q39.028114 258.25937 39.559364 258.9625Q40.090614 259.66562 40.090614 260.74374Q40.090614 262.10312 39.246864 262.91562Q38.403114 263.7125 36.88749 263.7125Q35.32499 263.7125 34.465614 262.9Q33.590614 262.0875 33.590614 260.80624Q33.590614 259.55624 34.434364 258.775Q35.278114 257.97812 36.82499 257.97812Q36.91874 257.97812 37.10624 257.97812L37.10624 262.61874Q38.13749 262.55624 38.684364 262.04062Q39.215614 261.525 39.215614 260.74374Q39.215614 260.16562 38.91874 259.75937Q38.60624 259.3375 37.94999 259.10312ZM36.246864 262.55624L36.246864 259.0875Q35.44999 259.15 35.059364 259.47812Q34.44999 259.99374 34.44999 260.79062Q34.44999 261.525 34.934364 262.025Q35.41874 262.50937 36.246864 262.55624Z" fill-rule="nonzero"/><path fill="#000000" d="M82.45 497.8156Q82.45 496.28436 82.7625 495.3625Q83.075 494.425 83.68437 493.925Q84.30937 493.425 85.24687 493.425Q85.93437 493.425 86.45 493.70624Q86.98125 493.9875 87.325 494.51874Q87.66875 495.03436 87.85625 495.78436Q88.04375 496.53436 88.04375 497.8156Q88.04375 499.33124 87.73125 500.2531Q87.43437 501.175 86.80937 501.6906Q86.2 502.1906 85.24687 502.1906Q84.0125 502.1906 83.29375 501.3Q82.45 500.2375 82.45 497.8156ZM83.52812 497.8156Q83.52812 499.925 84.02812 500.6281Q84.52812 501.33124 85.24687 501.33124Q85.98125 501.33124 86.46562 500.6281Q86.96562 499.925 86.96562 497.8156Q86.96562 495.6906 86.46562 495.0031Q85.98125 494.3 85.23125 494.3Q84.5125 494.3 84.075 494.90936Q83.52812 495.6906 83.52812 497.8156ZM90.04375 502.05L90.04375 500.84686L91.24687 500.84686L91.24687 502.05L90.04375 502.05ZM92.45 497.8156Q92.45 496.28436 92.7625 495.3625Q93.075 494.425 93.68437 493.925Q94.30937 493.425 95.24687 493.425Q95.93437 493.425 96.45 493.70624Q96.98125 493.9875 97.325 494.51874Q97.66875 495.03436 97.85625 495.78436Q98.04375 496.53436 98.04375 497.8156Q98.04375 499.33124 97.73125 500.2531Q97.43437 501.175 96.80937 501.6906Q96.2 502.1906 95.24687 502.1906Q94.0125 502.1906 93.29375 501.3Q92.45 500.2375 92.45 497.8156ZM93.52812 497.8156Q93.52812 499.925 94.02812 500.6281Q94.52812 501.33124 95.24687 501.33124Q95.98125 501.33124 96.46562 500.6281Q96.96562 499.925 96.96562 497.8156Q96.96562 495.6906 96.46562 495.0031Q95.98125 494.3 95.23125 494.3Q94.5125 494.3 94.075 494.90936Q93.52812 495.6906 93.52812 497.8156ZM99.45 497.8156Q99.45 496.28436 99.7625 495.3625Q100.075 494.425 100.68437 493.925Q101.30937 493.425 102.24687 493.425Q102.93437 493.425 103.45 493.70624Q103.98125 493.9875 104.325 494.51874Q104.66875 495.03436 104.85625 495.78436Q105.04375 496.53436 105.04375 497.8156Q105.04375 499.33124 104.73125 500.2531Q104.43437 501.175 103.80937 501.6906Q103.2 502.1906 102.24687 502.1906Q101.0125 502.1906 100.29375 501.3Q99.45 500.2375 99.45 497.8156ZM100.52812 497.8156Q100.52812 499.925 101.02812 500.6281Q101.52812 501.33124 102.24687 501.33124Q102.98125 501.33124 103.46562 500.6281Q103.96562 499.925 103.96562 497.8156Q103.96562 495.6906 103.46562 495.0031Q102.98125 494.3 102.23125 494.3Q101.5125 494.3 101.075 494.90936Q100.52812 495.6906 100.52812 497.8156Z" fill-rule="nonzero"/><path fill="#000000" d="M65.41875 397.35L64.37187 397.35L64.37187 390.63126Q63.98125 390.99063 63.35625 391.36563Q62.746876 391.725 62.2625 391.89688L62.2625 390.88126Q63.1375 390.45938 63.79375 389.88126Q64.46562 389.2875 64.74687 388.725L65.41875 388.725L65.41875 397.35ZM68.45 393.11563Q68.45 391.58438 68.7625 390.6625Q69.075 389.725 69.68437 389.225Q70.30937 388.725 71.24687 388.725Q71.93437 388.725 72.45 389.00626Q72.98125 389.2875 73.325 389.81876Q73.66875 390.33438 73.85625 391.08438Q74.04375 391.83438 74.04375 393.11563Q74.04375 394.63126 73.73125 395.55313Q73.43437 396.475 72.80937 396.99063Q72.2 397.49063 71.24687 397.49063Q70.0125 397.49063 69.29375 396.6Q68.45 395.5375 68.45 393.11563ZM69.52812 393.11563Q69.52812 395.225 70.02812 395.92813Q70.52812 396.63126 71.24687 396.63126Q71.98125 396.63126 72.46562 395.92813Q72.96562 395.225 72.96562 393.11563Q72.96562 390.99063 72.46562 390.30313Q71.98125 389.6 71.23125 389.6Q70.5125 389.6 70.075 390.20938Q69.52812 390.99063 69.52812 393.11563ZM75.45 393.11563Q75.45 391.58438 75.7625 390.6625Q76.075 389.725 76.68437 389.225Q77.30937 388.725 78.24687 388.725Q78.93437 388.725 79.45 389.00626Q79.98125 389.2875 80.325 389.81876Q80.66875 390.33438 80.85625 391.08438Q81.04375 391.83438 81.04375 393.11563Q81.04375 394.63126 80.73125 395.55313Q80.43437 396.475 79.80937 396.99063Q79.2 397.49063 78.24687 397.49063Q77.0125 397.49063 76.29375 396.6Q75.45 395.5375 75.45 393.11563ZM76.52812 393.11563Q76.52812 395.225 77.02812 395.92813Q77.52812 396.63126 78.24687 396.63126Q78.98125 396.63126 79.46562 395.92813Q79.96562 395.225 79.96562 393.11563Q79.96562 390.99063 79.46562 390.30313Q78.98125 389.6 78.23125 389.6Q77.5125 389.6 77.075 390.20938Q76.52812 390.99063 76.52812 393.11563ZM82.45 393.11563Q82.45 391.58438 82.7625 390.6625Q83.075 389.725 83.68437 389.225Q84.30937 388.725 85.24687 388.725Q85.93437 388.725 86.45 389.00626Q86.98125 389.2875 87.325 389.81876Q87.66875 390.33438 87.85625 391.08438Q88.04375 391.83438 88.04375 393.11563Q88.04375 394.63126 87.73125 395.55313Q87.43437 396.475 86.80937 396.99063Q86.2 397.49063 85.24687 397.49063Q84.0125 397.49063 83.29375 396.6Q82.45 395.5375 82.45 393.11563ZM83.52812 393.11563Q83.52812 395.225 84.02812 395.92813Q84.52812 396.63126 85.24687 396.63126Q85.98125 396.63126 86.46562 395.92813Q86.96562 395.225 86.96562 393.11563Q86.96562 390.99063 86.46562 390.30313Q85.98125 389.6 85.23125 389.6Q84.5125 389.6 84.075 390.20938Q83.52812 390.99063 83.52812 393.11563ZM90.04375 397.35L90.04375 396.14688L91.24687 396.14688L91.24687 397.35L90.04375 397.35ZM92.45 393.11563Q92.45 391.58438 92.7625 390.6625Q93.075 389.725 93.68437 389.225Q94.30937 388.725 95.24687 388.725Q95.93437 388.725 96.45 389.00626Q96.98125 389.2875 97.325 389.81876Q97.66875 390.33438 97.85625 391.08438Q98.04375 391.83438 98.04375 393.11563Q98.04375 394.63126 97.73125 395.55313Q97.43437 396.475 96.80937 396.99063Q96.2 397.49063 95.24687 397.49063Q94.0125 397.49063 93.29375 396.6Q92.45 395.5375 92.45 393.11563ZM93.52812 393.11563Q93.52812 395.225 94.02812 395.92813Q94.52812 396.63126 95.24687 396.63126Q95.98125 396.63126 96.46562 395.92813Q96.96562 395.225 96.96562 393.11563Q96.96562 390.99063 96.46562 390.30313Q95.98125 389.6 95.23125 389.6Q94.5125 389.6 94.075 390.20938Q93.52812 390.99063 93.52812 393.11563ZM99.45 393.11563Q99.45 391.58438 99.7625 390.6625Q100.075 389.725 100.68437 389.225Q101.30937 388.725 102.24687 388.725Q102.93437 388.725 103.45 389.00626Q103.98125 389.2875 104.325 389.81876Q104.66875 390.33438 104.85625 391.08438Q105.04375 391.83438 105.04375 393.11563Q105.04375 394.63126 104.73125 395.55313Q104.43437 396.475 103.80937 396.99063Q103.2 397.49063 102.24687 397.49063Q101.0125 397.49063 100.29375 396.6Q99.45 395.5375 99.45 393.11563ZM100.52812 393.11563Q100.52812 395.225 101.02812 395.92813Q101.52812 396.63126 102.24687 396.63126Q102.98125 396.63126 103.46562 395.92813Q103.96562 395.225 103.96562 393.11563Q103.96562 390.99063 103.46562 390.30313Q102.98125 389.6 102.23125 389.6Q101.5125 389.6 101.075 390.20938Q100.52812 390.99063 100.52812 393.11563Z" fill-rule="nonzero"/><path fill="#000000" d="M66.99687 291.63437L66.99687 292.65L61.309376 292.65Q61.309376 292.275 61.434376 291.91562Q61.653126 291.3375 62.121876 290.775Q62.60625 290.2125 63.5125 289.47812Q64.91875 288.32187 65.40312 287.65Q65.90312 286.97812 65.90312 286.38437Q65.90312 285.75937 65.45 285.3375Q64.99687 284.9 64.27812 284.9Q63.5125 284.9 63.059376 285.35312Q62.60625 285.80624 62.590626 286.61874L61.5125 286.50937Q61.621876 285.29062 62.340626 284.66562Q63.075 284.025 64.30937 284.025Q65.54375 284.025 66.2625 284.7125Q66.98125 285.4 66.98125 286.41562Q66.98125 286.93124 66.7625 287.43124Q66.55937 287.91562 66.05937 288.47812Q65.575 289.025 64.45 289.97812Q63.496876 290.775 63.215626 291.07187Q62.95 291.35312 62.778126 291.63437L66.99687 291.63437ZM68.45 288.41562Q68.45 286.88437 68.7625 285.9625Q69.075 285.025 69.68437 284.525Q70.30937 284.025 71.24687 284.025Q71.93437 284.025 72.45 284.30624Q72.98125 284.5875 73.325 285.11874Q73.66875 285.63437 73.85625 286.38437Q74.04375 287.13437 74.04375 288.41562Q74.04375 289.93124 73.73125 290.85312Q73.43437 291.775 72.80937 292.29062Q72.2 292.79062 71.24687 292.79062Q70.0125 292.79062 69.29375 291.9Q68.45 290.8375 68.45 288.41562ZM69.52812 288.41562Q69.52812 290.525 70.02812 291.22812Q70.52812 291.93124 71.24687 291.93124Q71.98125 291.93124 72.46562 291.22812Q72.96562 290.525 72.96562 288.41562Q72.96562 286.29062 72.46562 285.60312Q71.98125 284.9 71.23125 284.9Q70.5125 284.9 70.075 285.50937Q69.52812 286.29062 69.52812 288.41562ZM75.45 288.41562Q75.45 286.88437 75.7625 285.9625Q76.075 285.025 76.68437 284.525Q77.30937 284.025 78.24687 284.025Q78.93437 284.025 79.45 284.30624Q79.98125 284.5875 80.325 285.11874Q80.66875 285.63437 80.85625 286.38437Q81.04375 287.13437 81.04375 288.41562Q81.04375 289.93124 80.73125 290.85312Q80.43437 291.775 79.80937 292.29062Q79.2 292.79062 78.24687 292.79062Q77.0125 292.79062 76.29375 291.9Q75.45 290.8375 75.45 288.41562ZM76.52812 288.41562Q76.52812 290.525 77.02812 291.22812Q77.52812 291.93124 78.24687 291.93124Q78.98125 291.93124 79.46562 291.22812Q79.96562 290.525 79.96562 288.41562Q79.96562 286.29062 79.46562 285.60312Q78.98125 284.9 78.23125 284.9Q77.5125 284.9 77.075 285.50937Q76.52812 286.29062 76.52812 288.41562ZM82.45 288.41562Q82.45 286.88437 82.7625 285.9625Q83.075 285.025 83.68437 284.525Q84.30937 284.025 85.24687 284.025Q85.93437 284.025 86.45 284.30624Q86.98125 284.5875 87.325 285.11874Q87.66875 285.63437 87.85625 286.38437Q88.04375 287.13437 88.04375 288.41562Q88.04375 289.93124 87.73125 290.85312Q87.43437 291.775 86.80937 292.29062Q86.2 292.79062 85.24687 292.79062Q84.0125 292.79062 83.29375 291.9Q82.45 290.8375 82.45 288.41562ZM83.52812 288.41562Q83.52812 290.525 84.02812 291.22812Q84.52812 291.93124 85.24687 291.93124Q85.98125 291.93124 86.46562 291.22812Q86.96562 290.525 86.96562 288.41562Q86.96562 286.29062 86.46562 285.60312Q85.98125 284.9 85.23125 284.9Q84.5125 284.9 84.075 285.50937Q83.52812 286.29062 83.52812 288.41562ZM90.04375 292.65L90.04375 291.44687L91.24687 291.44687L91.24687 292.65L90.04375 292.65ZM92.45 288.41562Q92.45 286.88437 92.7625 285.9625Q93.075 285.025 93.68437 284.525Q94.30937 284.025 95.24687 284.025Q95.93437 284.025 96.45 284.30624Q96.98125 284.5875 97.325 285.11874Q97.66875 285.63437 97.85625 286.38437Q98.04375 287.13437 98.04375 288.41562Q98.04375 289.93124 97.73125 290.85312Q97.43437 291.775 96.80937 292.29062Q96.2 292.79062 95.24687 292.79062Q94.0125 292.79062 93.29375 291.9Q92.45 290.8375 92.45 288.41562ZM93.52812 288.41562Q93.52812 290.525 94.02812 291.22812Q94.52812 291.93124 95.24687 291.93124Q95.98125 291.93124 96.46562 291.22812Q96.96562 290.525 96.96562 288.41562Q96.96562 286.29062 96.46562 285.60312Q95.98125 284.9 95.23125 284.9Q94.5125 284.9 94.075 285.50937Q93.52812 286.29062 93.52812 288.41562ZM99.45 288.41562Q99.45 286.88437 99.7625 285.9625Q100.075 285.025 100.68437 284.525Q101.30937 284.025 102.24687 284.025Q102.93437 284.025 103.45 284.30624Q103.98125 284.5875 104.325 285.11874Q104.66875 285.63437 104.85625 286.38437Q105.04375 287.13437 105.04375 288.41562Q105.04375 289.93124 104.73125 290.85312Q104.43437 291.775 103.80937 292.29062Q103.2 292.79062 102.24687 292.79062Q101.0125 292.79062 100.29375 291.9Q99.45 290.8375 99.45 288.41562ZM100.52812 288.41562Q100.52812 290.525 101.02812 291.22812Q101.52812 291.93124 102.24687 291.93124Q102.98125 291.93124 103.46562 291.22812Q103.96562 290.525 103.96562 288.41562Q103.96562 286.29062 103.46562 285.60312Q102.98125 284.9 102.23125 284.9Q101.5125 284.9 101.075 285.50937Q100.52812 286.29062 100.52812 288.41562Z" fill-rule="nonzero"/><path fill="#000000" d="M61.45 185.68437L62.5125 185.54375Q62.684376 186.43437 63.121876 186.84062Q63.559376 187.23125 64.18437 187.23125Q64.93437 187.23125 65.45 186.71562Q65.96562 186.2 65.96562 185.43437Q65.96562 184.71562 65.48125 184.24687Q65.0125 183.7625 64.27812 183.7625Q63.98125 183.7625 63.528126 183.8875L63.653126 182.95Q63.7625 182.96562 63.825 182.96562Q64.49687 182.96562 65.02812 182.62187Q65.575 182.2625 65.575 181.52812Q65.575 180.95 65.18437 180.575Q64.79375 180.18437 64.16875 180.18437Q63.559376 180.18437 63.1375 180.575Q62.73125 180.96562 62.621876 181.73125L61.559376 181.54375Q61.746876 180.49687 62.434376 179.91875Q63.121876 179.325 64.1375 179.325Q64.84062 179.325 65.43437 179.6375Q66.02812 179.93437 66.34062 180.45Q66.65312 180.96562 66.65312 181.55937Q66.65312 182.10625 66.35625 182.575Q66.05937 183.02812 65.48125 183.29375Q66.23125 183.46562 66.65312 184.02812Q67.075 184.575 67.075 185.41875Q67.075 186.54375 66.24687 187.325Q65.43437 188.10625 64.18437 188.10625Q63.059376 188.10625 62.309376 187.43437Q61.559376 186.74687 61.45 185.68437ZM68.45 183.71562Q68.45 182.18437 68.7625 181.2625Q69.075 180.325 69.68437 179.825Q70.30937 179.325 71.24687 179.325Q71.93437 179.325 72.45 179.60625Q72.98125 179.8875 73.325 180.41875Q73.66875 180.93437 73.85625 181.68437Q74.04375 182.43437 74.04375 183.71562Q74.04375 185.23125 73.73125 186.15312Q73.43437 187.075 72.80937 187.59062Q72.2 188.09062 71.24687 188.09062Q70.0125 188.09062 69.29375 187.2Q68.45 186.1375 68.45 183.71562ZM69.52812 183.71562Q69.52812 185.825 70.02812 186.52812Q70.52812 187.23125 71.24687 187.23125Q71.98125 187.23125 72.46562 186.52812Q72.96562 185.825 72.96562 183.71562Q72.96562 181.59062 72.46562 180.90312Q71.98125 180.2 71.23125 180.2Q70.5125 180.2 70.075 180.80937Q69.52812 181.59062 69.52812 183.71562ZM75.45 183.71562Q75.45 182.18437 75.7625 181.2625Q76.075 180.325 76.68437 179.825Q77.30937 179.325 78.24687 179.325Q78.93437 179.325 79.45 179.60625Q79.98125 179.8875 80.325 180.41875Q80.66875 180.93437 80.85625 181.68437Q81.04375 182.43437 81.04375 183.71562Q81.04375 185.23125 80.73125 186.15312Q80.43437 187.075 79.80937 187.59062Q79.2 188.09062 78.24687 188.09062Q77.0125 188.09062 76.29375 187.2Q75.45 186.1375 75.45 183.71562ZM76.52812 183.71562Q76.52812 185.825 77.02812 186.52812Q77.52812 187.23125 78.24687 187.23125Q78.98125 187.23125 79.46562 186.52812Q79.96562 185.825 79.96562 183.71562Q79.96562 181.59062 79.46562 180.90312Q78.98125 180.2 78.23125 180.2Q77.5125 180.2 77.075 180.80937Q76.52812 181.59062 76.52812 183.71562ZM82.45 183.71562Q82.45 182.18437 82.7625 181.2625Q83.075 180.325 83.68437 179.825Q84.30937 179.325 85.24687 179.325Q85.93437 179.325 86.45 179.60625Q86.98125 179.8875 87.325 180.41875Q87.66875 180.93437 87.85625 181.68437Q88.04375 182.43437 88.04375 183.71562Q88.04375 185.23125 87.73125 186.15312Q87.43437 187.075 86.80937 187.59062Q86.2 188.09062 85.24687 188.09062Q84.0125 188.09062 83.29375 187.2Q82.45 186.1375 82.45 183.71562ZM83.52812 183.71562Q83.52812 185.825 84.02812 186.52812Q84.52812 187.23125 85.24687 187.23125Q85.98125 187.23125 86.46562 186.52812Q86.96562 185.825 86.96562 183.71562Q86.96562 181.59062 86.46562 180.90312Q85.98125 180.2 85.23125 180.2Q84.5125 180.2 84.075 180.80937Q83.52812 181.59062 83.52812 183.71562ZM90.04375 187.95L90.04375 186.74687L91.24687 186.74687L91.24687 187.95L90.04375 187.95ZM92.45 183.71562Q92.45 182.18437 92.7625 181.2625Q93.075 180.325 93.68437 179.825Q94.30937 179.325 95.24687 179.325Q95.93437 179.325 96.45 179.60625Q96.98125 179.8875 97.325 180.41875Q97.66875 180.93437 97.85625 181.68437Q98.04375 182.43437 98.04375 183.71562Q98.04375 185.23125 97.73125 186.15312Q97.43437 187.075 96.80937 187.59062Q96.2 188.09062 95.24687 188.09062Q94.0125 188.09062 93.29375 187.2Q92.45 186.1375 92.45 183.71562ZM93.52812 183.71562Q93.52812 185.825 94.02812 186.52812Q94.52812 187.23125 95.24687 187.23125Q95.98125 187.23125 96.46562 186.52812Q96.96562 185.825 96.96562 183.71562Q96.96562 181.59062 96.46562 180.90312Q95.98125 180.2 95.23125 180.2Q94.5125 180.2 94.075 180.80937Q93.52812 181.59062 93.52812 183.71562ZM99.45 183.71562Q99.45 182.18437 99.7625 181.2625Q100.075 180.325 100.68437 179.825Q101.30937 179.325 102.24687 179.325Q102.93437 179.325 103.45 179.60625Q103.98125 179.8875 104.325 180.41875Q104.66875 180.93437 104.85625 181.68437Q105.04375 182.43437 105.04375 183.71562Q105.04375 185.23125 104.73125 186.15312Q104.43437 187.075 103.80937 187.59062Q103.2 188.09062 102.24687 188.09062Q101.0125 188.09062 100.29375 187.2Q99.45 186.1375 99.45 183.71562ZM100.52812 183.71562Q100.52812 185.825 101.02812 186.52812Q101.52812 187.23125 102.24687 187.23125Q102.98125 187.23125 103.46562 186.52812Q103.96562 185.825 103.96562 183.71562Q103.96562 181.59062 103.46562 180.90312Q102.98125 180.2 102.23125 180.2Q101.5125 180.2 101.075 180.80937Q100.52812 181.59062 100.52812 183.71562Z" fill-rule="nonzero"/><path fill="#000000" d="M64.825 83.25L64.825 81.1875L61.10625 81.1875L61.10625 80.21875L65.02812 74.65625L65.8875 74.65625L65.8875 80.21875L67.04375 80.21875L67.04375 81.1875L65.8875 81.1875L65.8875 83.25L64.825 83.25ZM64.825 80.21875L64.825 76.359375L62.1375 80.21875L64.825 80.21875ZM68.45 79.015625Q68.45 77.484375 68.7625 76.5625Q69.075 75.625 69.68437 75.125Q70.30937 74.625 71.24687 74.625Q71.93437 74.625 72.45 74.90625Q72.98125 75.1875 73.325 75.71875Q73.66875 76.234375 73.85625 76.984375Q74.04375 77.734375 74.04375 79.015625Q74.04375 80.53125 73.73125 81.453125Q73.43437 82.375 72.80937 82.890625Q72.2 83.390625 71.24687 83.390625Q70.0125 83.390625 69.29375 82.5Q68.45 81.4375 68.45 79.015625ZM69.52812 79.015625Q69.52812 81.125 70.02812 81.828125Q70.52812 82.53125 71.24687 82.53125Q71.98125 82.53125 72.46562 81.828125Q72.96562 81.125 72.96562 79.015625Q72.96562 76.890625 72.46562 76.203125Q71.98125 75.5 71.23125 75.5Q70.5125 75.5 70.075 76.109375Q69.52812 76.890625 69.52812 79.015625ZM75.45 79.015625Q75.45 77.484375 75.7625 76.5625Q76.075 75.625 76.68437 75.125Q77.30937 74.625 78.24687 74.625Q78.93437 74.625 79.45 74.90625Q79.98125 75.1875 80.325 75.71875Q80.66875 76.234375 80.85625 76.984375Q81.04375 77.734375 81.04375 79.015625Q81.04375 80.53125 80.73125 81.453125Q80.43437 82.375 79.80937 82.890625Q79.2 83.390625 78.24687 83.390625Q77.0125 83.390625 76.29375 82.5Q75.45 81.4375 75.45 79.015625ZM76.52812 79.015625Q76.52812 81.125 77.02812 81.828125Q77.52812 82.53125 78.24687 82.53125Q78.98125 82.53125 79.46562 81.828125Q79.96562 81.125 79.96562 79.015625Q79.96562 76.890625 79.46562 76.203125Q78.98125 75.5 78.23125 75.5Q77.5125 75.5 77.075 76.109375Q76.52812 76.890625 76.52812 79.015625ZM82.45 79.015625Q82.45 77.484375 82.7625 76.5625Q83.075 75.625 83.68437 75.125Q84.30937 74.625 85.24687 74.625Q85.93437 74.625 86.45 74.90625Q86.98125 75.1875 87.325 75.71875Q87.66875 76.234375 87.85625 76.984375Q88.04375 77.734375 88.04375 79.015625Q88.04375 80.53125 87.73125 81.453125Q87.43437 82.375 86.80937 82.890625Q86.2 83.390625 85.24687 83.390625Q84.0125 83.390625 83.29375 82.5Q82.45 81.4375 82.45 79.015625ZM83.52812 79.015625Q83.52812 81.125 84.02812 81.828125Q84.52812 82.53125 85.24687 82.53125Q85.98125 82.53125 86.46562 81.828125Q86.96562 81.125 86.96562 79.015625Q86.96562 76.890625 86.46562 76.203125Q85.98125 75.5 85.23125 75.5Q84.5125 75.5 84.075 76.109375Q83.52812 76.890625 83.52812 79.015625ZM90.04375 83.25L90.04375 82.046875L91.24687 82.046875L91.24687 83.25L90.04375 83.25ZM92.45 79.015625Q92.45 77.484375 92.7625 76.5625Q93.075 75.625 93.68437 75.125Q94.30937 74.625 95.24687 74.625Q95.93437 74.625 96.45 74.90625Q96.98125 75.1875 97.325 75.71875Q97.66875 76.234375 97.85625 76.984375Q98.04375 77.734375 98.04375 79.015625Q98.04375 80.53125 97.73125 81.453125Q97.43437 82.375 96.80937 82.890625Q96.2 83.390625 95.24687 83.390625Q94.0125 83.390625 93.29375 82.5Q92.45 81.4375 92.45 79.015625ZM93.52812 79.015625Q93.52812 81.125 94.02812 81.828125Q94.52812 82.53125 95.24687 82.53125Q95.98125 82.53125 96.46562 81.828125Q96.96562 81.125 96.96562 79.015625Q96.96562 76.890625 96.46562 76.203125Q95.98125 75.5 95.23125 75.5Q94.5125 75.5 94.075 76.109375Q93.52812 76.890625 93.52812 79.015625ZM99.45 79.015625Q99.45 77.484375 99.7625 76.5625Q100.075 75.625 100.68437 75.125Q101.30937 74.625 102.24687 74.625Q102.93437 74.625 103.45 74.90625Q103.98125 75.1875 104.325 75.71875Q104.66875 76.234375 104.85625 76.984375Q105.04375 77.734375 105.04375 79.015625Q105.04375 80.53125 104.73125 81.453125Q104.43437 82.375 103.80937 82.890625Q103.2 83.390625 102.24687 83.390625Q101.0125 83.390625 100.29375 82.5Q99.45 81.4375 99.45 79.015625ZM100.52812 79.015625Q100.52812 81.125 101.02812 81.828125Q101.52812 82.53125 102.24687 82.53125Q102.98125 82.53125 103.46562 81.828125Q103.96562 81.125 103.96562 79.015625Q103.96562 76.890625 103.46562 76.203125Q102.98125 75.5 102.23125 75.5Q101.5125 75.5 101.075 76.109375Q100.52812 76.890625 100.52812 79.015625Z" fill-rule="nonzero"/><path fill="#000000" d="M108.95 510.8156Q108.95 509.28436 109.2625 508.3625Q109.575 507.425 110.18437 506.925Q110.80937 506.425 111.74687 506.425Q112.43437 506.425 112.95 506.70624Q113.48125 506.9875 113.825 507.51874Q114.16875 508.03436 114.35625 508.78436Q114.54375 509.53436 114.54375 510.8156Q114.54375 512.33124 114.23125 513.2531Q113.93437 514.175 113.30937 514.6906Q112.7 515.1906 111.74687 515.1906Q110.5125 515.1906 109.79375 514.3Q108.95 513.2375 108.95 510.8156ZM110.02812 510.8156Q110.02812 512.925 110.52812 513.6281Q111.02812 514.33124 111.74687 514.33124Q112.48125 514.33124 112.96562 513.6281Q113.46562 512.925 113.46562 510.8156Q113.46562 508.6906 112.96562 508.0031Q112.48125 507.3 111.73125 507.3Q111.0125 507.3 110.575 507.90936Q110.02812 508.6906 110.02812 510.8156Z" fill-rule="nonzero"/><path fill="#000000" d="M260.10715 512.78436L261.16965 512.64374Q261.34152 513.53436 261.77902 513.9406Q262.21652 514.33124 262.84152 514.33124Q263.59152 514.33124 264.10715 513.8156Q264.62277 513.3 264.62277 512.53436Q264.62277 511.8156 264.1384 511.34686Q263.66965 510.8625 262.93527 510.8625Q262.6384 510.8625 262.18527 510.9875L262.31027 510.05Q262.41965 510.0656 262.48215 510.0656Q263.15402 510.0656 263.68527 509.72186Q264.23215 509.3625 264.23215 508.6281Q264.23215 508.05 263.84152 507.675Q263.4509 507.28436 262.8259 507.28436Q262.21652 507.28436 261.79465 507.675Q261.3884 508.0656 261.27902 508.83124L260.21652 508.64374Q260.40402 507.59686 261.09152 507.01874Q261.77902 506.425 262.79465 506.425Q263.49777 506.425 264.09152 506.7375Q264.68527 507.03436 264.99777 507.55Q265.31027 508.0656 265.31027 508.65936Q265.31027 509.20624 265.0134 509.675Q264.71652 510.1281 264.1384 510.39374Q264.8884 510.5656 265.31027 511.1281Q265.73215 511.675 265.73215 512.51874Q265.73215 513.64374 264.90402 514.425Q264.09152 515.20624 262.84152 515.20624Q261.71652 515.20624 260.96652 514.53436Q260.21652 513.84686 260.10715 512.78436ZM272.5759 508.5656L271.52902 508.64374Q271.3884 508.01874 271.1384 507.7375Q270.7009 507.28436 270.0759 507.28436Q269.5759 507.28436 269.18527 507.5656Q268.7009 507.9406 268.40402 508.64374Q268.12277 509.33124 268.10715 510.6125Q268.48215 510.03436 269.02902 509.7531Q269.59152 509.47186 270.2009 509.47186Q271.24777 509.47186 271.98215 510.2531Q272.73215 511.03436 272.73215 512.2531Q272.73215 513.0656 272.37277 513.76874Q272.02902 514.45624 271.41965 514.83124Q270.81027 515.1906 270.04465 515.1906Q268.71652 515.1906 267.8884 514.22186Q267.06027 513.2531 267.06027 511.03436Q267.06027 508.53436 267.98215 507.40936Q268.77902 506.425 270.1384 506.425Q271.15402 506.425 271.79465 507.0031Q272.4509 507.5656 272.5759 508.5656ZM268.27902 512.26874Q268.27902 512.8156 268.49777 513.3156Q268.73215 513.8 269.1384 514.0656Q269.56027 514.33124 270.02902 514.33124Q270.68527 514.33124 271.16965 513.8Q271.65402 513.2531 271.65402 512.33124Q271.65402 511.4406 271.16965 510.925Q270.7009 510.40936 269.98215 510.40936Q269.2634 510.40936 268.7634 510.925Q268.27902 511.4406 268.27902 512.26874ZM274.10715 512.8L275.21652 512.70624Q275.34152 513.51874 275.77902 513.925Q276.23215 514.33124 276.87277 514.33124Q277.62277 514.33124 278.15402 513.7531Q278.68527 513.175 278.68527 512.2375Q278.68527 511.33124 278.16965 510.8156Q277.66965 510.28436 276.84152 510.28436Q276.34152 510.28436 275.91965 510.51874Q275.5134 510.7531 275.27902 511.1125L274.29465 510.9875L275.12277 506.58124L279.40402 506.58124L279.40402 507.58124L275.96652 507.58124L275.5134 509.89374Q276.27902 509.34686 277.12277 509.34686Q278.24777 509.34686 279.0134 510.1281Q279.79465 510.90936 279.79465 512.14374Q279.79465 513.3 279.12277 514.15936Q278.29465 515.1906 276.87277 515.1906Q275.7009 515.1906 274.9509 514.53436Q274.21652 513.8781 274.10715 512.8Z" fill-rule="nonzero"/><path fill="#000000" d="M418.32678 507.58124L418.32678 506.5656L423.88928 506.5656L423.88928 507.39374Q423.07678 508.26874 422.26428 509.72186Q421.4674 511.15936 421.0299 512.6906Q420.70178 513.76874 420.62366 515.05L419.5299 515.05Q419.54553 514.03436 419.92053 512.59686Q420.31116 511.15936 421.01428 509.83124Q421.73303 508.5031 422.54553 507.58124L418.32678 507.58124ZM425.26428 512.78436L426.32678 512.64374Q426.49866 513.53436 426.93616 513.9406Q427.37366 514.33124 427.99866 514.33124Q428.74866 514.33124 429.26428 513.8156Q429.7799 513.3 429.7799 512.53436Q429.7799 511.8156 429.29553 511.34686Q428.82678 510.8625 428.0924 510.8625Q427.79553 510.8625 427.3424 510.9875L427.4674 510.05Q427.57678 510.0656 427.63928 510.0656Q428.31116 510.0656 428.8424 509.72186Q429.38928 509.3625 429.38928 508.6281Q429.38928 508.05 428.99866 507.675Q428.60803 507.28436 427.98303 507.28436Q427.37366 507.28436 426.95178 507.675Q426.54553 508.0656 426.43616 508.83124L425.37366 508.64374Q425.56116 507.59686 426.24866 507.01874Q426.93616 506.425 427.95178 506.425Q428.6549 506.425 429.24866 506.7375Q429.8424 507.03436 430.1549 507.55Q430.4674 508.0656 430.4674 508.65936Q430.4674 509.20624 430.17053 509.675Q429.87366 510.1281 429.29553 510.39374Q430.04553 510.5656 430.4674 511.1281Q430.88928 511.675 430.88928 512.51874Q430.88928 513.64374 430.06116 514.425Q429.24866 515.20624 427.99866 515.20624Q426.87366 515.20624 426.12366 514.53436Q425.37366 513.84686 425.26428 512.78436ZM432.26428 510.8156Q432.26428 509.28436 432.57678 508.3625Q432.88928 507.425 433.49866 506.925Q434.12366 506.425 435.06116 506.425Q435.74866 506.425 436.26428 506.70624Q436.79553 506.9875 437.13928 507.51874Q437.48303 508.03436 437.67053 508.78436Q437.85803 509.53436 437.85803 510.8156Q437.85803 512.33124 437.54553 513.2531Q437.24866 514.175 436.62366 514.6906Q436.01428 515.1906 435.06116 515.1906Q433.82678 515.1906 433.10803 514.3Q432.26428 513.2375 432.26428 510.8156ZM433.3424 510.8156Q433.3424 512.925 433.8424 513.6281Q434.3424 514.33124 435.06116 514.33124Q435.79553 514.33124 436.2799 513.6281Q436.7799 512.925 436.7799 510.8156Q436.7799 508.6906 436.2799 508.0031Q435.79553 507.3 435.04553 507.3Q434.32678 507.3 433.88928 507.90936Q433.3424 508.6906 433.3424 510.8156Z" fill-rule="nonzero"/><path fill="#000000" d="M576.8902 515.05L575.8433 515.05L575.8433 508.33124Q575.4527 508.6906 574.8277 509.0656Q574.2183 509.425 573.73395 509.59686L573.73395 508.58124Q574.60895 508.15936 575.2652 507.58124Q575.9371 506.9875 576.2183 506.425L576.8902 506.425L576.8902 515.05ZM579.92145 510.8156Q579.92145 509.28436 580.23395 508.3625Q580.54645 507.425 581.1558 506.925Q581.7808 506.425 582.7183 506.425Q583.4058 506.425 583.92145 506.70624Q584.4527 506.9875 584.79645 507.51874Q585.1402 508.03436 585.3277 508.78436Q585.5152 509.53436 585.5152 510.8156Q585.5152 512.33124 585.2027 513.2531Q584.9058 514.175 584.2808 514.6906Q583.67145 515.1906 582.7183 515.1906Q581.48395 515.1906 580.7652 514.3Q579.92145 513.2375 579.92145 510.8156ZM580.9996 510.8156Q580.9996 512.925 581.4996 513.6281Q581.9996 514.33124 582.7183 514.33124Q583.4527 514.33124 583.9371 513.6281Q584.4371 512.925 584.4371 510.8156Q584.4371 508.6906 583.9371 508.0031Q583.4527 507.3 582.7027 507.3Q581.98395 507.3 581.54645 507.90936Q580.9996 508.6906 580.9996 510.8156ZM587.0777 513.0656L588.0933 512.97186Q588.2183 513.6906 588.5777 514.01874Q588.9527 514.33124 589.5152 514.33124Q589.9996 514.33124 590.35895 514.1125Q590.73395 513.8781 590.9683 513.51874Q591.2027 513.14374 591.35895 512.51874Q591.5152 511.8781 591.5152 511.22186Q591.5152 511.14374 591.5152 511.0031Q591.2027 511.5031 590.6558 511.83124Q590.10895 512.14374 589.4683 512.14374Q588.3902 512.14374 587.6558 511.3781Q586.92145 510.59686 586.92145 509.33124Q586.92145 508.01874 587.6871 507.22186Q588.4683 506.425 589.6246 506.425Q590.4527 506.425 591.1402 506.8781Q591.8433 507.33124 592.2027 508.175Q592.5621 509.0031 592.5621 510.58124Q592.5621 512.22186 592.2027 513.20624Q591.85895 514.175 591.1402 514.6906Q590.4371 515.1906 589.4996 515.1906Q588.48395 515.1906 587.8433 514.64374Q587.2027 514.08124 587.0777 513.0656ZM591.3902 509.26874Q591.3902 508.3625 590.9058 507.83124Q590.4371 507.3 589.7496 507.3Q589.04645 507.3 588.5152 507.8781Q587.9996 508.4406 587.9996 509.3625Q587.9996 510.175 588.4996 510.6906Q588.9996 511.20624 589.7183 511.20624Q590.4527 511.20624 590.92145 510.6906Q591.3902 510.175 591.3902 509.26874ZM593.92145 512.8L595.0308 512.70624Q595.1558 513.51874 595.5933 513.925Q596.04645 514.33124 596.6871 514.33124Q597.4371 514.33124 597.9683 513.7531Q598.4996 513.175 598.4996 512.2375Q598.4996 511.33124 597.98395 510.8156Q597.48395 510.28436 596.6558 510.28436Q596.1558 510.28436 595.73395 510.51874Q595.3277 510.7531 595.0933 511.1125L594.10895 510.9875L594.9371 506.58124L599.2183 506.58124L599.2183 507.58124L595.7808 507.58124L595.3277 509.89374Q596.0933 509.34686 596.9371 509.34686Q598.0621 509.34686 598.8277 510.1281Q599.60895 510.90936 599.60895 512.14374Q599.60895 513.3 598.9371 514.15936Q598.10895 515.1906 596.6871 515.1906Q595.5152 515.1906 594.7652 514.53436Q594.0308 513.8781 593.92145 512.8Z" fill-rule="nonzero"/><path fill="#000000" d="M735.0473 515.05L734.0004 515.05L734.0004 508.33124Q733.6098 508.6906 732.9848 509.0656Q732.3754 509.425 731.89105 509.59686L731.89105 508.58124Q732.76605 508.15936 733.4223 507.58124Q734.0942 506.9875 734.3754 506.425L735.0473 506.425L735.0473 515.05ZM741.45355 515.05L741.45355 512.9875L737.7348 512.9875L737.7348 512.01874L741.6567 506.45624L742.51605 506.45624L742.51605 512.01874L743.6723 512.01874L743.6723 512.9875L742.51605 512.9875L742.51605 515.05L741.45355 515.05ZM741.45355 512.01874L741.45355 508.15936L738.76605 512.01874L741.45355 512.01874ZM750.5473 508.5656L749.5004 508.64374Q749.3598 508.01874 749.1098 507.7375Q748.6723 507.28436 748.0473 507.28436Q747.5473 507.28436 747.1567 507.5656Q746.6723 507.9406 746.3754 508.64374Q746.0942 509.33124 746.07855 510.6125Q746.45355 510.03436 747.0004 509.7531Q747.5629 509.47186 748.1723 509.47186Q749.2192 509.47186 749.95355 510.2531Q750.70355 511.03436 750.70355 512.2531Q750.70355 513.0656 750.3442 513.76874Q750.0004 514.45624 749.39105 514.83124Q748.7817 515.1906 748.01605 515.1906Q746.6879 515.1906 745.8598 514.22186Q745.0317 513.2531 745.0317 511.03436Q745.0317 508.53436 745.95355 507.40936Q746.7504 506.425 748.1098 506.425Q749.1254 506.425 749.76605 507.0031Q750.4223 507.5656 750.5473 508.5656ZM746.2504 512.26874Q746.2504 512.8156 746.4692 513.3156Q746.70355 513.8 747.1098 514.0656Q747.5317 514.33124 748.0004 514.33124Q748.6567 514.33124 749.14105 513.8Q749.6254 513.2531 749.6254 512.33124Q749.6254 511.4406 749.14105 510.925Q748.6723 510.40936 747.95355 510.40936Q747.2348 510.40936 746.7348 510.925Q746.2504 511.4406 746.2504 512.26874ZM752.07855 510.8156Q752.07855 509.28436 752.39105 508.3625Q752.70355 507.425 753.3129 506.925Q753.9379 506.425 754.8754 506.425Q755.5629 506.425 756.07855 506.70624Q756.6098 506.9875 756.95355 507.51874Q757.2973 508.03436 757.4848 508.78436Q757.6723 509.53436 757.6723 510.8156Q757.6723 512.33124 757.3598 513.2531Q757.0629 514.175 756.4379 514.6906Q755.82855 515.1906 754.8754 515.1906Q753.64105 515.1906 752.9223 514.3Q752.07855 513.2375 752.07855 510.8156ZM753.1567 510.8156Q753.1567 512.925 753.6567 513.6281Q754.1567 514.33124 754.8754 514.33124Q755.6098 514.33124 756.0942 513.6281Q756.5942 512.925 756.5942 510.8156Q756.5942 508.6906 756.0942 508.0031Q755.6098 507.3 754.8598 507.3Q754.14105 507.3 753.70355 507.90936Q753.1567 508.6906 753.1567 510.8156Z" fill-rule="nonzero"/><path fill="#000000" d="M893.20447 515.05L892.1576 515.05L892.1576 508.33124Q891.76697 508.6906 891.14197 509.0656Q890.5326 509.425 890.0482 509.59686L890.0482 508.58124Q890.9232 508.15936 891.57947 507.58124Q892.25134 506.9875 892.5326 506.425L893.20447 506.425L893.20447 515.05ZM897.8607 510.39374Q897.20447 510.14374 896.87634 509.70624Q896.56384 509.2531 896.56384 508.64374Q896.56384 507.70624 897.2357 507.0656Q897.9232 506.425 899.0326 506.425Q900.1576 506.425 900.8451 507.08124Q901.5326 507.7375 901.5326 508.675Q901.5326 509.26874 901.2201 509.70624Q900.9076 510.14374 900.26697 510.39374Q901.06384 510.64374 901.4701 511.22186Q901.87634 511.8 901.87634 512.59686Q901.87634 513.6906 901.0951 514.4406Q900.32947 515.1906 899.0482 515.1906Q897.7826 515.1906 897.00134 514.4406Q896.2201 513.6906 896.2201 512.5656Q896.2201 511.72186 896.64197 511.15936Q897.07947 510.59686 897.8607 510.39374ZM897.64197 508.59686Q897.64197 509.20624 898.0326 509.59686Q898.43884 509.9875 899.06384 509.9875Q899.6732 509.9875 900.06384 509.6125Q900.45447 509.22186 900.45447 508.65936Q900.45447 508.08124 900.0482 507.6906Q899.64197 507.28436 899.0482 507.28436Q898.43884 507.28436 898.0326 507.675Q897.64197 508.0656 897.64197 508.59686ZM897.31384 512.5656Q897.31384 513.01874 897.51697 513.4406Q897.7357 513.8625 898.1576 514.09686Q898.57947 514.33124 899.06384 514.33124Q899.81384 514.33124 900.2982 513.84686Q900.7982 513.3625 900.7982 512.6125Q900.7982 511.84686 900.2982 511.34686Q899.7982 510.84686 899.0326 510.84686Q898.2826 510.84686 897.7982 511.34686Q897.31384 511.83124 897.31384 512.5656ZM908.7826 514.03436L908.7826 515.05L903.0951 515.05Q903.0951 514.675 903.2201 514.3156Q903.43884 513.7375 903.9076 513.175Q904.39197 512.6125 905.2982 511.8781Q906.70447 510.72186 907.18884 510.05Q907.68884 509.3781 907.68884 508.78436Q907.68884 508.15936 907.2357 507.7375Q906.7826 507.3 906.06384 507.3Q905.2982 507.3 904.8451 507.7531Q904.39197 508.20624 904.37634 509.01874L903.2982 508.90936Q903.4076 507.6906 904.12634 507.0656Q904.8607 506.425 906.0951 506.425Q907.32947 506.425 908.0482 507.1125Q908.76697 507.8 908.76697 508.8156Q908.76697 509.33124 908.5482 509.83124Q908.3451 510.3156 907.8451 510.8781Q907.3607 511.425 906.2357 512.3781Q905.2826 513.175 905.00134 513.47186Q904.7357 513.7531 904.56384 514.03436L908.7826 514.03436ZM910.2357 512.8L911.3451 512.70624Q911.4701 513.51874 911.9076 513.925Q912.3607 514.33124 913.00134 514.33124Q913.75134 514.33124 914.2826 513.7531Q914.81384 513.175 914.81384 512.2375Q914.81384 511.33124 914.2982 510.8156Q913.7982 510.28436 912.9701 510.28436Q912.4701 510.28436 912.0482 510.51874Q911.64197 510.7531 911.4076 511.1125L910.4232 510.9875L911.25134 506.58124L915.5326 506.58124L915.5326 507.58124L912.0951 507.58124L911.64197 509.89374Q912.4076 509.34686 913.25134 509.34686Q914.37634 509.34686 915.14197 510.1281Q915.9232 510.90936 915.9232 512.14374Q915.9232 513.3 915.25134 514.15936Q914.4232 515.1906 913.00134 515.1906Q911.82947 515.1906 911.07947 514.53436Q910.3451 513.8781 910.2357 512.8Z" fill-rule="nonzero"/><path fill="#000000" d="M1052.9397 514.03436L1052.9397 515.05L1047.2522 515.05Q1047.2522 514.675 1047.3772 514.3156Q1047.596 513.7375 1048.0647 513.175Q1048.5491 512.6125 1049.4553 511.8781Q1050.8616 510.72186 1051.346 510.05Q1051.846 509.3781 1051.846 508.78436Q1051.846 508.15936 1051.3928 507.7375Q1050.9397 507.3 1050.221 507.3Q1049.4553 507.3 1049.0022 507.7531Q1048.5491 508.20624 1048.5334 509.01874L1047.4553 508.90936Q1047.5647 507.6906 1048.2834 507.0656Q1049.0178 506.425 1050.2522 506.425Q1051.4866 506.425 1052.2053 507.1125Q1052.9241 507.8 1052.9241 508.8156Q1052.9241 509.33124 1052.7053 509.83124Q1052.5022 510.3156 1052.0022 510.8781Q1051.5178 511.425 1050.3928 512.3781Q1049.4397 513.175 1049.1584 513.47186Q1048.8928 513.7531 1048.721 514.03436L1052.9397 514.03436ZM1058.3616 515.05L1057.3147 515.05L1057.3147 508.33124Q1056.9241 508.6906 1056.2991 509.0656Q1055.6897 509.425 1055.2053 509.59686L1055.2053 508.58124Q1056.0803 508.15936 1056.7366 507.58124Q1057.4084 506.9875 1057.6897 506.425L1058.3616 506.425L1058.3616 515.05ZM1061.5491 513.0656L1062.5647 512.97186Q1062.6897 513.6906 1063.0491 514.01874Q1063.4241 514.33124 1063.9866 514.33124Q1064.471 514.33124 1064.8303 514.1125Q1065.2053 513.8781 1065.4397 513.51874Q1065.6741 513.14374 1065.8303 512.51874Q1065.9866 511.8781 1065.9866 511.22186Q1065.9866 511.14374 1065.9866 511.0031Q1065.6741 511.5031 1065.1272 511.83124Q1064.5803 512.14374 1063.9397 512.14374Q1062.8616 512.14374 1062.1272 511.3781Q1061.3928 510.59686 1061.3928 509.33124Q1061.3928 508.01874 1062.1584 507.22186Q1062.9397 506.425 1064.096 506.425Q1064.9241 506.425 1065.6116 506.8781Q1066.3147 507.33124 1066.6741 508.175Q1067.0334 509.0031 1067.0334 510.58124Q1067.0334 512.22186 1066.6741 513.20624Q1066.3303 514.175 1065.6116 514.6906Q1064.9084 515.1906 1063.971 515.1906Q1062.9553 515.1906 1062.3147 514.64374Q1061.6741 514.08124 1061.5491 513.0656ZM1065.8616 509.26874Q1065.8616 508.3625 1065.3772 507.83124Q1064.9084 507.3 1064.221 507.3Q1063.5178 507.3 1062.9866 507.8781Q1062.471 508.4406 1062.471 509.3625Q1062.471 510.175 1062.971 510.6906Q1063.471 511.20624 1064.1897 511.20624Q1064.9241 511.20624 1065.3928 510.6906Q1065.8616 510.175 1065.8616 509.26874ZM1068.3928 510.8156Q1068.3928 509.28436 1068.7053 508.3625Q1069.0178 507.425 1069.6272 506.925Q1070.2522 506.425 1071.1897 506.425Q1071.8772 506.425 1072.3928 506.70624Q1072.9241 506.9875 1073.2678 507.51874Q1073.6116 508.03436 1073.7991 508.78436Q1073.9866 509.53436 1073.9866 510.8156Q1073.9866 512.33124 1073.6741 513.2531Q1073.3772 514.175 1072.7522 514.6906Q1072.1428 515.1906 1071.1897 515.1906Q1069.9553 515.1906 1069.2366 514.3Q1068.3928 513.2375 1068.3928 510.8156ZM1069.471 510.8156Q1069.471 512.925 1069.971 513.6281Q1070.471 514.33124 1071.1897 514.33124Q1071.9241 514.33124 1072.4084 513.6281Q1072.9084 512.925 1072.9084 510.8156Q1072.9084 508.6906 1072.4084 508.0031Q1071.9241 507.3 1071.1741 507.3Q1070.4553 507.3 1070.0178 507.90936Q1069.471 508.6906 1069.471 510.8156Z" fill-rule="nonzero"/><path fill="#000000" d="M1211.0969 514.03436L1211.0969 515.05L1205.4094 515.05Q1205.4094 514.675 1205.5344 514.3156Q1205.7532 513.7375 1206.2219 513.175Q1206.7063 512.6125 1207.6125 511.8781Q1209.0188 510.72186 1209.5032 510.05Q1210.0032 509.3781 1210.0032 508.78436Q1210.0032 508.15936 1209.55 507.7375Q1209.0969 507.3 1208.3782 507.3Q1207.6125 507.3 1207.1594 507.7531Q1206.7063 508.20624 1206.6907 509.01874L1205.6125 508.90936Q1205.7219 507.6906 1206.4407 507.0656Q1207.175 506.425 1208.4094 506.425Q1209.6438 506.425 1210.3625 507.1125Q1211.0813 507.8 1211.0813 508.8156Q1211.0813 509.33124 1210.8625 509.83124Q1210.6594 510.3156 1210.1594 510.8781Q1209.675 511.425 1208.55 512.3781Q1207.5969 513.175 1207.3157 513.47186Q1207.05 513.7531 1206.8782 514.03436L1211.0969 514.03436ZM1212.55 512.8L1213.6594 512.70624Q1213.7844 513.51874 1214.2219 513.925Q1214.675 514.33124 1215.3157 514.33124Q1216.0657 514.33124 1216.5969 513.7531Q1217.1282 513.175 1217.1282 512.2375Q1217.1282 511.33124 1216.6125 510.8156Q1216.1125 510.28436 1215.2844 510.28436Q1214.7844 510.28436 1214.3625 510.51874Q1213.9563 510.7531 1213.7219 511.1125L1212.7375 510.9875L1213.5657 506.58124L1217.8469 506.58124L1217.8469 507.58124L1214.4094 507.58124L1213.9563 509.89374Q1214.7219 509.34686 1215.5657 509.34686Q1216.6907 509.34686 1217.4563 510.1281Q1218.2375 510.90936 1218.2375 512.14374Q1218.2375 513.3 1217.5657 514.15936Q1216.7375 515.1906 1215.3157 515.1906Q1214.1438 515.1906 1213.3938 514.53436Q1212.6594 513.8781 1212.55 512.8ZM1219.55 512.8L1220.6594 512.70624Q1220.7844 513.51874 1221.2219 513.925Q1221.675 514.33124 1222.3157 514.33124Q1223.0657 514.33124 1223.5969 513.7531Q1224.1282 513.175 1224.1282 512.2375Q1224.1282 511.33124 1223.6125 510.8156Q1223.1125 510.28436 1222.2844 510.28436Q1221.7844 510.28436 1221.3625 510.51874Q1220.9563 510.7531 1220.7219 511.1125L1219.7375 510.9875L1220.5657 506.58124L1224.8469 506.58124L1224.8469 507.58124L1221.4094 507.58124L1220.9563 509.89374Q1221.7219 509.34686 1222.5657 509.34686Q1223.6907 509.34686 1224.4563 510.1281Q1225.2375 510.90936 1225.2375 512.14374Q1225.2375 513.3 1224.5657 514.15936Q1223.7375 515.1906 1222.3157 515.1906Q1221.1438 515.1906 1220.3938 514.53436Q1219.6594 513.8781 1219.55 512.8ZM1226.55 512.8L1227.6594 512.70624Q1227.7844 513.51874 1228.2219 513.925Q1228.675 514.33124 1229.3157 514.33124Q1230.0657 514.33124 1230.5969 513.7531Q1231.1282 513.175 1231.1282 512.2375Q1231.1282 511.33124 1230.6125 510.8156Q1230.1125 510.28436 1229.2844 510.28436Q1228.7844 510.28436 1228.3625 510.51874Q1227.9563 510.7531 1227.7219 511.1125L1226.7375 510.9875L1227.5657 506.58124L1231.8469 506.58124L1231.8469 507.58124L1228.4094 507.58124L1227.9563 509.89374Q1228.7219 509.34686 1229.5657 509.34686Q1230.6907 509.34686 1231.4563 510.1281Q1232.2375 510.90936 1232.2375 512.14374Q1232.2375 513.3 1231.5657 514.15936Q1230.7375 515.1906 1229.3157 515.1906Q1228.1438 515.1906 1227.3938 514.53436Q1226.6594 513.8781 1226.55 512.8Z" fill-rule="nonzero"/><path fill="#757575" d="M37.371876 44.60625L39.184376 44.840626Q38.7625 46.41875 37.590626 47.309376Q36.434376 48.184376 34.621876 48.184376Q32.35625 48.184376 31.0125 46.79375Q29.684376 45.3875 29.684376 42.85625Q29.684376 40.23125 31.028126 38.79375Q32.371876 37.340626 34.528126 37.340626Q36.60625 37.340626 37.91875 38.7625Q39.246876 40.16875 39.246876 42.746876Q39.246876 42.903126 39.23125 43.215626L31.496876 43.215626Q31.590626 44.91875 32.465626 45.825Q33.340626 46.73125 34.6375 46.73125Q35.60625 46.73125 36.278126 46.23125Q36.965626 45.715626 37.371876 44.60625ZM31.590626 41.7625L37.3875 41.7625Q37.278126 40.465626 36.73125 39.809376Q35.8875 38.79375 34.54375 38.79375Q33.340626 38.79375 32.5125 39.60625Q31.684376 40.403126 31.590626 41.7625ZM41.2625 47.95L41.2625 37.575L42.840626 37.575L42.840626 39.028126Q43.325 38.278126 44.1375 37.809376Q44.95 37.340626 45.98125 37.340626Q47.1375 37.340626 47.871876 37.825Q48.60625 38.29375 48.91875 39.153126Q50.153126 37.340626 52.121876 37.340626Q53.66875 37.340626 54.496876 38.2Q55.325 39.059376 55.325 40.825L55.325 47.95L53.575 47.95L53.575 41.41875Q53.575 40.35625 53.403126 39.903126Q53.23125 39.434376 52.778126 39.153126Q52.340626 38.871876 51.73125 38.871876Q50.6375 38.871876 49.903126 39.60625Q49.184376 40.325 49.184376 41.91875L49.184376 47.95L47.434376 47.95L47.434376 41.215626Q47.434376 40.04375 46.996876 39.465626Q46.575 38.871876 45.590626 38.871876Q44.85625 38.871876 44.215626 39.2625Q43.590626 39.653126 43.309376 40.403126Q43.028126 41.153126 43.028126 42.575L43.028126 47.95L41.2625 47.95ZM57.278126 35.653126L57.278126 33.6375L59.04375 33.6375L59.04375 35.653126L57.278126 35.653126ZM57.278126 47.95L57.278126 37.575L59.04375 37.575L59.04375 47.95L57.278126 47.95ZM60.559376 44.85625L62.309376 44.575Q62.45 45.621876 63.121876 46.184376Q63.79375 46.73125 64.99687 46.73125Q66.2 46.73125 66.77812 46.246876Q67.37187 45.746876 67.37187 45.090626Q67.37187 44.496876 66.85625 44.153126Q66.49687 43.91875 65.05937 43.559376Q63.121876 43.059376 62.371876 42.715626Q61.6375 42.35625 61.246876 41.73125Q60.85625 41.090626 60.85625 40.325Q60.85625 39.6375 61.16875 39.04375Q61.496876 38.45 62.04375 38.059376Q62.45 37.7625 63.153126 37.559376Q63.871876 37.340626 64.68437 37.340626Q65.90312 37.340626 66.825 37.7Q67.74687 38.04375 68.18437 38.653126Q68.62187 39.246876 68.79375 40.246876L67.075 40.48125Q66.95 39.684376 66.3875 39.246876Q65.825 38.79375 64.80937 38.79375Q63.590626 38.79375 63.075 39.2Q62.559376 39.590626 62.559376 40.121876Q62.559376 40.465626 62.778126 40.746876Q62.98125 41.028126 63.45 41.215626Q63.715626 41.309376 64.99687 41.653126Q66.87187 42.153126 67.60625 42.48125Q68.34062 42.79375 68.7625 43.403126Q69.18437 43.996876 69.18437 44.903126Q69.18437 45.778126 68.66875 46.559376Q68.15312 47.340626 67.18437 47.7625Q66.21562 48.184376 64.99687 48.184376Q62.98125 48.184376 61.91875 47.340626Q60.85625 46.496876 60.559376 44.85625ZM70.55937 44.85625L72.30937 44.575Q72.45 45.621876 73.12187 46.184376Q73.79375 46.73125 74.99687 46.73125Q76.2 46.73125 76.77812 46.246876Q77.37187 45.746876 77.37187 45.090626Q77.37187 44.496876 76.85625 44.153126Q76.49687 43.91875 75.05937 43.559376Q73.12187 43.059376 72.37187 42.715626Q71.6375 42.35625 71.24687 41.73125Q70.85625 41.090626 70.85625 40.325Q70.85625 39.6375 71.16875 39.04375Q71.49687 38.45 72.04375 38.059376Q72.45 37.7625 73.15312 37.559376Q73.87187 37.340626 74.68437 37.340626Q75.90312 37.340626 76.825 37.7Q77.74687 38.04375 78.18437 38.653126Q78.62187 39.246876 78.79375 40.246876L77.075 40.48125Q76.95 39.684376 76.3875 39.246876Q75.825 38.79375 74.80937 38.79375Q73.59062 38.79375 73.075 39.2Q72.55937 39.590626 72.55937 40.121876Q72.55937 40.465626 72.77812 40.746876Q72.98125 41.028126 73.45 41.215626Q73.71562 41.309376 74.99687 41.653126Q76.87187 42.153126 77.60625 42.48125Q78.34062 42.79375 78.7625 43.403126Q79.18437 43.996876 79.18437 44.903126Q79.18437 45.778126 78.66875 46.559376Q78.15312 47.340626 77.18437 47.7625Q76.21562 48.184376 74.99687 48.184376Q72.98125 48.184376 71.91875 47.340626Q70.85625 46.496876 70.55937 44.85625ZM81.27812 35.653126L81.27812 33.6375L83.04375 33.6375L83.04375 35.653126L81.27812 35.653126ZM81.27812 47.95L81.27812 37.575L83.04375 37.575L83.04375 47.95L81.27812 47.95ZM84.62187 42.7625Q84.62187 39.8875 86.21562 38.496876Q87.55937 37.340626 89.48125 37.340626Q91.62187 37.340626 92.96562 38.746876Q94.325 40.153126 94.325 42.621876Q94.325 44.621876 93.73125 45.778126Q93.1375 46.91875 91.98125 47.559376Q90.84062 48.184376 89.48125 48.184376Q87.29375 48.184376 85.95 46.79375Q84.62187 45.3875 84.62187 42.7625ZM86.41875 42.7625Q86.41875 44.7625 87.27812 45.746876Q88.15312 46.73125 89.48125 46.73125Q90.79375 46.73125 91.65312 45.746876Q92.52812 44.746876 92.52812 42.7Q92.52812 40.778126 91.65312 39.79375Q90.77812 38.79375 89.48125 38.79375Q88.15312 38.79375 87.27812 39.79375Q86.41875 40.778126 86.41875 42.7625ZM96.2625 47.95L96.2625 37.575L97.85625 37.575L97.85625 39.059376Q98.99687 37.340626 101.15312 37.340626Q102.09062 37.340626 102.87187 37.684376Q103.66875 38.0125 104.05937 38.559376Q104.45 39.10625 104.60625 39.85625Q104.7 40.35625 104.7 41.575L104.7 47.95L102.93437 47.95L102.93437 41.6375Q102.93437 40.559376 102.73125 40.028126Q102.52812 39.496876 101.99687 39.184376Q101.48125 38.871876 100.77812 38.871876Q99.65312 38.871876 98.84062 39.590626Q98.02812 40.29375 98.02812 42.278126L98.02812 47.95L96.2625 47.95ZM112.24687 47.95L112.24687 37.575L113.825 37.575L113.825 39.153126Q114.43437 38.04375 114.95 37.7Q115.46562 37.340626 116.075 37.340626Q116.96562 37.340626 117.8875 37.903126L117.27812 39.54375Q116.6375 39.153126 115.99687 39.153126Q115.41875 39.153126 114.95 39.5125Q114.49687 39.85625 114.29375 40.465626Q114.0125 41.403126 114.0125 42.5125L114.0125 47.95L112.24687 47.95ZM126.04375 46.66875Q125.05937 47.496876 124.15312 47.840626Q123.24687 48.184376 122.21562 48.184376Q120.5125 48.184376 119.59062 47.35625Q118.66875 46.5125 118.66875 45.215626Q118.66875 44.45 119.0125 43.825Q119.37187 43.2 119.93437 42.825Q120.49687 42.434376 121.2 42.23125Q121.71562 42.10625 122.7625 41.965626Q124.8875 41.715626 125.8875 41.371876Q125.90312 41.0125 125.90312 40.903126Q125.90312 39.840626 125.40312 39.3875Q124.73125 38.79375 123.40312 38.79375Q122.15312 38.79375 121.55937 39.23125Q120.98125 39.66875 120.7 40.778126L118.98125 40.54375Q119.21562 39.434376 119.74687 38.7625Q120.27812 38.075 121.29375 37.715626Q122.30937 37.340626 123.65312 37.340626Q124.98125 37.340626 125.80937 37.653126Q126.6375 37.965626 127.02812 38.45Q127.41875 38.91875 127.575 39.6375Q127.66875 40.090626 127.66875 41.2625L127.66875 43.60625Q127.66875 46.059376 127.77812 46.715626Q127.8875 47.35625 128.23125 47.95L126.3875 47.95Q126.12187 47.403126 126.04375 46.66875ZM125.8875 42.746876Q124.93437 43.1375 123.0125 43.403126Q121.93437 43.559376 121.48125 43.7625Q121.04375 43.95 120.79375 44.325Q120.54375 44.7 120.54375 45.16875Q120.54375 45.871876 121.075 46.340626Q121.60625 46.809376 122.6375 46.809376Q123.65312 46.809376 124.43437 46.371876Q125.23125 45.91875 125.60625 45.153126Q125.8875 44.54375 125.8875 43.3875L125.8875 42.746876ZM134.10625 46.371876L134.35625 47.934376Q133.62187 48.090626 133.02812 48.090626Q132.075 48.090626 131.54375 47.79375Q131.02812 47.48125 130.80937 46.996876Q130.59062 46.496876 130.59062 44.91875L130.59062 38.95L129.30937 38.95L129.30937 37.575L130.59062 37.575L130.59062 35.0125L132.34062 33.95L132.34062 37.575L134.10625 37.575L134.10625 38.95L132.34062 38.95L132.34062 45.0125Q132.34062 45.7625 132.43437 45.98125Q132.52812 46.184376 132.73125 46.325Q132.95 46.45 133.34062 46.45Q133.62187 46.45 134.10625 46.371876ZM143.37187 44.60625L145.18437 44.840626Q144.7625 46.41875 143.59062 47.309376Q142.43437 48.184376 140.62187 48.184376Q138.35625 48.184376 137.0125 46.79375Q135.68437 45.3875 135.68437 42.85625Q135.68437 40.23125 137.02812 38.79375Q138.37187 37.340626 140.52812 37.340626Q142.60625 37.340626 143.91875 38.7625Q145.24687 40.16875 145.24687 42.746876Q145.24687 42.903126 145.23125 43.215626L137.49687 43.215626Q137.59062 44.91875 138.46562 45.825Q139.34062 46.73125 140.6375 46.73125Q141.60625 46.73125 142.27812 46.23125Q142.96562 45.715626 143.37187 44.60625ZM137.59062 41.7625L143.3875 41.7625Q143.27812 40.465626 142.73125 39.809376Q141.8875 38.79375 140.54375 38.79375Q139.34062 38.79375 138.5125 39.60625Q137.68437 40.403126 137.59062 41.7625ZM156.15312 47.95L152.2 37.575L154.05937 37.575L156.29375 43.79375Q156.65312 44.79375 156.95 45.871876Q157.18437 45.059376 157.60625 43.903126L159.90312 37.575L161.71562 37.575L157.79375 47.95L156.15312 47.95ZM161.55937 44.85625L163.30937 44.575Q163.45 45.621876 164.12187 46.184376Q164.79375 46.73125 165.99687 46.73125Q167.2 46.73125 167.77812 46.246876Q168.37187 45.746876 168.37187 45.090626Q168.37187 44.496876 167.85625 44.153126Q167.49687 43.91875 166.05937 43.559376Q164.12187 43.059376 163.37187 42.715626Q162.6375 42.35625 162.24687 41.73125Q161.85625 41.090626 161.85625 40.325Q161.85625 39.6375 162.16875 39.04375Q162.49687 38.45 163.04375 38.059376Q163.45 37.7625 164.15312 37.559376Q164.87187 37.340626 165.68437 37.340626Q166.90312 37.340626 167.825 37.7Q168.74687 38.04375 169.18437 38.653126Q169.62187 39.246876 169.79375 40.246876L168.075 40.48125Q167.95 39.684376 167.3875 39.246876Q166.825 38.79375 165.80937 38.79375Q164.59062 38.79375 164.075 39.2Q163.55937 39.590626 163.55937 40.121876Q163.55937 40.465626 163.77812 40.746876Q163.98125 41.028126 164.45 41.215626Q164.71562 41.309376 165.99687 41.653126Q167.87187 42.153126 168.60625 42.48125Q169.34062 42.79375 169.7625 43.403126Q170.18437 43.996876 170.18437 44.903126Q170.18437 45.778126 169.66875 46.559376Q169.15312 47.340626 168.18437 47.7625Q167.21562 48.184376 165.99687 48.184376Q163.98125 48.184376 162.91875 47.340626Q161.85625 46.496876 161.55937 44.85625ZM184.99687 47.95L184.99687 46.6375Q184.0125 48.184376 182.09062 48.184376Q180.85625 48.184376 179.80937 47.496876Q178.77812 46.809376 178.2 45.590626Q177.6375 44.371876 177.6375 42.778126Q177.6375 41.215626 178.15312 39.95Q178.66875 38.684376 179.7 38.0125Q180.74687 37.340626 182.0125 37.340626Q182.95 37.340626 183.68437 37.746876Q184.41875 38.1375 184.8875 38.7625L184.8875 33.6375L186.62187 33.6375L186.62187 47.95L184.99687 47.95ZM179.43437 42.778126Q179.43437 44.7625 180.27812 45.746876Q181.12187 46.73125 182.2625 46.73125Q183.41875 46.73125 184.21562 45.79375Q185.02812 44.85625 185.02812 42.91875Q185.02812 40.79375 184.2 39.79375Q183.3875 38.79375 182.18437 38.79375Q181.0125 38.79375 180.21562 39.7625Q179.43437 40.715626 179.43437 42.778126ZM196.04375 46.66875Q195.05937 47.496876 194.15312 47.840626Q193.24687 48.184376 192.21562 48.184376Q190.5125 48.184376 189.59062 47.35625Q188.66875 46.5125 188.66875 45.215626Q188.66875 44.45 189.0125 43.825Q189.37187 43.2 189.93437 42.825Q190.49687 42.434376 191.2 42.23125Q191.71562 42.10625 192.7625 41.965626Q194.8875 41.715626 195.8875 41.371876Q195.90312 41.0125 195.90312 40.903126Q195.90312 39.840626 195.40312 39.3875Q194.73125 38.79375 193.40312 38.79375Q192.15312 38.79375 191.55937 39.23125Q190.98125 39.66875 190.7 40.778126L188.98125 40.54375Q189.21562 39.434376 189.74687 38.7625Q190.27812 38.075 191.29375 37.715626Q192.30937 37.340626 193.65312 37.340626Q194.98125 37.340626 195.80937 37.653126Q196.6375 37.965626 197.02812 38.45Q197.41875 38.91875 197.575 39.6375Q197.66875 40.090626 197.66875 41.2625L197.66875 43.60625Q197.66875 46.059376 197.77812 46.715626Q197.8875 47.35625 198.23125 47.95L196.3875 47.95Q196.12187 47.403126 196.04375 46.66875ZM195.8875 42.746876Q194.93437 43.1375 193.0125 43.403126Q191.93437 43.559376 191.48125 43.7625Q191.04375 43.95 190.79375 44.325Q190.54375 44.7 190.54375 45.16875Q190.54375 45.871876 191.075 46.340626Q191.60625 46.809376 192.6375 46.809376Q193.65312 46.809376 194.43437 46.371876Q195.23125 45.91875 195.60625 45.153126Q195.8875 44.54375 195.8875 43.3875L195.8875 42.746876ZM200.18437 51.95L199.99687 50.29375Q200.575 50.45 200.99687 50.45Q201.59062 50.45 201.93437 50.246876Q202.29375 50.059376 202.5125 49.715626Q202.68437 49.45 203.05937 48.403126Q203.10625 48.246876 203.21562 47.965626L199.27812 37.575L201.16875 37.575L203.325 43.590626Q203.74687 44.73125 204.075 45.98125Q204.3875 44.778126 204.79375 43.621876L207.0125 37.575L208.77812 37.575L204.825 48.121876Q204.2 49.840626 203.84062 50.48125Q203.37187 51.35625 202.7625 51.746876Q202.16875 52.153126 201.325 52.153126Q200.80937 52.153126 200.18437 51.95ZM209.55937 44.85625L211.30937 44.575Q211.45 45.621876 212.12187 46.184376Q212.79375 46.73125 213.99687 46.73125Q215.2 46.73125 215.77812 46.246876Q216.37187 45.746876 216.37187 45.090626Q216.37187 44.496876 215.85625 44.153126Q215.49687 43.91875 214.05937 43.559376Q212.12187 43.059376 211.37187 42.715626Q210.6375 42.35625 210.24687 41.73125Q209.85625 41.090626 209.85625 40.325Q209.85625 39.6375 210.16875 39.04375Q210.49687 38.45 211.04375 38.059376Q211.45 37.7625 212.15312 37.559376Q212.87187 37.340626 213.68437 37.340626Q214.90312 37.340626 215.825 37.7Q216.74687 38.04375 217.18437 38.653126Q217.62187 39.246876 217.79375 40.246876L216.075 40.48125Q215.95 39.684376 215.3875 39.246876Q214.825 38.79375 213.80937 38.79375Q212.59062 38.79375 212.075 39.2Q211.55937 39.590626 211.55937 40.121876Q211.55937 40.465626 211.77812 40.746876Q211.98125 41.028126 212.45 41.215626Q212.71562 41.309376 213.99687 41.653126Q215.87187 42.153126 216.60625 42.48125Q217.34062 42.79375 217.7625 43.403126Q218.18437 43.996876 218.18437 44.903126Q218.18437 45.778126 217.66875 46.559376Q217.15312 47.340626 216.18437 47.7625Q215.21562 48.184376 213.99687 48.184376Q211.98125 48.184376 210.91875 47.340626Q209.85625 46.496876 209.55937 44.85625Z" fill-rule="nonzero"/></svg>